Dactyl Stroked.sfdir
StartChar: !
Encoding: 33 33 0
Width: 226
InSpiro: 1
        Flags: H
        LayerCount: 2
        Back
        SplineSet
59 692 m 0
63 692 l 0
63 288 l 0
59 288 l 0
59 692 l 0
Z
78 692 m 0
83 692 l 0
83 288 l 0
78 288 l 0
78 692 l 0
Z
98 692 m 0
103 692 l 0
103 288 l 0
98 288 l 0
98 692 l 0
Z
118 692 m 0
123 692 l 0
123 288 l 0
118 288 l 0
118 692 l 0
Z
89 62 m 0
96 61 103 64 108 70 c 0
114 75 116 82 117 90 c 0
117 97 114 104 109 109 c 0
104 114 97 117 90 118 c 0
82 118 74 114 69 109 c 0
64 104 61 96 62 89 c 0
62 81 65 75 70 70 c 0
75 65 81 62 89 62 c 0
Z
58 90 m 0
57 98 61 106 67 112 c 0
72 118 80 121 89 122 c 0
97 122 106 118 112 112 c 0
118 106 122 97 122 89 c 0
121 80 118 72 112 67 c 0
106 61 98 57 90 58 c 0
81 58 73 61 67 67 c 0
61 73 58 81 58 90 c 0
Z
89 77 m 0
92 76 95 78 98 80 c 0
100 83 101 86 102 90 c 0
102 93 100 96 98 98 c 0
96 101 93 102 90 103 c 0
86 103 82 101 80 98 c 0
77 96 76 92 77 89 c 0
77 85 78 82 80 80 c 0
82 78 85 77 89 77 c 0
Z
72 90 m 0
72 94 73 98 77 101 c 0
80 105 84 106 89 107 c 0
93 107 98 105 101 101 c 0
105 98 107 93 107 89 c 0
106 84 104 80 101 77 c 0
98 74 94 73 90 73 c 0
85 72 80 74 77 77 c 0
74 80 71 85 72 90 c 0
Z
Spiro
59 692 v
63 692 v
63 288 v
59 288 v
78 692 v
83 692 v
83 288 v
78 288 v
98 692 v
103 692 v
103 288 v
98 288 v
118 692 v
123 692 v
123 288 v
118 288 v
89 62 c
117 90 c
90 118 c
62 89 c
58 90 c
89 122 c
122 89 c
90 58 c
89 77 c
102 90 c
90 103 c
77 89 c
72 90 c
89 107 c
107 89 c
90 73 c
0 0 z
EndSpiro
EndSplineSet
        Fore
        SplineSet
0 662 m 0
5 662 l 0
5 258 l 0
0 258 l 0
0 662 l 0
Z
40 662 m 0
45 662 l 0
45 258 l 0
40 258 l 0
40 662 l 0
Z
80 662 m 0
85 662 l 0
85 258 l 0
80 258 l 0
80 662 l 0
Z
120 662 m 0
125 662 l 0
125 258 l 0
120 258 l 0
120 662 l 0
Z
59 2 m 0
74 1 89 8 100 18 c 0
110 29 116 44 117 60 c 0
117 75 110 90 100 100 c 0
89 111 75 117 60 118 c 0
44 118 29 111 18 100 c 0
7 89 1 74 2 59 c 0
2 44 8 29 18 18 c 0
29 8 44 2 59 2 c 0
Z
-2 60 m 0
-2 76 4 92 15 103 c 0
27 114 42 121 59 122 c 0
75 122 92 115 103 103 c 0
115 92 122 75 122 59 c 0
121 42 114 27 103 15 c 0
92 4 76 -2 60 -2 c 0
43 -1 27 4 16 16 c 0
4 27 -1 43 -2 60 c 0
Z
59 32 m 0
66 31 73 34 78 40 c 0
84 45 86 52 87 60 c 0
87 67 84 74 79 79 c 0
74 84 67 87 60 88 c 0
52 88 44 84 39 79 c 0
34 74 31 66 32 59 c 0
32 51 35 45 40 40 c 0
45 35 51 32 59 32 c 0
Z
27 60 m 0
27 68 30 76 36 82 c 0
42 88 50 91 59 92 c 0
67 92 76 88 82 82 c 0
88 76 92 67 92 59 c 0
91 50 88 42 82 37 c 0
76 31 68 28 60 28 c 0
51 27 42 31 36 37 c 0
30 43 26 51 27 60 c 0
Z
Spiro
0 662 v
5 662 v
5 258 v
0 258 v
40 662 v
45 662 v
45 258 v
40 258 v
80 662 v
85 662 v
85 258 v
80 258 v
120 662 v
125 662 v
125 258 v
120 258 v
59 2 c
117 60 c
60 118 c
2 59 c
-2 60 c
59 122 c
122 59 c
60 -2 c
59 32 c
87 60 c
60 88 c
32 59 c
27 60 c
59 92 c
92 59 c
60 28 c
0 0 z
EndSpiro
EndSplineSet
        EndChar
StartChar: "
Encoding: 34 34 0
Width: 376
InSpiro: 1
        Flags: H
        LayerCount: 2
        Back
        SplineSet
58 664 m 0
62 664 l 0
62 510 l 0
58 510 l 0
58 664 l 0
Z
59 664 m 0
63 664 l 0
63 510 l 0
59 510 l 0
59 664 l 0
Z
60 664 m 0
64 664 l 0
64 510 l 0
60 510 l 0
60 664 l 0
Z
61 664 m 0
66 664 l 0
66 510 l 0
61 510 l 0
61 664 l 0
Z
207 664 m 0
212 664 l 0
212 510 l 0
207 510 l 0
207 664 l 0
Z
208 664 m 0
213 664 l 0
213 510 l 0
208 510 l 0
208 664 l 0
Z
209 664 m 0
214 664 l 0
214 510 l 0
209 510 l 0
209 664 l 0
Z
211 664 m 0
216 664 l 0
216 510 l 0
211 510 l 0
211 664 l 0
Z
Spiro
58 664 v
62 664 v
62 510 v
58 510 v
59 664 v
63 664 v
63 510 v
59 510 v
60 664 v
64 664 v
64 510 v
60 510 v
61 664 v
66 664 v
66 510 v
61 510 v
207 664 v
212 664 v
212 510 v
207 510 v
208 664 v
213 664 v
213 510 v
208 510 v
209 664 v
214 664 v
214 510 v
209 510 v
211 664 v
216 664 v
216 510 v
211 510 v
0 0 z
EndSpiro
EndSplineSet
        Fore
        SplineSet
0 662 m 0
5 662 l 0
5 508 l 0
0 508 l 0
0 662 l 0
Z
40 662 m 0
45 662 l 0
45 508 l 0
40 508 l 0
40 662 l 0
Z
80 662 m 0
85 662 l 0
85 508 l 0
80 508 l 0
80 662 l 0
Z
120 662 m 0
125 662 l 0
125 508 l 0
120 508 l 0
120 662 l 0
Z
150 662 m 0
155 662 l 0
155 508 l 0
150 508 l 0
150 662 l 0
Z
190 662 m 0
195 662 l 0
195 508 l 0
190 508 l 0
190 662 l 0
Z
230 662 m 0
235 662 l 0
235 508 l 0
230 508 l 0
230 662 l 0
Z
270 662 m 0
275 662 l 0
275 508 l 0
270 508 l 0
270 662 l 0
Z
Spiro
0 662 v
5 662 v
5 508 v
0 508 v
40 662 v
45 662 v
45 508 v
40 508 v
80 662 v
85 662 v
85 508 v
80 508 v
120 662 v
125 662 v
125 508 v
120 508 v
150 662 v
155 662 v
155 508 v
150 508 v
190 662 v
195 662 v
195 508 v
190 508 v
230 662 v
235 662 v
235 508 v
230 508 v
270 662 v
275 662 v
275 508 v
270 508 v
0 0 z
EndSpiro
EndSplineSet
        EndChar
StartChar: #
Encoding: 35 35 0
Width: 526
InSpiro: 1
        Flags: H
        LayerCount: 2
        Back
        SplineSet
86 458 m 0
86 462 l 0
392 462 l 0
392 458 l 0
86 458 l 0
Z
87 478 m 0
87 482 l 0
392 482 l 0
392 478 l 0
87 478 l 0
Z
87 498 m 0
87 502 l 0
392 502 l 0
392 498 l 0
87 498 l 0
Z
87 518 m 0
87 522 l 0
392 522 l 0
392 518 l 0
87 518 l 0
Z
86 258 m 0
86 262 l 0
392 262 l 0
392 258 l 0
86 258 l 0
Z
87 278 m 0
87 282 l 0
392 282 l 0
392 278 l 0
87 278 l 0
Z
87 298 m 0
87 302 l 0
392 302 l 0
392 298 l 0
87 298 l 0
Z
87 318 m 0
87 322 l 0
392 322 l 0
392 318 l 0
87 318 l 0
Z
283 692 m 0
288 692 l 0
288 88 l 0
283 88 l 0
283 692 l 0
Z
303 692 m 0
308 692 l 0
308 88 l 0
303 88 l 0
303 692 l 0
Z
323 692 m 0
328 692 l 0
328 88 l 0
323 88 l 0
323 692 l 0
Z
343 692 m 0
348 692 l 0
348 88 l 0
343 88 l 0
343 692 l 0
Z
133 692 m 0
138 692 l 0
138 88 l 0
133 88 l 0
133 692 l 0
Z
153 692 m 0
158 692 l 0
158 88 l 0
153 88 l 0
153 692 l 0
Z
173 692 m 0
178 692 l 0
178 88 l 0
173 88 l 0
173 692 l 0
Z
193 692 m 0
198 692 l 0
198 88 l 0
193 88 l 0
193 692 l 0
Z
Spiro
86 458 v
86 462 v
392 462 v
392 458 v
87 478 v
87 482 v
392 482 v
392 478 v
87 498 v
87 502 v
392 502 v
392 498 v
87 518 v
87 522 v
392 522 v
392 518 v
86 258 v
86 262 v
392 262 v
392 258 v
87 278 v
87 282 v
392 282 v
392 278 v
87 298 v
87 302 v
392 302 v
392 298 v
87 318 v
87 322 v
392 322 v
392 318 v
283 692 v
288 692 v
288 88 v
283 88 v
303 692 v
308 692 v
308 88 v
303 88 v
323 692 v
328 692 v
328 88 v
323 88 v
343 692 v
348 692 v
348 88 v
343 88 v
133 692 v
138 692 v
138 88 v
133 88 v
153 692 v
158 692 v
158 88 v
153 88 v
173 692 v
178 692 v
178 88 v
173 88 v
193 692 v
198 692 v
198 88 v
193 88 v
0 0 z
EndSpiro
EndSplineSet
        Fore
        SplineSet
56 398 m 0
56 402 l 0
362 402 l 0
362 398 l 0
56 398 l 0
Z
57 438 m 0
57 442 l 0
362 442 l 0
362 438 l 0
57 438 l 0
Z
57 478 m 0
57 482 l 0
362 482 l 0
362 478 l 0
57 478 l 0
Z
57 518 m 0
57 522 l 0
362 522 l 0
362 518 l 0
57 518 l 0
Z
56 198 m 0
56 202 l 0
362 202 l 0
362 198 l 0
56 198 l 0
Z
57 238 m 0
57 242 l 0
362 242 l 0
362 238 l 0
57 238 l 0
Z
57 278 m 0
57 282 l 0
362 282 l 0
362 278 l 0
57 278 l 0
Z
57 318 m 0
57 322 l 0
362 322 l 0
362 318 l 0
57 318 l 0
Z
225 662 m 0
230 662 l 0
230 58 l 0
225 58 l 0
225 662 l 0
Z
265 662 m 0
270 662 l 0
270 58 l 0
265 58 l 0
265 662 l 0
Z
305 662 m 0
310 662 l 0
310 58 l 0
305 58 l 0
305 662 l 0
Z
345 662 m 0
350 662 l 0
350 58 l 0
345 58 l 0
345 662 l 0
Z
75 662 m 0
80 662 l 0
80 58 l 0
75 58 l 0
75 662 l 0
Z
115 662 m 0
120 662 l 0
120 58 l 0
115 58 l 0
115 662 l 0
Z
155 662 m 0
160 662 l 0
160 58 l 0
155 58 l 0
155 662 l 0
Z
195 662 m 0
200 662 l 0
200 58 l 0
195 58 l 0
195 662 l 0
Z
Spiro
56 398 v
56 402 v
362 402 v
362 398 v
57 438 v
57 442 v
362 442 v
362 438 v
57 478 v
57 482 v
362 482 v
362 478 v
57 518 v
57 522 v
362 522 v
362 518 v
56 198 v
56 202 v
362 202 v
362 198 v
57 238 v
57 242 v
362 242 v
362 238 v
57 278 v
57 282 v
362 282 v
362 278 v
57 318 v
57 322 v
362 322 v
362 318 v
225 662 v
230 662 v
230 58 v
225 58 v
265 662 v
270 662 v
270 58 v
265 58 v
305 662 v
310 662 v
310 58 v
305 58 v
345 662 v
350 662 v
350 58 v
345 58 v
75 662 v
80 662 v
80 58 v
75 58 v
115 662 v
120 662 v
120 58 v
115 58 v
155 662 v
160 662 v
160 58 v
155 58 v
195 662 v
200 662 v
200 58 v
195 58 v
0 0 z
EndSpiro
EndSplineSet
        EndChar
StartChar: %
Encoding: 37 37 0
Width: 526
InSpiro: 1
        Flags: H
        LayerCount: 2
        Back
        SplineSet
361 705 m 0
366 705 l 0
66 101 l 0
61 101 l 0
361 705 l 0
Z
379 696 m 0
384 696 l 0
84 92 l 0
79 92 l 0
379 696 l 0
Z
397 687 m 0
402 687 l 0
102 83 l 0
97 83 l 0
397 687 l 0
Z
415 678 m 0
420 678 l 0
120 74 l 0
115 74 l 0
415 678 l 0
Z
110 586 m 0
105 593 102 601 101 609 c 0
100 618 102 627 106 634 c 0
110 642 116 649 123 653 c 0
130 658 139 660 148 661 c 0
156 661 165 658 173 654 c 0
180 650 186 643 191 635 c 0
195 628 197 619 196 610 c 0
196 601 193 593 188 586 c 0
179 573 164 565 149 565 c 0
133 565 118 573 110 586 c 0
Z
185 589 m 0
189 595 192 603 192 611 c 0
193 619 191 627 187 634 c 0
184 641 178 647 171 651 c 0
164 655 156 658 149 658 c 0
141 657 133 655 126 651 c 0
119 647 113 641 110 634 c 0
106 627 104 619 105 611 c 0
105 603 108 595 113 589 c 0
121 577 134 570 148 570 c 0
163 570 176 577 185 589 c 0
Z
94 574 m 0
86 583 82 595 81 608 c 0
80 620 83 632 88 643 c 0
94 654 102 664 113 670 c 0
123 677 135 680 148 681 c 0
160 681 172 677 183 671 c 0
194 665 203 655 208 644 c 0
214 633 217 621 216 608 c 0
215 596 211 584 204 574 c 0
191 556 170 545 149 545 c 0
127 545 106 556 94 574 c 0
Z
201 577 m 0
207 586 211 597 212 609 c 0
213 621 211 632 205 643 c 0
200 653 192 662 182 668 c 0
172 674 160 678 149 678 c 0
137 677 125 674 115 668 c 0
105 662 97 653 92 643 c 0
86 632 84 621 85 609 c 0
86 597 90 586 97 577 c 0
108 560 128 550 148 550 c 0
169 550 189 560 201 577 c 0
Z
78 561 m 0
68 574 62 589 61 606 c 0
59 622 63 638 70 653 c 0
78 667 89 680 103 688 c 0
117 696 133 701 150 701 c 0
166 700 182 696 195 687 c 0
209 679 220 666 227 652 c 0
234 637 238 621 236 605 c 0
235 589 229 573 220 561 c 0
203 538 176 524 149 524 c 0
121 524 94 538 78 561 c 0
Z
217 564 m 0
226 576 231 591 232 606 c 0
234 622 231 638 224 651 c 0
217 665 206 677 193 685 c 0
179 693 164 698 149 698 c 0
133 697 118 693 104 685 c 0
91 677 80 665 73 651 c 0
66 638 63 622 65 606 c 0
66 591 71 576 81 564 c 0
96 542 122 529 148 529 c 0
175 529 201 542 217 564 c 0
Z
62 549 m 0
50 565 42 584 41 604 c 0
39 624 43 644 52 662 c 0
61 679 76 695 93 705 c 0
110 715 130 721 150 721 c 0
169 720 189 715 206 704 c 0
222 694 236 678 245 661 c 0
254 643 258 623 256 603 c 0
254 584 247 564 236 549 c 0
216 521 182 504 149 504 c 0
115 504 81 521 62 549 c 0
Z
233 552 m 0
244 567 251 586 252 605 c 0
254 624 250 643 242 660 c 0
233 677 219 692 203 702 c 0
187 712 168 718 149 718 c 0
129 717 110 712 94 702 c 0
78 692 64 677 55 660 c 0
47 643 43 624 45 605 c 0
46 586 53 567 65 552 c 0
84 525 116 509 148 509 c 0
181 509 213 525 233 552 c 0
Z
368 192 m 0
372 185 375 176 376 168 c 0
376 159 374 151 371 143 c 0
367 136 361 129 354 125 c 0
346 120 338 118 330 118 c 0
321 117 312 120 305 124 c 0
297 128 291 135 287 142 c 0
283 150 281 159 281 167 c 0
282 176 285 184 290 192 c 0
298 204 313 212 328 212 c 0
344 212 359 204 368 192 c 0
Z
293 189 m 0
288 182 285 174 285 166 c 0
285 159 286 151 290 144 c 0
294 137 299 131 306 127 c 0
313 123 321 120 329 121 c 0
336 121 344 123 351 127 c 0
358 131 363 137 367 144 c 0
371 151 372 159 372 166 c 0
372 174 369 182 365 189 c 0
357 200 343 208 329 208 c 0
314 208 300 200 293 189 c 0
Z
384 204 m 0
391 194 395 182 396 170 c 0
396 157 394 145 388 134 c 0
383 123 374 114 364 108 c 0
354 101 342 98 330 98 c 0
317 97 305 101 294 107 c 0
284 113 275 122 269 133 c 0
263 144 261 157 261 169 c 0
262 181 266 193 274 204 c 0
286 221 307 232 328 232 c 0
350 232 371 221 384 204 c 0
Z
277 201 m 0
270 191 266 180 265 168 c 0
264 157 267 145 272 135 c 0
277 124 286 116 296 110 c 0
305 104 317 100 329 101 c 0
340 101 352 104 361 110 c 0
371 116 380 124 385 135 c 0
390 145 393 157 392 168 c 0
391 180 387 191 381 201 c 0
369 217 349 228 329 228 c 0
308 228 288 217 277 201 c 0
Z
400 217 m 0
409 203 415 188 416 172 c 0
417 156 414 139 406 125 c 0
399 111 387 98 374 90 c 0
360 82 344 77 328 78 c 0
312 78 296 82 282 91 c 0
269 99 257 111 250 126 c 0
243 140 240 156 241 172 c 0
242 188 248 204 258 217 c 0
274 239 301 253 328 253 c 0
356 253 383 239 400 217 c 0
Z
261 214 m 0
252 201 246 186 245 171 c 0
244 155 247 140 254 126 c 0
261 113 272 101 285 93 c 0
298 85 313 80 329 81 c 0
344 81 359 85 372 93 c 0
385 101 396 113 403 126 c 0
410 140 413 155 412 171 c 0
411 186 405 201 397 214 c 0
381 235 355 248 329 248 c 0
302 248 276 235 261 214 c 0
Z
416 229 m 0
427 213 434 193 435 174 c 0
437 154 433 134 424 116 c 0
415 99 401 84 384 74 c 0
367 64 347 58 328 59 c 0
308 59 288 64 272 75 c 0
255 85 242 100 233 117 c 0
224 135 220 155 222 174 c 0
223 194 230 213 242 229 c 0
261 256 295 273 328 273 c 0
362 273 396 256 416 229 c 0
Z
245 226 m 0
233 210 226 192 225 173 c 0
223 154 227 134 236 117 c 0
245 100 258 86 274 76 c 0
290 66 309 60 329 61 c 0
348 61 367 66 383 76 c 0
399 86 412 100 421 117 c 0
430 134 434 154 432 173 c 0
431 192 424 210 413 226 c 0
393 252 361 268 329 268 c 0
296 268 264 252 245 226 c 0
Z
Spiro
361 705 v
366 705 v
66 101 v
61 101 v
379 696 v
384 696 v
84 92 v
79 92 v
397 687 v
402 687 v
102 83 v
97 83 v
415 678 v
420 678 v
120 74 v
115 74 v
110 586 c
148 661 c
188 586 c
185 589 c
149 658 c
113 589 c
94 574 c
148 681 c
204 574 c
201 577 c
149 678 c
97 577 c
78 561 c
150 701 c
220 561 c
217 564 c
149 698 c
81 564 c
62 549 c
150 721 c
236 549 c
233 552 c
149 718 c
65 552 c
368 192 c
330 118 c
290 192 c
293 189 c
329 121 c
365 189 c
384 204 c
330 98 c
274 204 c
277 201 c
329 101 c
381 201 c
400 217 c
328 78 c
258 217 c
261 214 c
329 81 c
397 214 c
416 229 c
328 59 c
242 229 c
245 226 c
329 61 c
413 226 c
0 0 z
EndSpiro
EndSplineSet
        Fore
        SplineSet
306 688 m 0
311 688 l 0
11 84 l 0
6 84 l 0
306 688 l 0
Z
341 670 m 0
346 670 l 0
46 66 l 0
41 66 l 0
341 670 l 0
Z
377 653 m 0
382 653 l 0
82 49 l 0
77 49 l 0
377 653 l 0
Z
413 635 m 0
418 635 l 0
118 31 l 0
113 31 l 0
413 635 l 0
Z
103 575 m 0
100 580 100 586 103 592 c 0
106 597 112 600 118 601 c 0
121 601 124 600 127 599 c 0
129 597 132 595 134 592 c 0
135 590 136 587 136 584 c 0
137 580 136 577 135 575 c 0
133 572 131 569 128 567 c 0
125 566 122 565 118 565 c 0
115 565 112 566 109 567 c 0
106 569 104 572 103 575 c 0
Z
132 576 m 0
133 578 133 580 133 583 c 0
133 585 133 588 131 590 c 0
130 592 128 594 126 596 c 0
124 597 121 598 119 598 c 0
116 597 113 597 111 596 c 0
109 594 107 592 106 590 c 0
104 588 104 585 104 583 c 0
104 580 104 578 106 576 c 0
107 573 109 571 111 570 c 0
113 569 116 568 119 568 c 0
121 568 124 569 126 570 c 0
128 571 130 573 132 576 c 0
Z
71 550 m 0
65 558 61 568 60 579 c 0
60 589 62 600 67 609 c 0
72 618 79 626 88 632 c 0
97 637 107 640 118 641 c 0
128 641 139 638 148 633 c 0
157 627 165 619 170 610 c 0
175 601 177 590 177 579 c 0
176 569 172 558 167 550 c 0
156 534 137 524 119 524 c 0
100 524 81 534 71 550 c 0
Z
164 553 m 0
169 561 172 570 173 580 c 0
173 590 171 600 167 609 c 0
162 617 155 625 147 630 c 0
138 635 128 638 119 638 c 0
109 637 99 635 90 630 c 0
82 625 75 617 70 609 c 0
66 600 64 590 64 580 c 0
65 570 68 561 74 553 c 0
83 538 101 529 118 529 c 0
136 529 154 538 164 553 c 0
Z
39 525 m 0
28 539 22 557 20 575 c 0
19 593 23 611 31 627 c 0
39 643 52 657 68 666 c 0
83 676 101 681 120 681 c 0
137 680 155 675 171 666 c 0
186 656 198 642 206 626 c 0
214 611 218 592 217 574 c 0
215 557 209 539 199 525 c 0
180 499 150 483 119 483 c 0
87 483 57 499 39 525 c 0
Z
196 528 m 0
206 542 212 558 213 576 c 0
214 593 211 611 203 626 c 0
195 641 183 655 168 664 c 0
153 673 136 678 119 678 c 0
101 677 84 673 69 664 c 0
54 655 42 641 34 626 c 0
26 611 23 593 24 576 c 0
25 558 31 542 42 528 c 0
59 503 89 488 118 488 c 0
148 488 178 503 196 528 c 0
Z
7 501 m 0
-7 521 -17 546 -19 571 c 0
-21 597 -15 623 -4 645 c 0
7 668 25 687 47 700 c 0
69 714 94 721 120 721 c 0
145 720 170 713 192 700 c 0
213 686 231 667 242 644 c 0
254 622 259 596 257 571 c 0
255 546 245 521 231 501 c 0
205 465 162 443 119 443 c 0
75 443 32 465 7 501 c 0
Z
228 504 m 0
242 523 251 548 253 572 c 0
255 597 250 622 239 644 c 0
227 666 210 685 189 698 c 0
168 711 143 718 119 718 c 0
94 717 69 711 48 698 c 0
27 685 10 666 -1 644 c 0
-12 622 -17 597 -15 572 c 0
-13 548 -4 523 10 504 c 0
34 469 76 448 118 448 c 0
161 448 203 469 228 504 c 0
Z
315 143 m 0
317 137 317 131 314 126 c 0
311 121 305 118 300 118 c 0
296 117 293 118 291 119 c 0
288 121 286 123 284 125 c 0
282 128 281 131 281 134 c 0
281 137 281 140 283 143 c 0
284 146 286 148 289 150 c 0
292 152 295 153 299 153 c 0
302 153 305 152 308 150 c 0
311 148 313 146 315 143 c 0
Z
286 142 m 0
284 139 284 137 284 134 c 0
284 132 285 129 286 127 c 0
287 125 289 124 291 122 c 0
294 121 296 120 299 121 c 0
301 121 303 121 306 122 c 0
308 124 310 125 311 127 c 0
312 129 313 132 313 134 c 0
313 137 313 139 312 142 c 0
310 144 308 146 306 147 c 0
304 149 301 150 298 150 c 0
296 150 293 149 291 147 c 0
289 146 287 144 286 142 c 0
Z
347 168 m 0
352 159 356 149 356 138 c 0
357 128 355 118 350 109 c 0
345 99 338 92 329 86 c 0
320 81 310 78 300 78 c 0
289 77 278 80 269 85 c 0
260 91 253 98 248 108 c 0
243 117 240 127 241 138 c 0
241 148 245 159 251 168 c 0
261 183 280 193 298 193 c 0
317 193 336 183 347 168 c 0
Z
254 165 m 0
248 156 245 147 245 137 c 0
244 127 246 118 251 109 c 0
255 100 262 93 271 88 c 0
279 83 289 80 299 81 c 0
308 81 318 83 326 88 c 0
335 93 342 100 346 109 c 0
351 118 353 127 352 137 c 0
352 147 349 156 344 165 c 0
334 179 316 189 299 189 c 0
281 189 263 179 254 165 c 0
Z
379 193 m 0
389 178 395 160 396 142 c 0
398 124 394 106 385 90 c 0
377 74 364 61 349 51 c 0
333 42 315 37 298 38 c 0
280 38 262 43 247 52 c 0
232 62 219 75 211 91 c 0
203 107 199 125 201 143 c 0
202 161 208 178 219 193 c 0
237 218 267 234 298 234 c 0
330 234 360 218 379 193 c 0
Z
222 190 m 0
212 175 206 159 204 141 c 0
203 124 207 107 215 92 c 0
223 76 235 63 249 54 c 0
264 45 281 40 299 41 c 0
316 41 333 45 348 54 c 0
362 63 374 76 382 92 c 0
390 107 394 124 393 141 c 0
391 159 385 175 376 190 c 0
358 214 329 229 299 229 c 0
268 229 239 214 222 190 c 0
Z
411 217 m 0
425 196 434 171 436 146 c 0
438 121 432 95 421 73 c 0
409 50 391 31 370 18 c 0
348 5 323 -1 298 -1 c 0
272 0 247 6 226 19 c 0
205 32 187 51 176 74 c 0
164 96 159 122 161 147 c 0
163 172 172 196 187 217 c 0
212 252 255 274 298 274 c 0
342 274 385 252 411 217 c 0
Z
190 214 m 0
175 194 166 170 164 145 c 0
163 121 168 96 179 74 c 0
190 52 207 33 228 20 c 0
249 7 274 0 299 1 c 0
323 1 348 7 369 20 c 0
390 33 407 52 418 74 c 0
429 96 434 121 433 145 c 0
431 170 422 194 408 214 c 0
383 248 341 269 299 269 c 0
256 269 214 248 190 214 c 0
Z
Spiro
306 688 v
311 688 v
11 84 v
6 84 v
341 670 v
346 670 v
46 66 v
41 66 v
377 653 v
382 653 v
82 49 v
77 49 v
413 635 v
418 635 v
118 31 v
113 31 v
103 575 c
118 601 c
135 575 c
132 576 c
119 598 c
106 576 c
71 550 c
118 641 c
167 550 c
164 553 c
119 638 c
74 553 c
39 525 c
120 681 c
199 525 c
196 528 c
119 678 c
42 528 c
7 501 c
120 721 c
231 501 c
228 504 c
119 718 c
10 504 c
315 143 c
300 118 c
283 143 c
286 142 c
299 121 c
312 142 c
347 168 c
300 78 c
251 168 c
254 165 c
299 81 c
344 165 c
379 193 c
298 38 c
219 193 c
222 190 c
299 41 c
376 190 c
411 217 c
298 -1 c
187 217 c
190 214 c
299 1 c
408 214 c
0 0 z
EndSpiro
EndSplineSet
        EndChar
StartChar: &
Encoding: 38 38 0
Width: 526
InSpiro: 1
        Flags: H
        LayerCount: 2
        Back
        SplineSet
412 109 m 0
407 109 l 0
258 259 l 0
220 297 182 336 156 383 c 0
130 430 115 484 115 538 c 0
114 571 119 606 139 633 c 0
149 646 163 657 178 663 c 0
194 669 212 669 228 663 c 0
238 658 247 651 253 642 c 0
260 633 265 623 267 612 c 0
273 591 270 568 264 547 c 0
247 492 209 448 170 408 c 0
146 383 123 359 103 332 c 0
83 305 67 275 63 242 c 0
57 203 67 162 88 130 c 0
110 98 143 73 181 62 c 0
227 47 278 51 321 73 c 0
364 95 398 135 413 182 c 0
418 182 l 0
402 134 368 94 324 71 c 0
280 49 227 44 180 60 c 0
142 72 108 96 85 129 c 0
63 162 53 203 59 243 c 0
63 276 79 307 99 334 c 0
119 362 143 386 167 411 c 0
205 451 242 495 259 548 c 0
265 568 268 590 264 610 c 0
261 621 257 631 251 639 c 0
245 648 236 655 227 660 c 0
212 666 194 666 179 660 c 0
164 655 151 644 142 631 c 0
133 618 127 602 123 587 c 0
120 571 119 555 120 539 c 0
121 485 135 432 161 386 c 0
186 339 223 299 261 262 c 0
412 109 l 0
Z
398 95 m 0
393 95 l 0
244 245 l 0
204 285 164 326 137 376 c 0
109 425 94 482 95 539 c 0
95 578 104 619 130 649 c 0
142 664 159 676 178 682 c 0
196 688 217 688 236 681 c 0
248 675 259 667 267 656 c 0
276 646 282 633 285 620 c 0
293 594 290 566 283 541 c 0
266 483 225 436 184 394 c 0
162 371 139 349 120 324 c 0
102 299 87 270 83 240 c 0
78 205 87 170 106 141 c 0
125 113 154 91 187 81 c 0
228 67 274 70 313 90 c 0
352 110 382 146 395 188 c 0
400 188 l 0
386 145 355 109 315 88 c 0
276 68 228 64 186 78 c 0
152 88 121 110 102 139 c 0
82 169 72 205 78 241 c 0
82 272 97 301 116 326 c 0
136 352 158 374 181 397 c 0
221 439 260 485 278 542 c 0
285 566 288 593 282 619 c 0
278 631 273 643 265 654 c 0
257 664 246 672 235 678 c 0
217 685 196 685 178 679 c 0
160 673 144 661 132 646 c 0
107 616 100 576 100 538 c 0
99 482 115 426 142 377 c 0
169 328 207 287 247 248 c 0
398 95 l 0
Z
383 80 m 0
378 80 l 0
229 230 l 0
187 272 145 316 116 368 c 0
88 420 72 480 75 540 c 0
76 585 89 632 120 666 c 0
135 682 155 696 176 702 c 0
198 709 222 708 244 700 c 0
258 693 271 684 282 671 c 0
292 659 299 645 304 630 c 0
313 599 311 566 303 536 c 0
285 475 243 425 199 381 c 0
178 360 156 339 138 316 c 0
120 293 106 266 103 237 c 0
99 207 107 177 123 152 c 0
140 128 165 109 193 100 c 0
229 87 270 90 304 108 c 0
338 126 365 158 376 195 c 0
381 195 l 0
369 157 342 124 307 106 c 0
272 87 229 84 192 97 c 0
162 106 136 125 119 150 c 0
102 176 94 207 98 238 c 0
101 267 116 295 134 318 c 0
152 342 174 362 196 384 c 0
239 427 280 477 298 537 c 0
306 566 309 598 300 628 c 0
296 643 289 657 279 669 c 0
269 681 257 691 243 697 c 0
222 705 198 706 177 699 c 0
156 693 136 679 122 663 c 0
92 629 81 583 80 539 c 0
78 480 93 421 121 369 c 0
150 318 190 274 232 233 c 0
383 80 l 0
Z
369 66 m 0
364 66 l 0
215 216 l 0
171 260 128 305 98 360 c 0
69 415 53 477 57 540 c 0
59 591 75 644 111 681 c 0
128 699 151 714 176 721 c 0
200 728 228 727 252 718 c 0
269 711 284 699 296 686 c 0
308 672 317 655 322 638 c 0
334 603 332 565 322 530 c 0
303 466 260 413 213 367 c 0
193 348 173 329 156 308 c 0
139 287 125 262 123 235 c 0
120 210 127 184 140 163 c 0
154 143 175 127 199 119 c 0
230 107 266 110 295 125 c 0
325 140 348 168 357 201 c 0
362 201 l 0
352 167 328 139 298 123 c 0
267 107 230 104 198 116 c 0
173 124 151 140 136 162 c 0
122 183 115 210 118 236 c 0
120 263 134 288 152 310 c 0
169 332 190 350 210 370 c 0
256 415 298 468 317 531 c 0
326 565 329 602 318 636 c 0
313 653 305 669 293 683 c 0
282 697 267 708 251 715 c 0
227 724 200 725 176 718 c 0
151 711 129 697 112 678 c 0
77 641 62 589 61 539 c 0
58 477 74 416 103 362 c 0
132 308 174 262 218 219 c 0
369 66 l 0
Z
Spiro
412 109 v
407 109 v
258 259 ]
115 538 c
228 663 c
264 547 c
170 408 c
63 242 c
181 62 c
413 182 v
418 182 v
180 60 c
59 243 c
167 411 c
259 548 c
227 660 c
120 539 c
261 262 [
398 95 v
393 95 v
244 245 ]
95 539 c
236 681 c
283 541 c
184 394 c
83 240 c
187 81 c
395 188 v
400 188 v
186 78 c
78 241 c
181 397 c
278 542 c
235 678 c
100 538 c
247 248 [
383 80 v
378 80 v
229 230 ]
75 540 c
244 700 c
303 536 c
199 381 c
103 237 c
193 100 c
376 195 v
381 195 v
192 97 c
98 238 c
196 384 c
298 537 c
243 697 c
80 539 c
232 233 [
369 66 v
364 66 v
215 216 ]
57 540 c
252 718 c
322 530 c
213 367 c
123 235 c
199 119 c
357 201 v
362 201 v
198 116 c
118 236 c
210 370 c
317 531 c
251 715 c
61 539 c
218 219 [
0 0 z
EndSpiro
EndSplineSet
        Fore
        SplineSet
402 100 m 0
397 100 l 0
248 250 l 0
213 285 179 322 155 365 c 0
131 408 117 457 113 507 c 0
111 519 111 532 112 544 c 0
113 557 116 569 123 580 c 0
129 591 138 600 150 605 c 0
162 610 175 610 187 605 c 0
193 601 199 596 203 590 c 0
207 583 209 576 210 569 c 0
213 555 210 540 206 526 c 0
190 476 155 436 120 399 c 0
95 372 69 345 48 315 c 0
27 285 10 252 5 216 c 0
-2 170 8 122 33 84 c 0
59 45 98 17 142 3 c 0
195 -14 255 -9 304 16 c 0
354 42 393 88 410 142 c 0
415 142 l 0
397 87 358 40 307 14 c 0
256 -11 195 -17 141 0 c 0
96 14 55 43 29 82 c 0
3 121 -7 170 0 217 c 0
5 253 23 287 44 317 c 0
65 348 91 374 117 402 c 0
151 439 187 478 203 527 c 0
207 540 210 554 208 568 c 0
207 575 204 581 201 587 c 0
197 593 192 598 186 602 c 0
180 604 174 606 168 606 c 0
162 606 156 604 151 602 c 0
140 597 131 588 125 578 c 0
120 567 117 555 116 543 c 0
115 531 116 519 118 508 c 0
123 459 136 411 159 367 c 0
183 324 216 287 251 253 c 0
402 100 l 0
Z
374 72 m 0
369 72 l 0
220 222 l 0
180 261 142 302 115 350 c 0
88 398 72 453 73 509 c 0
73 545 81 584 104 612 c 0
116 626 131 638 149 643 c 0
166 649 186 649 203 642 c 0
214 637 224 629 231 619 c 0
239 609 244 598 247 586 c 0
254 562 251 537 245 514 c 0
228 458 188 412 148 371 c 0
125 347 102 324 83 298 c 0
64 272 49 242 45 211 c 0
39 174 48 137 68 106 c 0
88 75 119 52 154 41 c 0
197 26 247 30 287 51 c 0
328 72 360 110 373 155 c 0
378 155 l 0
364 109 331 70 290 49 c 0
248 27 197 23 153 38 c 0
117 49 85 73 64 104 c 0
43 135 34 174 40 212 c 0
44 244 60 274 79 300 c 0
99 327 122 350 145 374 c 0
184 415 223 460 240 515 c 0
246 537 249 561 244 584 c 0
241 596 236 607 229 616 c 0
222 626 212 634 202 639 c 0
185 646 166 646 149 640 c 0
132 635 117 623 106 609 c 0
95 595 88 578 83 561 c 0
79 543 77 525 78 508 c 0
78 453 93 399 120 351 c 0
146 304 184 263 223 225 c 0
374 72 l 0
Z
345 43 m 0
340 43 l 0
191 193 l 0
148 236 105 281 76 334 c 0
47 387 31 449 34 510 c 0
36 558 51 608 84 644 c 0
101 661 122 675 146 682 c 0
169 688 195 688 218 679 c 0
233 672 248 662 259 649 c 0
270 636 279 620 284 604 c 0
295 571 293 536 284 503 c 0
266 440 223 389 177 344 c 0
156 324 135 304 118 282 c 0
100 260 87 234 84 206 c 0
80 178 88 151 103 128 c 0
118 105 141 88 167 80 c 0
200 68 238 71 269 87 c 0
301 104 325 133 335 168 c 0
340 168 l 0
329 132 304 102 272 85 c 0
239 68 200 65 166 77 c 0
139 85 115 103 99 126 c 0
83 149 75 178 79 207 c 0
82 235 96 262 114 284 c 0
132 307 153 326 174 347 c 0
219 391 261 442 279 504 c 0
288 536 290 570 280 602 c 0
275 618 267 633 256 646 c 0
246 659 232 669 217 676 c 0
194 685 169 685 146 679 c 0
123 672 102 658 86 641 c 0
54 605 40 556 39 509 c 0
36 448 52 388 81 335 c 0
110 283 151 238 194 196 c 0
345 43 l 0
Z
317 15 m 0
312 15 l 0
163 165 l 0
116 212 70 261 39 319 c 0
8 378 -7 444 -4 511 c 0
0 572 21 633 65 676 c 0
87 697 114 713 143 721 c 0
173 728 205 727 234 716 c 0
274 699 306 662 320 621 c 0
335 579 333 533 322 491 c 0
302 422 257 363 205 316 c 0
187 299 168 284 152 265 c 0
137 247 125 225 124 201 c 0
123 183 128 165 137 150 c 0
147 135 162 124 179 118 c 0
202 108 230 110 252 122 c 0
274 134 291 156 297 181 c 0
302 181 l 0
295 155 278 132 254 120 c 0
231 107 202 105 178 115 c 0
160 121 144 133 134 148 c 0
123 164 117 183 119 202 c 0
120 226 132 249 148 268 c 0
164 286 183 302 202 319 c 0
253 366 298 424 317 492 c 0
328 533 330 578 316 619 c 0
302 660 272 696 233 713 c 0
205 724 173 725 144 718 c 0
114 711 88 695 66 673 c 0
23 631 3 570 0 510 c 0
-3 444 12 378 43 320 c 0
74 263 119 214 166 168 c 0
317 15 l 0
Z
Spiro
402 100 v
397 100 v
248 250 ]
113 507 c
187 605 c
206 526 c
120 399 c
5 216 c
142 3 c
410 142 v
415 142 v
141 0 c
0 217 c
117 402 c
203 527 c
186 602 c
118 508 c
251 253 [
374 72 v
369 72 v
220 222 ]
73 509 c
203 642 c
245 514 c
148 371 c
45 211 c
154 41 c
373 155 v
378 155 v
153 38 c
40 212 c
145 374 c
240 515 c
202 639 c
78 508 c
223 225 [
345 43 v
340 43 v
191 193 ]
34 510 c
218 679 c
284 503 c
177 344 c
84 206 c
167 80 c
335 168 v
340 168 v
166 77 c
79 207 c
174 347 c
279 504 c
217 676 c
39 509 c
194 196 [
317 15 v
312 15 v
163 165 ]
-4 511 c
234 716 c
322 491 c
205 316 c
124 201 c
179 118 c
297 181 v
302 181 v
178 115 c
119 202 c
202 319 c
317 492 c
233 713 c
0 510 c
166 168 [
0 0 z
EndSpiro
EndSplineSet
        EndChar
StartChar: '
Encoding: 39 39 0
Width: 226
InSpiro: 1
        Flags: H
        LayerCount: 2
        Back
        SplineSet
58 664 m 0
62 664 l 0
62 510 l 0
58 510 l 0
58 664 l 0
Z
59 664 m 0
63 664 l 0
63 510 l 0
59 510 l 0
59 664 l 0
Z
60 664 m 0
64 664 l 0
64 510 l 0
60 510 l 0
60 664 l 0
Z
61 664 m 0
66 664 l 0
66 510 l 0
61 510 l 0
61 664 l 0
Z
Spiro
58 664 v
62 664 v
62 510 v
58 510 v
59 664 v
63 664 v
63 510 v
59 510 v
60 664 v
64 664 v
64 510 v
60 510 v
61 664 v
66 664 v
66 510 v
61 510 v
0 0 z
EndSpiro
EndSplineSet
        Fore
        SplineSet
0 662 m 0
5 662 l 0
5 508 l 0
0 508 l 0
0 662 l 0
Z
40 662 m 0
45 662 l 0
45 508 l 0
40 508 l 0
40 662 l 0
Z
80 662 m 0
85 662 l 0
85 508 l 0
80 508 l 0
80 662 l 0
Z
120 662 m 0
125 662 l 0
125 508 l 0
120 508 l 0
120 662 l 0
Z
Spiro
0 662 v
5 662 v
5 508 v
0 508 v
40 662 v
45 662 v
45 508 v
40 508 v
80 662 v
85 662 v
85 508 v
80 508 v
120 662 v
125 662 v
125 508 v
120 508 v
0 0 z
EndSpiro
EndSplineSet
        EndChar
StartChar: (
Encoding: 40 40 0
Width: 376
InSpiro: 1
        Flags: H
        LayerCount: 2
        Back
        SplineSet
212 695 m 0
212 691 l 0
118 609 61 486 62 362 c 0
62 237 118 114 212 33 c 0
212 29 l 0
115 110 57 235 58 362 c 0
58 488 115 613 212 695 c 0
Z
213 694 m 0
213 690 l 0
119 608 62 485 63 362 c 0
63 238 119 115 213 34 c 0
213 30 l 0
116 111 59 236 59 362 c 0
59 487 116 612 213 694 c 0
Z
214 693 m 0
214 689 l 0
120 608 63 485 64 362 c 0
64 238 120 115 214 35 c 0
214 31 l 0
117 111 59 236 60 362 c 0
60 487 117 612 214 693 c 0
Z
215 692 m 0
215 688 l 0
121 607 65 485 66 362 c 0
66 238 121 116 215 36 c 0
215 32 l 0
118 112 61 236 61 362 c 0
60 487 118 611 215 692 c 0
Z
Spiro
212 695 v
212 691 v
62 362 c
212 33 v
212 29 v
58 362 c
213 694 v
213 690 v
63 362 c
213 34 v
213 30 v
59 362 c
214 693 v
214 689 v
64 362 c
214 35 v
214 31 v
60 362 c
215 692 v
215 688 v
66 362 c
215 36 v
215 32 v
61 362 c
0 0 z
EndSpiro
EndSplineSet
        Fore
        SplineSet
166 764 m 0
171 764 l 0
65 657 4 509 5 360 c 0
5 210 65 62 171 -44 c 0
166 -44 l 0
60 62 0 210 0 360 c 0
0 509 60 657 166 764 c 0
Z
200 736 m 0
200 732 l 0
102 634 44 497 45 360 c 0
45 222 102 85 200 -12 c 0
200 -16 l 0
99 81 39 220 40 360 c 0
40 499 99 638 200 736 c 0
Z
223 707 m 0
228 707 l 0
137 615 84 487 85 359 c 0
85 230 137 103 228 12 c 0
223 12 l 0
132 103 79 231 80 360 c 0
80 488 132 615 223 707 c 0
Z
251 679 m 0
256 679 l 0
173 594 124 477 125 359 c 0
125 241 173 123 256 40 c 0
251 40 l 0
168 124 119 241 120 360 c 0
120 477 168 595 251 679 c 0
Z
Spiro
166 764 v
171 764 v
5 360 c
171 -44 v
166 -44 v
0 360 c
200 736 v
200 732 v
45 360 c
200 -12 v
200 -16 v
40 360 c
223 707 v
228 707 v
85 359 c
228 12 v
223 12 v
80 360 c
251 679 v
256 679 v
125 359 c
256 40 v
251 40 v
120 360 c
0 0 z
EndSpiro
EndSplineSet
        EndChar
StartChar: )
Encoding: 41 41 0
Width: 542
InSpiro: 1
        Flags: H
        LayerCount: 2
        Back
        SplineSet
171 695 m 0
171 699 l 0
261 623 315 507 316 390 c 0
316 272 261 155 171 80 c 0
171 84 l 0
258 159 310 273 311 389 c 0
311 504 258 619 171 695 c 0
Z
184 710 m 0
184 714 l 0
278 635 335 513 336 390 c 0
336 266 278 144 184 65 c 0
184 69 l 0
275 147 330 267 331 389 c 0
331 510 276 630 184 710 c 0
Z
197 725 m 0
197 729 l 0
296 646 356 518 356 390 c 0
356 261 296 133 197 51 c 0
197 55 l 0
293 137 351 263 351 390 c 0
351 516 293 642 197 725 c 0
Z
210 740 m 0
210 744 l 0
313 657 376 524 376 390 c 0
376 255 313 122 210 36 c 0
210 40 l 0
310 126 371 257 371 390 c 0
371 522 310 653 210 740 c 0
Z
Spiro
171 695 v
171 699 v
316 390 c
171 80 v
171 84 v
311 389 c
184 710 v
184 714 v
336 390 c
184 65 v
184 69 v
331 389 c
197 725 v
197 729 v
356 390 c
197 51 v
197 55 v
351 390 c
210 740 v
210 744 v
376 390 c
210 36 v
210 40 v
371 390 c
0 0 z
EndSpiro
EndSplineSet
        Fore
        SplineSet
182 675 m 0
182 679 l 0
269 597 320 479 321 360 c 0
321 240 269 121 182 40 c 0
182 44 l 0
266 125 315 241 316 359 c 0
316 476 266 593 182 675 c 0
Z
211 703 m 0
211 707 l 0
305 618 360 489 361 360 c 0
361 230 305 101 211 12 c 0
211 16 l 0
302 104 355 231 356 359 c 0
356 486 302 613 211 703 c 0
Z
239 732 m 0
239 736 l 0
340 639 401 500 401 360 c 0
401 219 340 80 239 -16 c 0
239 -12 l 0
338 84 396 221 396 360 c 0
396 498 338 635 239 732 c 0
Z
267 760 m 0
267 764 l 0
376 660 441 510 441 360 c 0
441 209 376 59 267 -44 c 0
267 -40 l 0
373 63 436 211 436 360 c 0
436 508 373 656 267 760 c 0
Z
Spiro
182 675 v
182 679 v
321 360 c
182 40 v
182 44 v
316 359 c
211 703 v
211 707 v
361 360 c
211 12 v
211 16 v
356 359 c
239 732 v
239 736 v
401 360 c
239 -16 v
239 -12 v
396 360 c
267 760 v
267 764 v
441 360 c
267 -44 v
267 -40 v
436 360 c
0 0 z
EndSpiro
EndSplineSet
        EndChar
StartChar: *
Encoding: 42 42 0
Width: 466
InSpiro: 1
        Flags: H
        LayerCount: 2
        Back
        SplineSet
86 458 m 0
86 462 l 0
332 462 l 0
332 458 l 0
86 458 l 0
Z
87 478 m 0
87 482 l 0
332 482 l 0
332 478 l 0
87 478 l 0
Z
87 498 m 0
87 502 l 0
332 502 l 0
332 498 l 0
87 498 l 0
Z
87 518 m 0
87 522 l 0
332 522 l 0
332 518 l 0
87 518 l 0
Z
121 607 m 0
126 607 l 0
258 345 l 0
253 345 l 0
121 607 l 0
Z
139 616 m 0
144 616 l 0
276 354 l 0
271 354 l 0
139 616 l 0
Z
157 625 m 0
162 625 l 0
294 363 l 0
289 363 l 0
157 625 l 0
Z
175 634 m 0
180 634 l 0
312 372 l 0
307 372 l 0
175 634 l 0
Z
253 634 m 0
258 634 l 0
126 372 l 0
121 372 l 0
253 634 l 0
Z
271 625 m 0
276 625 l 0
144 363 l 0
139 363 l 0
271 625 l 0
Z
289 616 m 0
294 616 l 0
162 354 l 0
157 354 l 0
289 616 l 0
Z
307 607 m 0
312 607 l 0
180 345 l 0
175 345 l 0
307 607 l 0
Z
Spiro
86 458 v
86 462 v
332 462 v
332 458 v
87 478 v
87 482 v
332 482 v
332 478 v
87 498 v
87 502 v
332 502 v
332 498 v
87 518 v
87 522 v
332 522 v
332 518 v
121 607 v
126 607 v
258 345 v
253 345 v
139 616 v
144 616 v
276 354 v
271 354 v
157 625 v
162 625 v
294 363 v
289 363 v
175 634 v
180 634 v
312 372 v
307 372 v
253 634 v
258 634 v
126 372 v
121 372 v
271 625 v
276 625 v
144 363 v
139 363 v
289 616 v
294 616 v
162 354 v
157 354 v
307 607 v
312 607 v
180 345 v
175 345 v
0 0 z
EndSpiro
EndSplineSet
        Fore
        SplineSet
56 398 m 0
56 402 l 0
302 402 l 0
302 398 l 0
56 398 l 0
Z
57 438 m 0
57 442 l 0
302 442 l 0
302 438 l 0
57 438 l 0
Z
57 478 m 0
57 482 l 0
302 482 l 0
302 478 l 0
57 478 l 0
Z
57 518 m 0
57 522 l 0
302 522 l 0
302 518 l 0
57 518 l 0
Z
66 563 m 0
71 563 l 0
203 301 l 0
198 301 l 0
66 563 l 0
Z
101 581 m 0
106 581 l 0
238 319 l 0
233 319 l 0
101 581 l 0
Z
137 600 m 0
142 600 l 0
274 338 l 0
269 338 l 0
137 600 l 0
Z
173 618 m 0
178 618 l 0
310 356 l 0
305 356 l 0
173 618 l 0
Z
198 618 m 0
203 618 l 0
71 356 l 0
66 356 l 0
198 618 l 0
Z
233 600 m 0
238 600 l 0
106 338 l 0
101 338 l 0
233 600 l 0
Z
269 581 m 0
274 581 l 0
142 319 l 0
137 319 l 0
269 581 l 0
Z
305 563 m 0
310 563 l 0
178 301 l 0
173 301 l 0
305 563 l 0
Z
Spiro
56 398 v
56 402 v
302 402 v
302 398 v
57 438 v
57 442 v
302 442 v
302 438 v
57 478 v
57 482 v
302 482 v
302 478 v
57 518 v
57 522 v
302 522 v
302 518 v
66 563 v
71 563 v
203 301 v
198 301 v
101 581 v
106 581 v
238 319 v
233 319 v
137 600 v
142 600 v
274 338 v
269 338 v
173 618 v
178 618 v
310 356 v
305 356 v
198 618 v
203 618 v
71 356 v
66 356 v
233 600 v
238 600 v
106 338 v
101 338 v
269 581 v
274 581 v
142 319 v
137 319 v
305 563 v
310 563 v
178 301 v
173 301 v
0 0 z
EndSpiro
EndSplineSet
        EndChar
StartChar: +
Encoding: 43 43 0
Width: 526
InSpiro: 1
        Flags: H
        LayerCount: 2
        Back
        SplineSet
59 358 m 0
59 362 l 0
364 362 l 0
364 358 l 0
59 358 l 0
Z
60 359 m 0
60 363 l 0
364 363 l 0
364 359 l 0
60 359 l 0
Z
60 360 m 0
60 364 l 0
364 364 l 0
364 360 l 0
60 360 l 0
Z
60 362 m 0
60 366 l 0
364 366 l 0
364 362 l 0
60 362 l 0
Z
207 514 m 0
212 514 l 0
212 210 l 0
207 210 l 0
207 514 l 0
Z
208 514 m 0
213 514 l 0
213 210 l 0
208 210 l 0
208 514 l 0
Z
209 514 m 0
214 514 l 0
214 210 l 0
209 210 l 0
209 514 l 0
Z
211 514 m 0
216 514 l 0
216 210 l 0
211 210 l 0
211 514 l 0
Z
Spiro
59 358 v
59 362 v
364 362 v
364 358 v
60 359 v
60 363 v
364 363 v
364 359 v
60 360 v
60 364 v
364 364 v
364 360 v
60 362 v
60 366 v
364 366 v
364 362 v
207 514 v
212 514 v
212 210 v
207 210 v
208 514 v
213 514 v
213 210 v
208 210 v
209 514 v
214 514 v
214 210 v
209 210 v
211 514 v
216 514 v
216 210 v
211 210 v
0 0 z
EndSpiro
EndSplineSet
        Fore
        SplineSet
57 298 m 0
57 302 l 0
362 302 l 0
362 298 l 0
57 298 l 0
Z
57 338 m 0
57 342 l 0
362 342 l 0
362 338 l 0
57 338 l 0
Z
57 378 m 0
57 382 l 0
362 382 l 0
362 378 l 0
57 378 l 0
Z
57 418 m 0
57 422 l 0
362 422 l 0
362 418 l 0
57 418 l 0
Z
150 512 m 0
155 512 l 0
155 208 l 0
150 208 l 0
150 512 l 0
Z
190 512 m 0
195 512 l 0
195 208 l 0
190 208 l 0
190 512 l 0
Z
230 512 m 0
235 512 l 0
235 208 l 0
230 208 l 0
230 512 l 0
Z
270 512 m 0
275 512 l 0
275 208 l 0
270 208 l 0
270 512 l 0
Z
Spiro
57 298 v
57 302 v
362 302 v
362 298 v
57 338 v
57 342 v
362 342 v
362 338 v
57 378 v
57 382 v
362 382 v
362 378 v
57 418 v
57 422 v
362 422 v
362 418 v
150 512 v
155 512 v
155 208 v
150 208 v
190 512 v
195 512 v
195 208 v
190 208 v
230 512 v
235 512 v
235 208 v
230 208 v
270 512 v
275 512 v
275 208 v
270 208 v
0 0 z
EndSpiro
EndSplineSet
        EndChar
StartChar: ,
Encoding: 44 44 0
Width: 376
InSpiro: 1
        Flags: H
        LayerCount: 2
        Back
        SplineSet
216 113 m 0
221 113 l 0
191 79 l 0
186 79 l 0
216 113 l 0
Z
230 99 m 0
235 99 l 0
205 65 l 0
200 65 l 0
230 99 l 0
Z
250 84 m 0
250 80 l 0
215 51 l 0
215 55 l 0
250 84 l 0
Z
264 70 m 0
264 66 l 0
229 37 l 0
229 41 l 0
264 70 l 0
Z
Spiro
216 113 v
221 113 v
191 79 v
186 79 v
230 99 v
235 99 v
205 65 v
200 65 v
250 84 v
250 80 v
215 51 v
215 55 v
264 70 v
264 66 v
229 37 v
229 41 v
0 0 z
EndSpiro
EndSplineSet
        Fore
        SplineSet
166 104 m 0
171 104 l 0
121 50 l 0
116 50 l 0
166 104 l 0
Z
194 76 m 0
199 76 l 0
149 22 l 0
144 22 l 0
194 76 l 0
Z
228 47 m 0
228 43 l 0
173 -6 l 0
173 -1 l 0
228 47 l 0
Z
256 19 m 0
256 15 l 0
201 -34 l 0
201 -30 l 0
256 19 l 0
Z
Spiro
166 104 v
171 104 v
121 50 v
116 50 v
194 76 v
199 76 v
149 22 v
144 22 v
228 47 v
228 43 v
173 -6 v
173 -1 v
256 19 v
256 15 v
201 -34 v
201 -30 v
0 0 z
EndSpiro
EndSplineSet
        EndChar
StartChar: -
Encoding: 45 45 0
Width: 466
InSpiro: 1
        Flags: H
        LayerCount: 2
        Back
        SplineSet
86 358 m 0
86 362 l 0
332 362 l 0
332 358 l 0
86 358 l 0
Z
87 378 m 0
87 382 l 0
332 382 l 0
332 378 l 0
87 378 l 0
Z
87 398 m 0
87 402 l 0
332 402 l 0
332 398 l 0
87 398 l 0
Z
87 418 m 0
87 422 l 0
332 422 l 0
332 418 l 0
87 418 l 0
Z
Spiro
86 358 v
86 362 v
332 362 v
332 358 v
87 378 v
87 382 v
332 382 v
332 378 v
87 398 v
87 402 v
332 402 v
332 398 v
87 418 v
87 422 v
332 422 v
332 418 v
0 0 z
EndSpiro
EndSplineSet
        Fore
        SplineSet
56 298 m 0
56 302 l 0
302 302 l 0
302 298 l 0
56 298 l 0
Z
57 338 m 0
57 342 l 0
302 342 l 0
302 338 l 0
57 338 l 0
Z
57 378 m 0
57 382 l 0
302 382 l 0
302 378 l 0
57 378 l 0
Z
57 418 m 0
57 422 l 0
302 422 l 0
302 418 l 0
57 418 l 0
Z
Spiro
56 298 v
56 302 v
302 302 v
302 298 v
57 338 v
57 342 v
302 342 v
302 338 v
57 378 v
57 382 v
302 382 v
302 378 v
57 418 v
57 422 v
302 422 v
302 418 v
0 0 z
EndSpiro
EndSplineSet
        EndChar
StartChar: .
Encoding: 46 46 0
Width: 376
InSpiro: 1
        Flags: H
        LayerCount: 2
        Back
        SplineSet
239 62 m 0
246 61 253 64 258 70 c 0
264 75 266 82 267 90 c 0
267 97 264 104 259 109 c 0
254 114 247 117 240 118 c 0
232 118 224 114 219 109 c 0
214 104 211 96 212 89 c 0
212 81 215 75 220 70 c 0
225 65 231 62 239 62 c 0
Z
207 90 m 0
207 98 210 106 216 112 c 0
222 118 230 121 239 122 c 0
247 122 256 118 262 112 c 0
268 106 272 97 272 89 c 0
271 80 268 72 262 67 c 0
256 61 248 58 240 58 c 0
231 57 222 61 216 67 c 0
210 73 206 81 207 90 c 0
Z
239 77 m 0
242 76 245 78 248 80 c 0
250 83 251 86 252 90 c 0
252 93 250 96 248 98 c 0
246 101 243 102 240 103 c 0
236 103 232 101 230 98 c 0
227 96 226 92 227 89 c 0
227 85 228 82 230 80 c 0
232 78 235 77 239 77 c 0
Z
222 90 m 0
222 94 223 98 227 101 c 0
230 105 234 106 239 107 c 0
243 107 248 105 251 101 c 0
255 98 257 93 257 89 c 0
256 84 254 80 251 77 c 0
248 74 244 73 240 73 c 0
235 72 230 74 227 77 c 0
224 80 221 85 222 90 c 0
Z
Spiro
239 62 c
267 90 c
240 118 c
212 89 c
207 90 c
239 122 c
272 89 c
240 58 c
239 77 c
252 90 c
240 103 c
227 89 c
222 90 c
239 107 c
257 89 c
240 73 c
0 0 z
EndSpiro
EndSplineSet
        Fore
        SplineSet
209 2 m 0
224 1 239 8 250 18 c 0
260 29 266 44 267 60 c 0
267 75 260 90 250 100 c 0
239 111 225 117 210 118 c 0
194 118 179 111 168 100 c 0
157 89 151 74 152 59 c 0
152 44 158 29 168 18 c 0
179 8 194 2 209 2 c 0
Z
147 60 m 0
147 76 153 92 165 103 c 0
176 115 192 121 209 122 c 0
225 122 242 115 253 103 c 0
265 92 272 75 272 59 c 0
271 42 264 27 253 15 c 0
241 4 226 -1 210 -2 c 0
193 -2 177 4 165 15 c 0
153 27 146 43 147 60 c 0
Z
209 32 m 0
216 31 223 34 228 40 c 0
234 45 236 52 237 60 c 0
237 67 234 74 229 79 c 0
224 84 217 87 210 88 c 0
202 88 194 84 189 79 c 0
184 74 181 66 182 59 c 0
182 51 185 45 190 40 c 0
195 35 201 32 209 32 c 0
Z
177 60 m 0
177 68 180 76 186 82 c 0
192 88 200 91 209 92 c 0
217 92 226 88 232 82 c 0
238 76 242 67 242 59 c 0
241 50 238 42 232 37 c 0
226 31 218 28 210 28 c 0
201 27 192 31 186 37 c 0
180 43 176 51 177 60 c 0
Z
Spiro
209 2 c
267 60 c
210 118 c
152 59 c
147 60 c
209 122 c
272 59 c
210 -2 c
209 32 c
237 60 c
210 88 c
182 59 c
177 60 c
209 92 c
242 59 c
210 28 c
0 0 z
EndSpiro
EndSplineSet
        EndChar
StartChar: /
Encoding: 47 47 0
Width: 692
InSpiro: 1
        Flags: H
        LayerCount: 2
        Back
        SplineSet
464 734 m 0
469 734 l 0
169 70 l 0
164 70 l 0
464 734 l 0
Z
482 726 m 0
487 726 l 0
187 61 l 0
182 61 l 0
482 726 l 0
Z
500 717 m 0
505 717 l 0
205 54 l 0
200 54 l 0
500 717 l 0
Z
518 709 m 0
523 709 l 0
223 46 l 0
218 46 l 0
518 709 l 0
Z
Spiro
464 734 v
469 734 v
169 70 v
164 70 v
482 726 v
487 726 v
187 61 v
182 61 v
500 717 v
505 717 v
205 54 v
200 54 v
518 709 v
523 709 v
223 46 v
218 46 v
0 0 z
EndSpiro
EndSplineSet
        Fore
        SplineSet
470 745 m 0
475 745 l 0
175 21 l 0
170 21 l 0
470 745 l 0
Z
507 729 m 0
512 729 l 0
212 5 l 0
207 5 l 0
507 729 l 0
Z
544 714 m 0
549 714 l 0
249 -9 l 0
244 -9 l 0
544 714 l 0
Z
581 698 m 0
586 698 l 0
286 -25 l 0
281 -25 l 0
581 698 l 0
Z
Spiro
470 745 v
475 745 v
175 21 v
170 21 v
507 729 v
512 729 v
212 5 v
207 5 v
544 714 v
549 714 v
249 -9 v
244 -9 v
581 698 v
586 698 v
286 -25 v
281 -25 v
0 0 z
EndSpiro
EndSplineSet
        EndChar
StartChar: 0
Encoding: 48 48 0
Width: 526
InSpiro: 1
        Flags: H
        LayerCount: 2
        Back
        SplineSet
63 389 m 0
63 319 61 248 86 183 c 0
98 150 117 120 144 98 c 0
170 75 204 61 239 61 c 0
273 60 307 75 333 98 c 0
360 120 379 150 391 183 c 0
416 248 414 319 415 389 c 0
415 458 416 530 392 595 c 0
379 627 360 658 334 680 c 0
307 703 273 717 239 718 c 0
204 717 170 703 143 680 c 0
117 658 98 627 85 595 c 0
61 530 62 458 63 389 c 0
Z
238 721 m 0
273 721 308 706 335 684 c 0
362 661 382 630 395 597 c 0
421 531 420 458 420 388 c 0
419 317 420 245 394 180 c 0
381 148 361 117 334 95 c 0
307 72 273 58 238 59 c 0
203 59 169 73 142 96 c 0
116 118 96 149 83 181 c 0
58 246 59 318 59 388 c 0
58 458 57 530 82 596 c 0
95 629 114 660 141 683 c 0
168 705 202 720 238 721 c 0
Z
83 389 m 0
83 324 79 258 100 197 c 0
110 166 127 138 151 116 c 0
175 95 206 81 239 81 c 0
271 80 302 95 326 116 c 0
350 138 367 166 377 197 c 0
398 258 394 324 395 389 c 0
395 453 398 519 378 581 c 0
367 611 350 640 326 662 c 0
302 683 271 697 239 698 c 0
206 697 175 683 151 662 c 0
127 640 110 611 99 581 c 0
79 520 82 453 83 389 c 0
Z
238 701 m 0
270 701 303 687 327 665 c 0
352 643 370 614 381 583 c 0
403 521 400 453 400 388 c 0
399 322 402 255 380 194 c 0
369 163 351 134 327 113 c 0
302 91 270 77 238 78 c 0
205 78 173 92 149 113 c 0
125 135 108 164 97 194 c 0
75 256 78 322 78 388 c 0
77 453 74 520 96 582 c 0
107 613 124 642 148 664 c 0
173 686 205 700 238 701 c 0
Z
103 390 m 0
102 330 96 269 113 211 c 0
122 183 137 155 158 135 c 0
180 114 209 101 239 101 c 0
268 100 297 114 319 135 c 0
340 155 355 183 363 211 c 0
381 269 375 330 375 390 c 0
374 449 380 510 363 567 c 0
355 596 340 623 319 643 c 0
297 664 268 677 239 678 c 0
209 677 180 664 158 643 c 0
137 623 122 596 114 567 c 0
97 510 103 449 103 390 c 0
Z
240 681 m 0
270 680 299 667 321 646 c 0
343 625 358 598 367 569 c 0
385 511 380 449 380 389 c 0
379 328 385 266 367 209 c 0
358 180 343 153 321 132 c 0
299 111 270 98 240 98 c 0
209 97 180 111 158 131 c 0
135 152 120 179 111 208 c 0
93 266 98 328 98 389 c 0
97 449 92 511 111 569 c 0
120 598 135 626 157 647 c 0
180 667 209 681 240 681 c 0
Z
123 390 m 0
122 335 114 279 128 225 c 0
134 199 146 173 165 153 c 0
185 134 211 121 239 121 c 0
266 120 292 134 312 153 c 0
331 173 343 199 349 225 c 0
363 279 355 335 355 390 c 0
354 444 362 500 349 553 c 0
343 580 330 605 311 625 c 0
292 644 266 657 239 658 c 0
211 657 185 644 166 625 c 0
147 605 134 580 128 553 c 0
115 500 123 444 123 390 c 0
Z
240 661 m 0
267 660 294 647 314 627 c 0
333 607 346 582 353 555 c 0
367 501 360 444 360 389 c 0
359 333 367 277 353 223 c 0
346 196 333 170 313 151 c 0
294 131 267 118 240 118 c 0
212 117 185 130 165 150 c 0
145 169 132 195 125 222 c 0
110 276 118 333 118 389 c 0
117 444 110 501 125 555 c 0
132 582 145 608 165 628 c 0
184 648 212 661 240 661 c 0
Z
361 705 m 0
366 705 l 0
66 101 l 0
61 101 l 0
361 705 l 0
Z
379 696 m 0
384 696 l 0
84 92 l 0
79 92 l 0
379 696 l 0
Z
397 687 m 0
402 687 l 0
102 83 l 0
97 83 l 0
397 687 l 0
Z
415 678 m 0
420 678 l 0
120 74 l 0
115 74 l 0
415 678 l 0
Z
Spiro
63 389 c
239 61 c
415 389 c
239 718 c
238 721 c
420 388 c
238 59 c
59 388 c
83 389 c
239 81 c
395 389 c
239 698 c
238 701 c
400 388 c
238 78 c
78 388 c
103 390 c
239 101 c
375 390 c
239 678 c
240 681 c
380 389 c
240 98 c
98 389 c
123 390 c
239 121 c
355 390 c
239 658 c
240 661 c
360 389 c
240 118 c
118 389 c
361 705 v
366 705 v
66 101 v
61 101 v
379 696 v
384 696 v
84 92 v
79 92 v
397 687 v
402 687 v
102 83 v
97 83 v
415 678 v
420 678 v
120 74 v
115 74 v
0 0 z
EndSpiro
EndSplineSet
        Fore
        SplineSet
5 359 m 0
5 282 6 203 36 132 c 0
51 97 73 64 103 40 c 0
133 16 170 1 209 1 c 0
247 0 285 16 315 40 c 0
344 64 367 96 382 132 c 0
412 202 413 282 414 359 c 0
414 436 412 515 382 586 c 0
367 621 345 654 315 678 c 0
285 702 247 718 209 718 c 0
170 717 132 702 103 678 c 0
73 654 50 621 35 585 c 0
6 515 4 435 5 359 c 0
Z
208 721 m 0
247 721 285 706 316 681 c 0
347 657 370 624 385 588 c 0
417 517 419 436 419 358 c 0
418 280 416 200 384 129 c 0
369 94 345 61 315 37 c 0
284 13 246 -1 208 -1 c 0
169 0 131 14 101 38 c 0
71 62 48 95 33 130 c 0
2 201 0 280 0 358 c 0
0 435 1 516 32 587 c 0
47 623 70 656 100 680 c 0
130 705 169 720 208 721 c 0
Z
45 359 m 0
45 292 41 223 64 160 c 0
75 129 93 99 118 77 c 0
143 55 175 41 209 41 c 0
242 40 275 55 300 77 c 0
325 99 343 128 354 160 c 0
376 223 373 292 374 359 c 0
374 426 377 494 354 558 c 0
343 589 325 619 300 641 c 0
275 663 242 678 209 678 c 0
175 677 142 663 117 641 c 0
92 618 75 589 64 557 c 0
41 494 44 425 45 359 c 0
Z
208 681 m 0
242 681 275 667 301 644 c 0
327 622 345 592 357 560 c 0
381 496 379 426 379 358 c 0
378 290 380 220 356 157 c 0
345 125 326 95 300 73 c 0
275 51 241 37 208 38 c 0
174 38 141 52 116 74 c 0
91 97 72 126 61 158 c 0
37 221 40 290 40 358 c 0
39 425 37 495 60 559 c 0
71 591 90 621 115 643 c 0
141 666 174 680 208 681 c 0
Z
85 360 m 0
85 302 77 244 92 189 c 0
100 161 113 135 133 115 c 0
153 95 181 81 210 82 c 0
238 82 266 95 286 115 c 0
306 135 319 162 326 189 c 0
341 244 333 303 334 360 c 0
334 416 341 475 326 530 c 0
319 557 306 584 286 604 c 0
266 624 238 637 210 638 c 0
181 638 153 624 133 604 c 0
113 584 100 558 92 530 c 0
77 475 85 417 85 360 c 0
Z
209 642 m 0
238 642 266 628 287 608 c 0
308 587 321 561 329 533 c 0
345 476 339 417 339 359 c 0
338 301 345 241 329 186 c 0
321 158 307 131 286 111 c 0
266 91 237 77 209 78 c 0
180 78 152 91 131 111 c 0
110 132 97 158 89 186 c 0
73 242 80 301 80 359 c 0
79 417 73 476 88 532 c 0
96 560 110 587 131 607 c 0
151 628 179 641 209 642 c 0
Z
125 360 m 0
125 312 113 264 120 217 c 0
124 194 132 170 147 152 c 0
155 143 165 135 175 130 c 0
186 125 198 121 210 122 c 0
221 122 233 125 244 130 c 0
254 136 264 143 271 152 c 0
286 171 295 194 298 217 c 0
305 264 293 312 294 360 c 0
294 407 305 455 298 502 c 0
295 525 286 548 271 566 c 0
264 576 254 583 244 589 c 0
233 594 221 597 210 598 c 0
198 598 186 594 175 589 c 0
165 584 155 576 148 567 c 0
132 549 124 526 120 502 c 0
113 455 125 407 125 360 c 0
Z
209 602 m 0
221 602 233 598 244 593 c 0
255 588 264 580 272 571 c 0
288 552 297 529 301 504 c 0
310 456 299 407 299 359 c 0
298 310 309 261 301 214 c 0
297 190 288 166 272 148 c 0
264 139 254 131 243 126 c 0
233 121 221 117 209 118 c 0
196 118 184 121 174 126 c 0
163 132 153 139 146 149 c 0
130 167 121 190 117 214 c 0
109 262 120 310 120 359 c 0
119 407 108 456 116 504 c 0
120 528 129 552 145 570 c 0
153 579 163 587 173 593 c 0
184 598 196 601 209 602 c 0
Z
306 688 m 0
311 688 l 0
11 84 l 0
6 84 l 0
306 688 l 0
Z
341 670 m 0
346 670 l 0
46 66 l 0
41 66 l 0
341 670 l 0
Z
377 653 m 0
382 653 l 0
82 49 l 0
77 49 l 0
377 653 l 0
Z
413 635 m 0
418 635 l 0
118 31 l 0
113 31 l 0
413 635 l 0
Z
Spiro
5 359 c
209 1 c
414 359 c
209 718 c
208 721 c
419 358 c
208 -1 c
0 358 c
45 359 c
209 41 c
374 359 c
209 678 c
208 681 c
379 358 c
208 38 c
40 358 c
85 360 c
210 82 c
334 360 c
210 638 c
209 642 c
339 359 c
209 78 c
80 359 c
125 360 c
210 122 c
294 360 c
210 598 c
209 602 c
299 359 c
209 118 c
120 359 c
306 688 v
311 688 v
11 84 v
6 84 v
341 670 v
346 670 v
46 66 v
41 66 v
377 653 v
382 653 v
82 49 v
77 49 v
413 635 v
418 635 v
118 31 v
113 31 v
0 0 z
EndSpiro
EndSplineSet
        EndChar
StartChar: 1
Encoding: 49 49 0
Width: 346
InSpiro: 1
        Flags: H
        LayerCount: 2
        Back
        SplineSet
117 554 m 0
112 554 l 0
174 658 l 0
123 658 l 0
123 88 l 0
118 88 l 0
118 662 l 0
118 662 l 0
180 662 l 0
180 662 l 0
117 554 l 0
Z
99 563 m 0
94 563 l 0
154 678 l 0
143 678 l 0
143 88 l 0
138 88 l 0
138 682 l 0
138 682 l 0
160 682 l 0
160 682 l 0
99 563 l 0
Z
81 572 m 0
76 572 l 0
135 702 l 0
135 702 l 0
163 702 l 0
163 702 l 0
163 88 l 0
158 88 l 0
158 698 l 0
139 698 l 0
81 572 l 0
Z
63 581 m 0
59 581 l 0
115 722 l 0
115 722 l 0
183 722 l 0
183 722 l 0
183 88 l 0
178 88 l 0
178 718 l 0
119 718 l 0
63 581 l 0
Z
Spiro
117 554 v
112 554 v
174 658 v
123 658 v
123 88 v
118 88 v
118 662 v
118 662 v
180 662 v
180 662 v
99 563 v
94 563 v
154 678 v
143 678 v
143 88 v
138 88 v
138 682 v
138 682 v
160 682 v
160 682 v
81 572 v
76 572 v
135 702 v
135 702 v
163 702 v
163 702 v
163 88 v
158 88 v
158 698 v
139 698 v
63 581 v
59 581 v
115 722 v
115 722 v
183 722 v
183 722 v
183 88 v
178 88 v
178 718 v
119 718 v
0 0 z
EndSpiro
EndSplineSet
        Fore
        SplineSet
102 495 m 0
97 495 l 0
119 602 l 0
119 602 l 0
124 602 l 0
124 602 l 0
125 58 l 0
120 58 l 0
121 600 l 0
122 600 l 0
102 495 l 0
Z
74 523 m 0
69 523 l 0
159 642 l 0
159 642 l 0
164 642 l 0
164 642 l 0
165 58 l 0
160 58 l 0
161 640 l 0
162 640 l 0
74 523 l 0
Z
40 552 m 0
40 556 l 0
204 682 l 0
199 682 l 0
204 682 l 0
204 682 l 0
205 58 l 0
200 58 l 0
201 680 l 0
202 680 l 0
40 552 l 0
Z
12 580 m 0
12 584 l 0
244 722 l 0
239 722 l 0
244 722 l 0
244 722 l 0
245 58 l 0
240 58 l 0
241 720 l 0
242 720 l 0
12 580 l 0
Z
Spiro
102 495 v
97 495 v
119 602 v
119 602 v
124 602 v
124 602 v
125 58 v
120 58 v
121 600 v
122 600 v
74 523 v
69 523 v
159 642 v
159 642 v
164 642 v
164 642 v
165 58 v
160 58 v
161 640 v
162 640 v
40 552 v
40 556 v
204 682 v
199 682 v
204 682 v
204 682 v
205 58 v
200 58 v
201 680 v
202 680 v
12 580 v
12 584 v
244 722 v
239 722 v
244 722 v
244 722 v
245 58 v
240 58 v
241 720 v
242 720 v
0 0 z
EndSpiro
EndSplineSet
        EndChar
StartChar: 2
Encoding: 50 50 0
Width: 526
InSpiro: 1
        Flags: H
        LayerCount: 2
        Back
        SplineSet
118 577 m 0
113 577 l 0
121 602 139 624 161 639 c 0
183 654 211 662 238 661 c 0
269 659 300 644 323 622 c 0
345 599 359 568 363 537 c 0
365 511 361 485 352 461 c 0
344 436 331 414 317 392 c 0
288 350 253 312 219 274 c 0
29 61 l 0
392 62 l 0
392 58 l 0
22 58 l 0
22 58 l 0
216 277 l 0
249 314 284 352 312 394 c 0
326 415 339 437 347 461 c 0
355 485 360 510 358 536 c 0
355 567 341 597 320 619 c 0
298 642 268 656 237 658 c 0
211 659 185 651 163 637 c 0
142 622 126 601 118 577 c 0
Z
100 584 m 0
95 584 l 0
105 613 125 639 150 656 c 0
176 673 208 682 239 681 c 0
275 679 311 662 337 636 c 0
363 610 379 575 383 539 c 0
388 484 366 431 337 385 c 0
307 340 270 300 234 260 c 0
72 82 l 0
392 82 l 0
392 78 l 0
65 78 l 0
65 78 l 0
231 263 l 0
266 302 303 342 332 387 c 0
361 432 382 484 378 538 c 0
374 573 359 608 334 634 c 0
308 660 273 676 238 678 c 0
208 679 177 670 153 654 c 0
128 637 109 612 100 584 c 0
Z
81 591 m 0
76 591 l 0
88 624 110 653 140 672 c 0
169 691 204 701 240 700 c 0
281 697 321 679 351 650 c 0
380 621 399 581 403 540 c 0
408 483 386 427 356 379 c 0
326 331 287 289 249 247 c 0
117 102 l 0
392 102 l 0
392 98 l 0
110 98 l 0
110 98 l 0
246 250 l 0
283 291 321 333 351 380 c 0
381 428 402 483 398 539 c 0
394 579 376 619 348 648 c 0
319 677 279 695 239 697 c 0
205 698 170 688 142 670 c 0
114 651 92 622 81 591 c 0
Z
62 598 m 0
58 598 l 0
71 634 96 667 129 689 c 0
162 710 201 721 241 720 c 0
287 717 332 697 365 665 c 0
398 632 418 588 423 542 c 0
428 482 407 423 376 372 c 0
344 321 304 277 264 233 c 0
162 121 l 0
392 122 l 0
392 118 l 0
155 117 l 0
155 117 l 0
261 236 l 0
300 279 339 323 370 374 c 0
401 424 422 482 418 541 c 0
414 586 394 630 362 662 c 0
329 694 285 714 240 717 c 0
201 718 163 707 131 686 c 0
99 665 74 633 62 598 c 0
Z
Spiro
118 577 v
113 577 v
238 661 c
363 537 c
219 274 [
29 61 v
392 62 v
392 58 v
22 58 v
22 58 v
216 277 ]
358 536 c
237 658 c
100 584 v
95 584 v
239 681 c
383 539 c
234 260 [
72 82 v
392 82 v
392 78 v
65 78 v
65 78 v
231 263 ]
378 538 c
238 678 c
81 591 v
76 591 v
240 700 c
403 540 c
249 247 [
117 102 v
392 102 v
392 98 v
110 98 v
110 98 v
246 250 ]
398 539 c
239 697 c
62 598 v
58 598 v
241 720 c
423 542 c
264 233 [
162 121 v
392 122 v
392 118 v
155 117 v
155 117 v
261 236 ]
418 541 c
240 717 c
0 0 z
EndSpiro
EndSplineSet
        Fore
        SplineSet
115 537 m 0
110 537 l 0
117 556 130 573 147 584 c 0
164 596 185 601 206 601 c 0
231 599 255 588 273 570 c 0
290 552 302 528 305 504 c 0
307 480 303 456 295 434 c 0
286 412 274 391 260 372 c 0
232 333 199 299 168 264 c 0
-67 1 l 0
362 2 l 0
362 -2 l 0
-74 -2 l 0
-74 -2 l 0
165 267 l 0
195 301 228 335 255 373 c 0
269 392 281 412 289 434 c 0
298 456 302 479 300 503 c 0
297 527 286 550 269 568 c 0
252 585 229 596 205 598 c 0
185 598 165 593 149 582 c 0
133 571 121 555 115 537 c 0
Z
78 551 m 0
73 551 l 0
83 578 101 602 126 618 c 0
150 634 179 642 209 641 c 0
243 639 277 624 301 599 c 0
326 575 341 542 345 508 c 0
347 481 343 454 335 429 c 0
326 404 313 381 299 359 c 0
270 314 233 276 198 237 c 0
21 42 l 0
362 42 l 0
362 38 l 0
14 38 l 0
14 38 l 0
195 240 l 0
229 278 265 317 294 360 c 0
308 382 321 405 329 430 c 0
338 454 342 481 340 507 c 0
336 540 322 573 298 597 c 0
274 621 241 636 208 638 c 0
180 639 151 631 128 615 c 0
105 600 87 577 78 551 c 0
Z
40 564 m 0
35 564 l 0
48 599 72 630 103 650 c 0
135 671 173 681 211 680 c 0
254 677 297 658 328 627 c 0
360 596 379 554 384 511 c 0
389 453 368 395 337 345 c 0
307 296 267 253 228 210 c 0
111 82 l 0
362 82 l 0
362 78 l 0
104 78 l 0
104 78 l 0
225 213 l 0
263 255 302 298 332 347 c 0
362 396 383 452 379 510 c 0
375 553 356 594 325 625 c 0
295 655 253 674 210 677 c 0
173 678 136 668 106 648 c 0
76 628 52 598 40 564 c 0
Z
2 578 m 0
-2 578 l 0
14 621 44 658 82 684 c 0
120 709 167 722 213 720 c 0
266 717 318 694 356 657 c 0
395 619 419 568 424 515 c 0
429 451 408 387 375 332 c 0
342 278 299 230 257 183 c 0
201 121 l 0
362 122 l 0
362 118 l 0
194 117 l 0
194 117 l 0
254 186 l 0
295 233 337 281 369 335 c 0
401 389 423 451 419 514 c 0
415 566 391 617 354 654 c 0
316 691 264 714 212 717 c 0
167 718 121 706 84 681 c 0
46 656 17 620 2 578 c 0
Z
Spiro
115 537 v
110 537 v
206 601 c
305 504 c
168 264 [
-67 1 v
362 2 v
362 -2 v
-74 -2 v
-74 -2 v
165 267 ]
300 503 c
205 598 c
78 551 v
73 551 v
209 641 c
345 508 c
198 237 [
21 42 v
362 42 v
362 38 v
14 38 v
14 38 v
195 240 ]
340 507 c
208 638 c
40 564 v
35 564 v
211 680 c
384 511 c
228 210 [
111 82 v
362 82 v
362 78 v
104 78 v
104 78 v
225 213 ]
379 510 c
210 677 c
2 578 v
-2 578 v
213 720 c
424 515 c
257 183 [
201 121 v
362 122 v
362 118 v
194 117 v
194 117 v
254 186 ]
419 514 c
212 717 c
0 0 z
EndSpiro
EndSplineSet
        EndChar
StartChar: 3
Encoding: 51 51 0
Width: 526
InSpiro: 1
        Flags: H
        LayerCount: 2
        Back
        SplineSet
119 578 m 0
114 578 l 0
122 603 139 625 161 640 c 0
183 654 210 662 237 661 c 0
269 659 300 644 323 621 c 0
345 598 359 567 363 535 c 0
364 518 363 501 359 486 c 0
354 470 345 455 333 444 c 0
321 433 306 426 290 422 c 0
274 418 257 417 241 418 c 0
237 418 l 0
237 422 l 0
241 422 l 0
256 422 272 422 287 425 c 0
303 429 317 436 329 447 c 0
340 458 349 472 353 487 c 0
358 502 359 518 358 534 c 0
354 565 341 596 319 618 c 0
298 641 267 656 236 658 c 0
210 659 185 651 164 637 c 0
143 623 127 602 119 578 c 0
Z
100 584 m 0
95 584 l 0
104 613 124 639 150 657 c 0
176 674 207 683 239 681 c 0
275 678 310 661 336 635 c 0
361 609 378 574 383 538 c 0
385 518 385 498 379 479 c 0
374 461 364 443 350 430 c 0
336 416 318 407 299 403 c 0
280 398 260 397 241 398 c 0
237 398 l 0
237 402 l 0
241 402 l 0
259 402 278 402 297 406 c 0
315 411 332 420 346 433 c 0
359 446 369 463 374 481 c 0
379 499 380 518 378 537 c 0
373 572 358 607 333 632 c 0
308 658 273 675 238 678 c 0
208 679 177 671 152 654 c 0
128 637 109 612 100 584 c 0
Z
81 591 m 0
76 591 l 0
87 624 110 653 139 673 c 0
168 692 204 702 240 700 c 0
280 697 320 678 349 649 c 0
378 620 396 581 403 541 c 0
406 518 406 495 400 473 c 0
394 451 383 431 367 415 c 0
350 400 330 389 308 383 c 0
286 378 263 377 241 378 c 0
237 378 l 0
237 382 l 0
241 382 l 0
262 382 284 382 306 387 c 0
327 393 347 403 363 418 c 0
378 434 389 453 395 474 c 0
401 496 401 518 398 540 c 0
392 579 374 618 345 646 c 0
317 675 279 694 239 697 c 0
204 699 170 690 141 670 c 0
113 651 91 623 81 591 c 0
Z
62 597 m 0
58 597 l 0
70 634 95 668 128 690 c 0
161 712 202 723 242 720 c 0
287 716 330 695 362 663 c 0
394 631 415 588 423 544 c 0
427 518 427 492 421 467 c 0
415 442 402 419 384 401 c 0
365 383 342 371 317 364 c 0
292 358 266 357 241 358 c 0
237 358 l 0
237 362 l 0
241 362 l 0
265 362 291 362 315 368 c 0
339 374 362 386 380 404 c 0
397 421 410 444 416 468 c 0
422 492 422 518 418 543 c 0
410 586 390 629 359 660 c 0
327 692 285 713 241 717 c 0
202 719 162 709 130 688 c 0
98 666 73 633 62 597 c 0
Z
237 358 m 0
237 362 l 0
241 362 l 0
257 362 274 361 290 357 c 0
306 353 322 345 334 334 c 0
346 323 354 308 359 292 c 0
364 276 364 259 363 243 c 0
359 210 345 179 322 156 c 0
300 133 269 118 237 117 c 0
210 115 183 123 161 138 c 0
139 153 122 175 114 201 c 0
119 201 l 0
126 176 142 155 163 140 c 0
184 126 210 118 236 120 c 0
267 121 297 136 319 159 c 0
341 182 354 212 358 244 c 0
359 259 359 276 354 291 c 0
350 306 341 320 330 331 c 0
318 342 303 350 288 353 c 0
272 357 256 358 241 358 c 0
237 358 l 0
Z
237 378 m 0
237 382 l 0
241 382 l 0
260 382 280 381 299 376 c 0
318 372 336 362 351 349 c 0
365 335 375 317 380 298 c 0
385 279 385 259 383 240 c 0
377 203 361 168 336 142 c 0
310 116 275 99 239 97 c 0
207 94 175 103 150 121 c 0
124 138 104 165 95 195 c 0
100 195 l 0
108 166 127 140 152 123 c 0
177 106 207 98 238 100 c 0
273 102 308 119 332 145 c 0
357 171 373 205 378 241 c 0
380 259 380 279 375 297 c 0
370 315 360 332 346 346 c 0
333 359 315 368 297 373 c 0
279 377 259 378 241 378 c 0
237 378 l 0
Z
237 398 m 0
237 402 l 0
241 402 l 0
263 402 286 401 308 395 c 0
330 390 351 379 367 363 c 0
384 347 395 326 401 304 c 0
406 282 406 259 403 237 c 0
396 196 377 158 348 128 c 0
319 99 280 80 240 78 c 0
204 75 168 85 139 104 c 0
109 124 87 154 76 188 c 0
81 188 l 0
91 155 113 126 141 107 c 0
169 87 204 78 239 81 c 0
279 83 317 102 345 131 c 0
373 160 391 198 398 238 c 0
401 259 401 282 396 303 c 0
390 325 379 345 363 360 c 0
348 376 328 386 306 392 c 0
285 397 263 398 241 398 c 0
237 398 l 0
Z
237 418 m 0
237 422 l 0
241 422 l 0
266 422 292 421 317 415 c 0
343 408 366 396 384 377 c 0
403 359 415 336 421 310 c 0
427 285 427 259 423 234 c 0
414 189 394 147 362 115 c 0
330 83 287 62 242 59 c 0
202 55 161 66 128 88 c 0
95 110 70 144 58 182 c 0
62 182 l 0
73 144 98 111 130 90 c 0
162 68 202 57 241 61 c 0
285 64 327 85 359 117 c 0
390 149 410 191 418 235 c 0
422 259 422 285 416 309 c 0
410 334 398 357 380 375 c 0
363 392 340 404 315 411 c 0
291 417 266 418 241 418 c 0
237 418 l 0
Z
Spiro
119 578 v
114 578 v
237 661 c
363 535 c
241 418 [
237 418 v
237 422 v
241 422 ]
358 534 c
236 658 c
100 584 v
95 584 v
239 681 c
383 538 c
241 398 [
237 398 v
237 402 v
241 402 ]
378 537 c
238 678 c
81 591 v
76 591 v
240 700 c
403 541 c
241 378 [
237 378 v
237 382 v
241 382 ]
398 540 c
239 697 c
62 597 v
58 597 v
242 720 c
423 544 c
241 358 [
237 358 v
237 362 v
241 362 ]
418 543 c
241 717 c
237 358 v
237 362 v
241 362 ]
363 243 c
237 117 c
114 201 v
119 201 v
236 120 c
358 244 c
241 358 [
237 378 v
237 382 v
241 382 ]
383 240 c
239 97 c
95 195 v
100 195 v
238 100 c
378 241 c
241 378 [
237 398 v
237 402 v
241 402 ]
403 237 c
240 78 c
76 188 v
81 188 v
239 81 c
398 238 c
241 398 [
237 418 v
237 422 v
241 422 ]
423 234 c
242 59 c
58 182 v
62 182 v
241 61 c
418 235 c
241 418 [
0 0 z
EndSpiro
EndSplineSet
        Fore
        SplineSet
116 539 m 0
111 539 l 0
118 557 131 573 148 584 c 0
165 595 185 601 205 601 c 0
230 600 256 589 274 570 c 0
292 552 303 526 305 501 c 0
305 488 303 476 299 465 c 0
295 454 288 444 279 436 c 0
269 428 258 423 246 420 c 0
235 418 223 417 211 418 c 0
207 418 l 0
207 422 l 0
211 422 l 0
222 422 233 422 244 424 c 0
255 427 266 432 275 439 c 0
283 446 290 456 294 466 c 0
298 477 300 488 300 500 c 0
299 525 289 550 271 568 c 0
254 586 229 597 204 598 c 0
185 598 166 592 150 582 c 0
135 571 122 556 116 539 c 0
Z
78 551 m 0
73 551 l 0
82 578 101 602 125 618 c 0
149 634 179 642 208 641 c 0
242 639 276 623 300 599 c 0
325 574 340 541 345 507 c 0
347 488 346 470 341 453 c 0
335 435 326 419 312 407 c 0
299 395 282 386 265 382 c 0
247 378 229 377 211 378 c 0
207 378 l 0
207 382 l 0
211 382 l 0
228 382 246 382 262 386 c 0
279 390 295 398 308 410 c 0
321 422 330 437 335 454 c 0
341 470 341 488 340 506 c 0
336 539 321 572 297 596 c 0
273 620 240 636 207 638 c 0
179 639 151 631 128 615 c 0
104 600 87 577 78 551 c 0
Z
40 564 m 0
35 564 l 0
47 599 71 631 103 651 c 0
134 672 173 682 211 680 c 0
254 676 295 656 326 626 c 0
357 595 377 554 384 512 c 0
387 488 387 463 381 440 c 0
375 416 363 395 345 378 c 0
328 361 306 350 282 344 c 0
259 338 235 337 211 338 c 0
207 338 l 0
207 342 l 0
211 342 l 0
234 342 258 342 280 348 c 0
303 353 324 364 341 381 c 0
358 397 370 418 376 441 c 0
382 463 382 487 379 511 c 0
372 553 353 593 323 623 c 0
293 654 252 673 210 677 c 0
173 679 136 669 105 649 c 0
75 629 51 598 40 564 c 0
Z
2 576 m 0
-2 576 l 0
12 620 42 659 81 685 c 0
119 711 167 723 214 720 c 0
266 715 315 691 352 654 c 0
390 618 414 569 424 518 c 0
429 488 430 457 422 427 c 0
415 398 400 370 379 349 c 0
358 328 330 313 301 306 c 0
271 298 241 297 211 298 c 0
207 298 l 0
207 302 l 0
211 302 l 0
240 302 270 302 299 309 c 0
327 317 354 331 375 352 c 0
396 373 410 400 417 429 c 0
424 457 424 487 419 517 c 0
409 567 386 615 349 652 c 0
313 688 264 712 213 717 c 0
167 720 120 708 82 683 c 0
45 657 16 619 2 576 c 0
Z
207 298 m 0
207 302 l 0
211 302 l 0
223 302 235 301 247 299 c 0
259 296 270 290 279 282 c 0
289 275 296 264 300 253 c 0
304 241 305 229 305 217 c 0
303 191 292 165 274 147 c 0
256 128 230 117 205 117 c 0
184 116 164 122 147 133 c 0
131 144 118 161 111 180 c 0
116 180 l 0
122 162 134 146 150 135 c 0
166 125 185 119 204 120 c 0
229 120 253 131 271 149 c 0
288 168 298 192 300 218 c 0
300 229 299 241 295 251 c 0
291 262 284 272 275 280 c 0
267 287 256 292 245 295 c 0
234 297 222 298 211 298 c 0
207 298 l 0
Z
207 338 m 0
207 342 l 0
211 342 l 0
229 342 247 341 265 337 c 0
283 332 300 324 313 311 c 0
326 299 336 283 341 265 c 0
346 247 347 229 345 211 c 0
340 176 324 143 300 119 c 0
276 94 242 78 208 77 c 0
178 75 149 83 125 99 c 0
101 116 82 140 73 168 c 0
78 168 l 0
86 141 104 118 127 102 c 0
150 86 179 78 207 80 c 0
240 81 273 97 297 121 c 0
321 145 335 178 340 212 c 0
342 229 341 247 336 264 c 0
331 281 322 296 309 309 c 0
296 321 280 329 263 333 c 0
246 337 228 338 211 338 c 0
207 338 l 0
Z
207 378 m 0
207 382 l 0
211 382 l 0
235 382 259 381 283 375 c 0
306 369 329 357 346 340 c 0
363 323 376 301 382 278 c 0
388 254 388 229 384 206 c 0
376 163 356 122 326 91 c 0
295 61 254 41 211 38 c 0
173 35 134 45 102 66 c 0
71 87 47 119 35 155 c 0
40 155 l 0
51 120 74 89 105 68 c 0
135 48 173 38 210 41 c 0
252 44 293 64 323 94 c 0
352 124 372 164 379 207 c 0
382 230 382 254 376 277 c 0
371 300 359 321 342 338 c 0
325 354 304 365 281 371 c 0
258 377 234 378 211 378 c 0
207 378 l 0
Z
207 418 m 0
207 422 l 0
211 422 l 0
241 422 272 421 301 413 c 0
331 406 359 391 380 369 c 0
401 348 416 320 423 290 c 0
430 261 429 229 424 200 c 0
414 148 389 100 352 63 c 0
315 27 265 3 214 -1 c 0
167 -4 119 7 80 33 c 0
42 59 12 98 -2 143 c 0
2 143 l 0
15 99 44 60 82 34 c 0
120 9 167 -2 213 1 c 0
264 5 313 29 349 65 c 0
385 102 409 150 419 201 c 0
424 230 425 260 418 289 c 0
411 318 397 345 376 366 c 0
355 388 328 402 299 410 c 0
270 417 240 418 211 418 c 0
207 418 l 0
Z
Spiro
116 539 v
111 539 v
205 601 c
305 501 c
211 418 [
207 418 v
207 422 v
211 422 ]
300 500 c
204 598 c
78 551 v
73 551 v
208 641 c
345 507 c
211 378 [
207 378 v
207 382 v
211 382 ]
340 506 c
207 638 c
40 564 v
35 564 v
211 680 c
384 512 c
211 338 [
207 338 v
207 342 v
211 342 ]
379 511 c
210 677 c
2 576 v
-2 576 v
214 720 c
424 518 c
211 298 [
207 298 v
207 302 v
211 302 ]
419 517 c
213 717 c
207 298 v
207 302 v
211 302 ]
305 217 c
205 117 c
111 180 v
116 180 v
204 120 c
300 218 c
211 298 [
207 338 v
207 342 v
211 342 ]
345 211 c
208 77 c
73 168 v
78 168 v
207 80 c
340 212 c
211 338 [
207 378 v
207 382 v
211 382 ]
384 206 c
211 38 c
35 155 v
40 155 v
210 41 c
379 207 c
211 378 [
207 418 v
207 422 v
211 422 ]
424 200 c
214 -1 c
-2 143 v
2 143 v
213 1 c
419 201 c
211 418 [
0 0 z
EndSpiro
EndSplineSet
        EndChar
StartChar: 4
Encoding: 52 52 0
Width: 526
InSpiro: 1
        Flags: H
        LayerCount: 2
        Back
        SplineSet
360 87 m 0
355 87 l 0
356 800 l 0
46 212 l 0
392 212 l 0
392 208 l 0
40 208 l 0
40 208 l 0
356 811 l 0
361 811 l 0
360 87 l 0
Z
340 88 m 0
335 88 l 0
336 721 l 0
77 232 l 0
392 232 l 0
392 228 l 0
71 228 l 0
71 228 l 0
336 732 l 0
341 732 l 0
340 88 l 0
Z
320 88 m 0
315 88 l 0
316 641 l 0
110 252 l 0
392 252 l 0
392 248 l 0
104 248 l 0
104 248 l 0
316 652 l 0
321 652 l 0
320 88 l 0
Z
300 88 m 0
295 88 l 0
296 561 l 0
144 272 l 0
392 272 l 0
392 268 l 0
138 268 l 0
138 268 l 0
296 572 l 0
301 572 l 0
300 88 l 0
Z
Spiro
360 87 v
355 87 v
356 800 v
46 212 v
392 212 v
392 208 v
40 208 v
40 208 v
356 811 v
361 811 v
340 88 v
335 88 v
336 721 v
77 232 v
392 232 v
392 228 v
71 228 v
71 228 v
336 732 v
341 732 v
320 88 v
315 88 v
316 641 v
110 252 v
392 252 v
392 248 v
104 248 v
104 248 v
316 652 v
321 652 v
300 88 v
295 88 v
296 561 v
144 272 v
392 272 v
392 268 v
138 268 v
138 268 v
296 572 v
301 572 v
0 0 z
EndSpiro
EndSplineSet
        Fore
        SplineSet
359 57 m 0
354 57 l 0
356 890 l 0
-33 152 l 0
362 152 l 0
362 148 l 0
-39 148 l 0
-39 148 l 0
356 901 l 0
361 901 l 0
359 57 l 0
Z
319 58 m 0
314 58 l 0
316 731 l 0
32 192 l 0
362 192 l 0
362 188 l 0
26 188 l 0
26 188 l 0
316 742 l 0
321 742 l 0
319 58 l 0
Z
279 58 m 0
274 58 l 0
276 571 l 0
98 232 l 0
362 232 l 0
362 228 l 0
92 228 l 0
92 228 l 0
276 582 l 0
281 582 l 0
279 58 l 0
Z
239 58 m 0
234 58 l 0
236 411 l 0
165 272 l 0
362 272 l 0
362 268 l 0
159 268 l 0
159 268 l 0
236 422 l 0
241 422 l 0
239 58 l 0
Z
Spiro
359 57 v
354 57 v
356 890 v
-33 152 v
362 152 v
362 148 v
-39 148 v
-39 148 v
356 901 v
361 901 v
319 58 v
314 58 v
316 731 v
32 192 v
362 192 v
362 188 v
26 188 v
26 188 v
316 742 v
321 742 v
279 58 v
274 58 v
276 571 v
98 232 v
362 232 v
362 228 v
92 228 v
92 228 v
276 582 v
281 582 v
239 58 v
234 58 v
236 411 v
165 272 v
362 272 v
362 268 v
159 268 v
159 268 v
236 422 v
241 422 v
0 0 z
EndSpiro
EndSplineSet
        EndChar
StartChar: 5
Encoding: 53 53 0
Width: 526
InSpiro: 1
        Flags: H
        LayerCount: 2
        Back
        SplineSet
392 722 m 0
392 718 l 0
63 718 l 0
63 388 l 0
59 388 l 0
59 722 l 0
59 722 l 0
392 722 l 0
Z
392 702 m 0
392 698 l 0
83 698 l 0
83 388 l 0
78 388 l 0
78 702 l 0
78 702 l 0
392 702 l 0
Z
392 682 m 0
392 678 l 0
103 678 l 0
103 388 l 0
98 388 l 0
98 682 l 0
98 682 l 0
392 682 l 0
Z
392 662 m 0
392 658 l 0
123 658 l 0
123 388 l 0
118 388 l 0
118 662 l 0
118 662 l 0
392 662 l 0
Z
119 379 m 0
114 379 l 0
121 404 138 427 160 442 c 0
182 456 209 463 236 461 c 0
255 459 274 452 290 441 c 0
306 430 320 416 331 400 c 0
353 368 362 328 363 290 c 0
363 250 354 210 332 178 c 0
321 161 307 147 290 136 c 0
274 125 255 118 236 117 c 0
209 114 181 121 159 136 c 0
137 151 121 174 114 200 c 0
119 200 l 0
125 175 141 153 162 138 c 0
183 124 209 117 235 120 c 0
254 121 272 128 288 139 c 0
304 149 317 163 328 179 c 0
349 211 358 250 358 289 c 0
357 327 349 366 328 398 c 0
317 414 304 428 288 438 c 0
272 449 254 456 235 458 c 0
209 460 183 453 162 439 c 0
141 425 125 403 119 379 c 0
Z
100 385 m 0
95 385 l 0
103 415 123 441 149 459 c 0
175 476 207 484 239 481 c 0
282 476 321 449 346 413 c 0
371 377 382 333 383 290 c 0
383 246 372 201 347 165 c 0
322 128 282 101 239 97 c 0
207 93 175 101 149 119 c 0
123 136 103 163 95 194 c 0
100 194 l 0
107 164 126 138 151 121 c 0
176 104 207 96 238 100 c 0
259 102 280 110 298 121 c 0
316 133 331 149 343 166 c 0
367 202 378 246 378 289 c 0
377 331 367 375 343 411 c 0
331 428 316 444 298 456 c 0
279 467 259 475 238 478 c 0
208 481 176 473 151 456 c 0
126 439 108 414 100 385 c 0
Z
80 390 m 0
75 390 l 0
85 424 107 455 137 475 c 0
167 495 205 504 241 500 c 0
289 494 332 465 361 426 c 0
389 387 402 338 403 290 c 0
403 241 390 191 361 152 c 0
333 112 289 83 241 78 c 0
205 73 167 82 137 103 c 0
107 123 84 154 75 189 c 0
80 189 l 0
89 155 111 125 140 105 c 0
169 85 205 77 240 81 c 0
287 86 330 115 358 153 c 0
385 192 398 241 398 289 c 0
397 336 385 385 358 423 c 0
330 462 287 491 240 497 c 0
205 500 169 492 140 472 c 0
111 453 89 423 80 390 c 0
Z
62 396 m 0
58 396 l 0
69 434 94 469 127 491 c 0
161 514 202 524 243 520 c 0
295 514 344 483 376 440 c 0
407 397 422 343 423 290 c 0
423 236 408 182 376 139 c 0
345 96 296 64 243 59 c 0
202 54 161 64 127 87 c 0
94 109 69 144 58 183 c 0
62 183 l 0
72 144 96 110 129 88 c 0
162 66 202 56 242 61 c 0
294 66 342 97 372 140 c 0
403 183 418 236 418 289 c 0
417 341 403 394 372 437 c 0
342 480 294 511 242 517 c 0
202 521 162 511 129 489 c 0
97 467 72 433 62 396 c 0
Z
Spiro
392 722 v
392 718 v
63 718 v
63 388 v
59 388 v
59 722 v
59 722 v
392 702 v
392 698 v
83 698 v
83 388 v
78 388 v
78 702 v
78 702 v
392 682 v
392 678 v
103 678 v
103 388 v
98 388 v
98 682 v
98 682 v
392 662 v
392 658 v
123 658 v
123 388 v
118 388 v
118 662 v
118 662 v
119 379 v
114 379 v
236 461 c
363 290 c
236 117 c
114 200 v
119 200 v
235 120 c
358 289 c
235 458 c
100 385 v
95 385 v
239 481 c
383 290 c
239 97 c
95 194 v
100 194 v
238 100 c
378 289 c
238 478 c
80 390 v
75 390 v
241 500 c
403 290 c
241 78 c
75 189 v
80 189 v
240 81 c
398 289 c
240 497 c
62 396 v
58 396 v
243 520 c
423 290 c
243 59 c
58 183 v
62 183 v
242 61 c
418 289 c
242 517 c
0 0 z
EndSpiro
EndSplineSet
        Fore
        SplineSet
362 722 m 0
362 718 l 0
4 718 l 0
5 358 l 0
0 358 l 0
0 722 l 0
0 722 l 0
362 722 l 0
Z
362 682 m 0
362 678 l 0
44 678 l 0
45 358 l 0
40 358 l 0
39 682 l 0
39 682 l 0
362 682 l 0
Z
362 642 m 0
362 638 l 0
84 638 l 0
85 358 l 0
80 358 l 0
79 642 l 0
79 642 l 0
362 642 l 0
Z
362 602 m 0
362 598 l 0
124 598 l 0
125 358 l 0
120 358 l 0
119 602 l 0
119 602 l 0
362 602 l 0
Z
116 341 m 0
111 341 l 0
117 359 130 376 146 386 c 0
163 397 183 402 203 401 c 0
218 399 234 393 247 385 c 0
260 376 271 364 280 351 c 0
297 324 304 291 305 260 c 0
305 227 298 194 281 167 c 0
272 154 261 142 248 133 c 0
234 124 219 118 203 117 c 0
183 115 162 120 146 131 c 0
129 142 117 159 111 178 c 0
116 178 l 0
121 160 133 144 148 133 c 0
164 123 183 118 202 120 c 0
217 121 232 126 245 135 c 0
258 144 269 156 277 169 c 0
293 195 300 227 300 259 c 0
299 290 293 322 277 348 c 0
269 361 258 373 245 382 c 0
232 391 217 396 202 398 c 0
183 399 164 394 149 384 c 0
133 374 121 358 116 341 c 0
Z
78 352 m 0
73 352 l 0
81 379 100 404 124 420 c 0
148 436 178 444 208 441 c 0
249 436 286 411 310 377 c 0
334 343 344 301 345 260 c 0
345 218 334 175 311 141 c 0
287 106 249 81 208 77 c 0
178 73 148 81 124 97 c 0
99 113 81 138 73 167 c 0
78 167 l 0
85 139 103 115 126 100 c 0
150 84 178 77 207 80 c 0
227 82 246 89 264 100 c 0
281 111 295 126 307 143 c 0
330 176 340 218 340 259 c 0
339 299 330 341 307 374 c 0
295 391 281 406 264 417 c 0
246 428 227 435 207 438 c 0
179 440 150 433 126 418 c 0
103 402 86 378 78 352 c 0
Z
39 363 m 0
34 363 l 0
45 399 69 432 101 453 c 0
134 474 173 484 212 480 c 0
262 474 309 444 339 403 c 0
370 362 384 311 385 260 c 0
385 208 370 156 340 115 c 0
310 73 263 43 212 38 c 0
173 33 133 43 101 64 c 0
69 86 45 118 34 156 c 0
39 156 l 0
49 120 72 88 104 67 c 0
135 46 173 36 211 41 c 0
261 46 307 76 336 116 c 0
366 157 380 208 380 259 c 0
379 309 366 360 336 401 c 0
307 441 261 471 211 477 c 0
173 481 135 471 104 451 c 0
73 430 49 398 39 363 c 0
Z
2 374 m 0
-2 374 l 0
11 419 41 460 80 486 c 0
120 513 169 525 217 520 c 0
277 513 333 478 369 430 c 0
406 382 424 320 425 260 c 0
425 199 407 137 370 88 c 0
333 40 277 5 217 -1 c 0
169 -6 120 5 80 32 c 0
41 58 11 99 -2 145 c 0
2 145 l 0
14 99 43 59 82 33 c 0
121 7 169 -4 216 1 c 0
275 7 330 42 366 90 c 0
402 138 420 198 420 259 c 0
419 319 402 379 366 427 c 0
330 475 275 510 216 517 c 0
169 522 121 510 82 484 c 0
44 458 14 418 2 374 c 0
Z
Spiro
362 722 v
362 718 v
4 718 v
5 358 v
0 358 v
0 722 v
0 722 v
362 682 v
362 678 v
44 678 v
45 358 v
40 358 v
39 682 v
39 682 v
362 642 v
362 638 v
84 638 v
85 358 v
80 358 v
79 642 v
79 642 v
362 602 v
362 598 v
124 598 v
125 358 v
120 358 v
119 602 v
119 602 v
116 341 v
111 341 v
203 401 c
305 260 c
203 117 c
111 178 v
116 178 v
202 120 c
300 259 c
202 398 c
78 352 v
73 352 v
208 441 c
345 260 c
208 77 c
73 167 v
78 167 v
207 80 c
340 259 c
207 438 c
39 363 v
34 363 v
212 480 c
385 260 c
212 38 c
34 156 v
39 156 v
211 41 c
380 259 c
211 477 c
2 374 v
-2 374 v
217 520 c
425 260 c
217 -1 c
-2 145 v
2 145 v
216 1 c
420 259 c
216 517 c
0 0 z
EndSpiro
EndSplineSet
        EndChar
StartChar: 6
Encoding: 54 54 0
Width: 526
InSpiro: 1
        Flags: H
        LayerCount: 2
        Back
        SplineSet
419 594 m 0
414 594 l 0
406 633 383 670 349 693 c 0
316 716 273 724 234 717 c 0
201 710 171 693 147 669 c 0
123 646 105 617 93 586 c 0
68 524 64 456 63 390 c 0
60 320 60 249 85 184 c 0
98 152 118 122 144 99 c 0
170 77 204 62 239 61 c 0
266 59 293 67 316 80 c 0
340 93 360 112 375 135 c 0
406 179 417 235 415 290 c 0
412 341 398 393 369 436 c 0
339 478 293 510 242 517 c 0
202 522 162 512 129 490 c 0
97 467 73 433 64 395 c 0
60 395 l 0
69 434 94 469 127 492 c 0
161 515 202 525 243 520 c 0
295 513 342 481 372 438 c 0
402 396 417 343 420 291 c 0
422 235 410 178 378 133 c 0
362 110 342 91 317 77 c 0
293 64 265 57 238 59 c 0
203 60 169 75 142 98 c 0
116 121 96 151 83 183 c 0
57 248 56 321 59 391 c 0
61 458 65 526 90 588 c 0
103 619 121 649 145 672 c 0
169 695 200 713 233 720 c 0
273 728 318 719 352 696 c 0
387 672 411 635 419 594 c 0
Z
400 590 m 0
395 590 l 0
388 624 367 656 338 675 c 0
309 695 272 703 238 697 c 0
207 691 179 674 157 652 c 0
135 630 118 603 108 573 c 0
86 515 85 451 83 389 c 0
80 324 78 258 99 197 c 0
110 167 127 139 151 117 c 0
175 96 206 81 239 81 c 0
263 80 287 87 308 99 c 0
329 111 347 129 360 149 c 0
387 190 396 240 395 289 c 0
393 335 381 383 354 422 c 0
328 461 286 490 240 497 c 0
205 501 169 492 141 473 c 0
112 453 91 423 83 390 c 0
78 390 l 0
86 424 108 455 138 475 c 0
168 496 205 504 241 500 c 0
288 493 330 464 357 424 c 0
385 385 397 337 400 290 c 0
402 239 392 188 364 146 c 0
350 126 331 108 309 95 c 0
288 83 263 76 238 78 c 0
205 79 173 93 149 115 c 0
125 137 107 165 96 196 c 0
73 257 75 324 78 390 c 0
80 452 82 517 104 576 c 0
116 605 132 633 155 655 c 0
177 677 206 694 237 700 c 0
272 706 311 698 341 678 c 0
371 658 392 625 400 590 c 0
Z
380 585 m 0
375 585 l 0
369 614 351 641 327 658 c 0
302 675 271 682 242 678 c 0
213 673 186 658 166 636 c 0
145 615 131 589 122 561 c 0
103 506 104 446 103 388 c 0
100 328 95 267 113 210 c 0
122 181 137 154 159 134 c 0
181 113 210 100 240 100 c 0
261 99 283 106 301 117 c 0
319 129 335 145 346 163 c 0
369 200 376 244 375 288 c 0
373 330 363 373 340 409 c 0
328 427 313 443 296 455 c 0
278 467 258 475 237 478 c 0
207 481 176 473 152 456 c 0
127 440 110 413 103 385 c 0
98 385 l 0
105 414 124 442 149 459 c 0
175 476 207 484 238 481 c 0
259 478 280 470 298 458 c 0
316 446 331 430 343 412 c 0
367 376 378 332 380 289 c 0
381 244 373 198 349 160 c 0
337 142 321 125 302 114 c 0
283 102 261 96 239 97 c 0
208 97 179 111 157 131 c 0
135 152 119 179 110 208 c 0
91 266 95 328 98 389 c 0
100 448 99 508 119 564 c 0
129 591 143 618 164 639 c 0
185 660 211 676 241 681 c 0
271 686 304 678 329 661 c 0
355 643 373 615 380 585 c 0
Z
361 581 m 0
356 581 l 0
350 605 335 626 315 640 c 0
295 654 269 661 245 658 c 0
218 654 193 639 174 619 c 0
156 600 144 575 136 548 c 0
121 496 125 441 123 387 c 0
120 332 112 276 126 223 c 0
133 196 146 171 165 152 c 0
185 132 211 119 239 120 c 0
257 120 276 126 292 136 c 0
308 146 321 161 331 177 c 0
350 210 356 249 355 287 c 0
353 324 346 363 326 395 c 0
316 412 303 426 287 437 c 0
272 448 253 455 235 458 c 0
210 460 184 454 163 440 c 0
143 426 128 404 122 380 c 0
117 380 l 0
123 405 139 428 161 442 c 0
182 457 210 464 236 461 c 0
255 458 273 451 289 440 c 0
305 429 318 414 329 398 c 0
349 365 358 326 360 288 c 0
361 249 355 208 335 175 c 0
325 158 311 144 295 133 c 0
278 123 259 117 240 117 c 0
212 116 184 129 164 149 c 0
144 168 131 194 124 221 c 0
108 275 115 332 118 388 c 0
120 442 117 498 133 551 c 0
141 577 154 602 173 622 c 0
191 642 216 657 244 661 c 0
269 664 296 658 318 643 c 0
339 629 355 606 361 581 c 0
Z
Spiro
419 594 v
414 594 v
234 717 c
63 390 c
239 61 c
415 290 c
242 517 c
64 395 v
60 395 v
243 520 c
420 291 c
238 59 c
59 391 c
233 720 c
400 590 v
395 590 v
238 697 c
83 389 c
239 81 c
395 289 c
240 497 c
83 390 v
78 390 v
241 500 c
400 290 c
238 78 c
78 390 c
237 700 c
380 585 v
375 585 v
242 678 c
103 388 c
240 100 c
375 288 c
237 478 c
103 385 v
98 385 v
238 481 c
380 289 c
239 97 c
98 389 c
241 681 c
361 581 v
356 581 v
245 658 c
123 387 c
239 120 c
355 287 c
235 458 c
122 380 v
117 380 v
236 461 c
360 288 c
240 117 c
118 388 c
244 661 c
0 0 z
EndSpiro
EndSplineSet
        Fore
        SplineSet
417 570 m 0
412 570 l 0
404 617 376 662 337 689 c 0
297 716 246 727 199 717 c 0
163 709 130 690 103 665 c 0
77 640 56 609 42 575 c 0
13 508 7 434 5 361 c 0
2 284 5 205 35 135 c 0
51 99 73 67 103 43 c 0
132 18 169 2 208 1 c 0
239 0 270 7 297 22 c 0
324 36 348 58 366 83 c 0
402 134 415 198 413 261 c 0
410 319 394 378 360 425 c 0
326 473 273 508 216 517 c 0
170 523 121 511 83 485 c 0
45 459 17 418 7 373 c 0
2 373 l 0
13 419 41 461 81 488 c 0
120 514 169 526 217 520 c 0
275 511 328 476 363 428 c 0
398 380 415 321 418 262 c 0
420 198 406 133 369 81 c 0
350 56 326 34 298 19 c 0
270 4 238 -2 207 -1 c 0
168 1 131 17 101 41 c 0
71 66 48 98 32 134 c 0
0 204 -2 284 0 362 c 0
2 435 8 510 39 578 c 0
54 611 74 643 101 668 c 0
128 693 161 712 198 720 c 0
246 730 298 720 339 692 c 0
380 664 409 618 417 570 c 0
Z
378 562 m 0
373 562 l 0
366 599 344 633 313 654 c 0
282 675 242 684 206 677 c 0
174 670 145 653 122 631 c 0
99 608 83 579 71 549 c 0
48 489 46 423 45 359 c 0
42 292 40 223 63 161 c 0
75 130 93 100 118 78 c 0
143 56 175 42 209 41 c 0
234 40 260 47 282 60 c 0
304 72 322 91 337 112 c 0
365 155 374 207 373 259 c 0
371 308 358 357 330 398 c 0
303 439 259 470 211 477 c 0
174 481 136 472 106 452 c 0
75 431 53 398 45 363 c 0
40 363 l 0
49 399 72 433 103 454 c 0
134 475 174 485 212 480 c 0
261 473 305 442 334 401 c 0
362 360 375 309 378 260 c 0
380 207 369 153 340 109 c 0
325 88 306 69 283 56 c 0
260 43 234 36 208 38 c 0
174 39 141 54 116 76 c 0
90 98 72 128 60 159 c 0
36 222 37 292 40 360 c 0
42 425 44 491 68 552 c 0
80 582 97 610 120 633 c 0
143 656 173 673 205 680 c 0
243 687 284 679 316 657 c 0
348 635 371 600 378 562 c 0
Z
339 553 m 0
334 553 l 0
328 579 312 603 290 619 c 0
268 634 240 641 214 638 c 0
186 634 160 619 140 598 c 0
121 578 108 552 100 525 c 0
83 471 86 414 84 358 c 0
81 300 74 242 90 186 c 0
98 159 112 132 132 113 c 0
153 93 181 79 210 80 c 0
230 80 250 86 267 97 c 0
284 108 298 123 308 141 c 0
329 175 335 217 334 258 c 0
332 298 323 338 302 372 c 0
291 389 278 404 261 416 c 0
245 427 225 435 206 438 c 0
178 441 150 434 128 418 c 0
106 402 90 378 84 352 c 0
79 352 l 0
85 379 102 404 126 420 c 0
149 437 178 444 207 441 c 0
227 438 246 430 263 419 c 0
280 407 294 392 305 375 c 0
327 341 337 299 339 259 c 0
340 217 333 174 311 138 c 0
300 120 286 105 268 94 c 0
250 83 229 76 209 77 c 0
179 77 151 90 130 110 c 0
109 131 95 157 87 185 c 0
70 241 76 300 79 359 c 0
81 415 79 473 97 527 c 0
105 554 119 580 139 601 c 0
158 621 184 636 213 641 c 0
240 645 270 638 293 622 c 0
316 605 333 580 339 553 c 0
Z
300 545 m 0
295 545 l 0
290 560 280 574 266 583 c 0
253 593 237 598 221 598 c 0
196 597 173 584 157 566 c 0
141 548 132 524 127 501 c 0
117 453 126 404 124 356 c 0
121 308 109 259 116 212 c 0
120 188 129 165 146 147 c 0
154 138 163 131 174 126 c 0
185 121 198 119 210 120 c 0
224 121 238 126 250 135 c 0
262 144 271 156 278 169 c 0
291 196 294 226 294 256 c 0
293 287 288 318 273 346 c 0
266 359 256 372 243 381 c 0
231 390 216 396 201 398 c 0
183 399 165 394 151 384 c 0
137 374 126 358 122 342 c 0
117 342 l 0
121 360 133 376 148 387 c 0
164 397 183 402 202 401 c 0
217 399 232 393 245 383 c 0
258 374 269 362 276 348 c 0
292 321 298 288 299 257 c 0
299 226 296 194 282 167 c 0
275 154 265 142 253 132 c 0
241 123 226 117 211 117 c 0
198 116 186 118 175 123 c 0
163 128 153 135 145 144 c 0
128 162 118 186 114 210 c 0
105 258 116 307 119 357 c 0
121 405 114 455 124 503 c 0
130 527 140 550 156 568 c 0
172 586 195 599 220 601 c 0
237 601 255 596 269 586 c 0
284 576 294 561 300 545 c 0
Z
Spiro
417 570 v
412 570 v
199 717 c
5 361 c
208 1 c
413 261 c
216 517 c
7 373 v
2 373 v
217 520 c
418 262 c
207 -1 c
0 362 c
198 720 c
378 562 v
373 562 v
206 677 c
45 359 c
209 41 c
373 259 c
211 477 c
45 363 v
40 363 v
212 480 c
378 260 c
208 38 c
40 360 c
205 680 c
339 553 v
334 553 v
214 638 c
84 358 c
210 80 c
334 258 c
206 438 c
84 352 v
79 352 v
207 441 c
339 259 c
209 77 c
79 359 c
213 641 c
300 545 v
295 545 v
221 598 c
124 356 c
210 120 c
294 256 c
201 398 c
122 342 v
117 342 v
202 401 c
299 257 c
211 117 c
119 357 c
220 601 c
0 0 z
EndSpiro
EndSplineSet
        EndChar
StartChar: 7
Encoding: 55 55 0
Width: 526
InSpiro: 1
        Flags: H
        LayerCount: 2
        Back
        SplineSet
86 658 m 0
86 662 l 0
361 660 l 0
363 662 l 0
363 662 l 0
214 95 l 0
209 95 l 0
360 660 l 0
361 660 l 0
86 658 l 0
Z
87 678 m 0
87 682 l 0
381 680 l 0
383 682 l 0
383 682 l 0
233 90 l 0
228 90 l 0
380 680 l 0
381 680 l 0
87 678 l 0
Z
87 698 m 0
87 702 l 0
401 700 l 0
403 702 l 0
403 702 l 0
253 85 l 0
248 85 l 0
400 700 l 0
401 700 l 0
87 698 l 0
Z
87 718 m 0
87 722 l 0
421 720 l 0
423 722 l 0
423 722 l 0
272 80 l 0
267 80 l 0
420 720 l 0
421 720 l 0
87 718 l 0
Z
Spiro
86 658 v
86 662 v
361 660 v
363 662 v
363 662 v
214 95 v
209 95 v
360 660 v
361 660 v
87 678 v
87 682 v
381 680 v
383 682 v
383 682 v
233 90 v
228 90 v
380 680 v
381 680 v
87 698 v
87 702 v
401 700 v
403 702 v
403 702 v
253 85 v
248 85 v
400 700 v
401 700 v
87 718 v
87 722 v
421 720 v
423 722 v
423 722 v
272 80 v
267 80 v
420 720 v
421 720 v
0 0 z
EndSpiro
EndSplineSet
        Fore
        SplineSet
56 598 m 0
56 602 l 0
302 600 l 0
304 602 l 0
304 602 l 0
156 72 l 0
151 72 l 0
301 600 l 0
302 600 l 0
56 598 l 0
Z
57 638 m 0
57 642 l 0
342 640 l 0
344 642 l 0
344 642 l 0
195 62 l 0
190 62 l 0
341 640 l 0
342 640 l 0
57 638 l 0
Z
57 678 m 0
57 682 l 0
382 680 l 0
384 682 l 0
384 682 l 0
234 53 l 0
229 53 l 0
381 680 l 0
382 680 l 0
57 678 l 0
Z
57 718 m 0
57 722 l 0
422 720 l 0
424 722 l 0
424 722 l 0
273 43 l 0
268 43 l 0
421 720 l 0
422 720 l 0
57 718 l 0
Z
Spiro
56 598 v
56 602 v
302 600 v
304 602 v
304 602 v
156 72 v
151 72 v
301 600 v
302 600 v
57 638 v
57 642 v
342 640 v
344 642 v
344 642 v
195 62 v
190 62 v
341 640 v
342 640 v
57 678 v
57 682 v
382 680 v
384 682 v
384 682 v
234 53 v
229 53 v
381 680 v
382 680 v
57 718 v
57 722 v
422 720 v
424 722 v
424 722 v
273 43 v
268 43 v
421 720 v
422 720 v
0 0 z
EndSpiro
EndSplineSet
        EndChar
StartChar: 9
Encoding: 57 57 0
Width: 526
InSpiro: 1
        Flags: H
        LayerCount: 2
        Back
        SplineSet
262 67 m 0
257 67 l 0
339 154 394 265 415 384 c 0
424 437 426 492 414 545 c 0
404 587 384 628 355 659 c 0
325 691 284 713 241 717 c 0
193 720 145 701 112 667 c 0
79 634 61 586 63 539 c 0
64 493 83 447 115 414 c 0
147 382 193 362 239 361 c 0
276 359 314 371 345 392 c 0
376 413 400 445 413 481 c 0
418 481 l 0
405 444 380 411 348 390 c 0
316 368 276 356 238 358 c 0
191 359 145 379 112 412 c 0
80 445 60 491 59 538 c 0
57 586 75 635 110 670 c 0
144 704 193 723 242 720 c 0
286 716 327 694 358 662 c 0
388 630 408 589 419 546 c 0
431 492 429 436 420 383 c 0
399 265 343 154 262 67 c 0
Z
248 81 m 0
243 81 l 0
321 166 374 274 395 388 c 0
403 438 406 490 395 541 c 0
386 579 369 616 342 645 c 0
315 674 278 694 239 697 c 0
197 699 155 682 126 652 c 0
97 622 81 580 83 539 c 0
84 498 101 458 129 428 c 0
158 399 198 382 239 381 c 0
272 379 306 389 334 409 c 0
361 428 383 456 394 488 c 0
399 488 l 0
387 455 365 426 336 406 c 0
307 387 272 376 238 378 c 0
196 379 155 397 126 426 c 0
97 455 79 496 78 538 c 0
76 581 92 624 123 655 c 0
153 686 197 703 240 700 c 0
280 696 317 676 345 647 c 0
373 618 390 581 400 542 c 0
411 491 409 438 400 387 c 0
379 273 326 165 248 81 c 0
Z
233 94 m 0
228 94 l 0
304 176 355 280 375 391 c 0
383 438 385 488 375 536 c 0
367 570 352 603 329 630 c 0
306 656 273 675 238 678 c 0
201 680 165 665 140 639 c 0
115 612 102 576 103 540 c 0
103 504 118 468 143 442 c 0
168 416 204 401 240 400 c 0
269 399 299 407 323 424 c 0
348 441 366 466 376 495 c 0
381 495 l 0
371 465 351 440 326 422 c 0
300 405 269 395 239 397 c 0
202 398 166 414 140 440 c 0
114 466 99 502 98 539 c 0
96 576 110 614 137 641 c 0
163 668 201 683 239 681 c 0
274 678 308 659 332 632 c 0
356 606 372 572 380 537 c 0
390 488 388 438 380 390 c 0
360 280 308 175 233 94 c 0
Z
218 108 m 0
213 108 l 0
286 187 336 288 355 395 c 0
363 440 365 487 356 532 c 0
349 562 337 592 316 615 c 0
296 639 267 656 236 658 c 0
205 659 174 646 153 624 c 0
133 601 122 570 123 540 c 0
123 509 136 478 157 456 c 0
179 434 209 421 240 420 c 0
265 419 291 426 312 441 c 0
333 456 349 477 357 502 c 0
362 502 l 0
353 476 336 454 314 439 c 0
292 423 265 416 239 417 c 0
207 418 176 431 154 454 c 0
132 476 119 507 118 539 c 0
116 570 128 603 150 626 c 0
172 649 205 663 237 661 c 0
268 658 298 642 319 618 c 0
341 594 354 564 361 533 c 0
371 487 368 439 360 394 c 0
340 287 290 187 218 108 c 0
Z
Spiro
262 67 v
257 67 v
415 384 c
414 545 c
241 717 c
63 539 c
239 361 c
413 481 v
418 481 v
238 358 c
59 538 c
242 720 c
419 546 c
420 383 c
248 81 v
243 81 v
395 388 c
395 541 c
239 697 c
83 539 c
239 381 c
394 488 v
399 488 v
238 378 c
78 538 c
240 700 c
400 542 c
400 387 c
233 94 v
228 94 v
375 391 c
375 536 c
238 678 c
103 540 c
240 400 c
376 495 v
381 495 v
239 397 c
98 539 c
239 681 c
380 537 c
380 390 c
218 108 v
213 108 v
355 395 c
356 532 c
236 658 c
123 540 c
240 420 c
357 502 v
362 502 v
239 417 c
118 539 c
237 661 c
361 533 c
360 394 c
0 0 z
EndSpiro
EndSplineSet
        Fore
        SplineSet
253 17 m 0
248 17 l 0
333 108 391 225 413 349 c 0
422 406 424 465 412 522 c 0
400 570 378 616 343 652 c 0
309 688 262 713 213 717 c 0
157 721 100 698 62 658 c 0
23 618 2 562 5 507 c 0
6 454 28 402 65 364 c 0
102 326 154 303 207 301 c 0
248 299 291 310 326 332 c 0
362 354 391 387 408 426 c 0
413 426 l 0
395 386 365 352 329 329 c 0
292 307 249 295 206 298 c 0
152 300 100 323 62 361 c 0
24 399 2 452 0 506 c 0
-2 562 19 620 59 661 c 0
99 702 157 724 214 720 c 0
264 715 311 691 347 655 c 0
382 618 405 572 417 523 c 0
430 465 428 405 418 348 c 0
396 224 338 108 253 17 c 0
Z
224 44 m 0
219 44 l 0
298 130 352 240 373 356 c 0
382 407 384 461 373 513 c 0
364 553 346 592 318 622 c 0
290 652 251 673 210 677 c 0
165 680 120 661 90 630 c 0
59 598 43 553 45 509 c 0
46 465 64 423 94 392 c 0
124 361 166 342 209 341 c 0
243 339 277 348 306 366 c 0
335 384 358 411 372 443 c 0
377 443 l 0
362 410 338 382 308 364 c 0
278 345 243 336 208 338 c 0
164 340 121 359 90 390 c 0
60 421 41 464 40 508 c 0
38 553 55 599 87 632 c 0
119 665 165 683 211 680 c 0
252 676 292 655 321 624 c 0
350 594 368 554 378 514 c 0
389 461 387 407 378 355 c 0
357 239 303 130 224 44 c 0
Z
195 71 m 0
190 71 l 0
264 151 315 254 334 363 c 0
341 409 343 457 334 504 c 0
327 536 313 567 292 592 c 0
270 617 239 635 207 638 c 0
173 640 140 625 117 601 c 0
94 577 82 543 84 510 c 0
85 476 98 444 121 420 c 0
144 396 176 381 210 380 c 0
236 378 263 385 285 400 c 0
308 414 325 435 336 460 c 0
341 460 l 0
330 434 311 412 288 397 c 0
264 382 236 375 209 377 c 0
175 378 142 393 118 417 c 0
94 441 80 475 79 509 c 0
77 543 90 578 114 604 c 0
138 629 173 643 208 641 c 0
241 638 273 620 295 595 c 0
317 569 331 537 339 505 c 0
349 458 347 409 339 362 c 0
320 253 269 151 195 71 c 0
Z
165 98 m 0
160 98 l 0
229 173 277 268 294 370 c 0
300 411 302 453 295 495 c 0
290 519 282 543 266 563 c 0
259 572 249 581 239 587 c 0
228 593 216 597 204 598 c 0
182 598 160 588 145 572 c 0
131 556 123 533 124 512 c 0
124 488 133 465 149 448 c 0
165 431 188 421 212 420 c 0
230 419 249 424 265 434 c 0
280 444 293 459 300 477 c 0
305 477 l 0
297 458 284 442 267 432 c 0
250 421 230 416 211 417 c 0
186 418 163 428 146 445 c 0
129 463 119 486 119 511 c 0
118 534 126 557 142 575 c 0
158 592 181 602 205 601 c 0
217 600 230 596 241 590 c 0
252 583 261 575 269 565 c 0
285 545 294 520 300 496 c 0
308 454 306 410 299 369 c 0
281 268 234 172 165 98 c 0
Z
Spiro
253 17 v
248 17 v
413 349 c
412 522 c
213 717 c
5 507 c
207 301 c
408 426 v
413 426 v
206 298 c
0 506 c
214 720 c
417 523 c
418 348 c
224 44 v
219 44 v
373 356 c
373 513 c
210 677 c
45 509 c
209 341 c
372 443 v
377 443 v
208 338 c
40 508 c
211 680 c
378 514 c
378 355 c
195 71 v
190 71 v
334 363 c
334 504 c
207 638 c
84 510 c
210 380 c
336 460 v
341 460 v
209 377 c
79 509 c
208 641 c
339 505 c
339 362 c
165 98 v
160 98 v
294 370 c
295 495 c
204 598 c
124 512 c
212 420 c
300 477 v
305 477 v
211 417 c
119 511 c
205 601 c
300 496 c
299 369 c
0 0 z
EndSpiro
EndSplineSet
        EndChar
StartChar: A
Encoding: 65 65 0
Width: 526
InSpiro: 1
        Flags: H
        LayerCount: 2
        Back
        SplineSet
119 80 m 0
114 80 l 0
151 232 l 0
265 658 l 0
213 658 l 0
327 232 l 0
364 80 l 0
359 80 l 0
322 231 l 0
208 662 l 0
208 662 l 0
270 662 l 0
270 662 l 0
156 231 l 0
119 80 l 0
Z
100 85 m 0
95 85 l 0
132 237 l 0
245 678 l 0
233 678 l 0
346 237 l 0
383 85 l 0
378 85 l 0
341 236 l 0
228 682 l 0
228 682 l 0
250 682 l 0
250 682 l 0
137 236 l 0
100 85 l 0
Z
80 90 m 0
75 90 l 0
112 242 l 0
225 702 l 0
225 702 l 0
253 702 l 0
253 702 l 0
366 242 l 0
403 90 l 0
398 90 l 0
361 241 l 0
249 698 l 0
229 698 l 0
117 241 l 0
80 90 l 0
Z
62 95 m 0
58 95 l 0
93 247 l 0
205 722 l 0
205 722 l 0
273 722 l 0
273 722 l 0
385 247 l 0
422 95 l 0
417 95 l 0
380 246 l 0
269 718 l 0
209 718 l 0
98 246 l 0
62 95 l 0
Z
124 208 m 0
124 212 l 0
355 212 l 0
355 208 l 0
124 208 l 0
Z
124 228 m 0
124 232 l 0
355 232 l 0
355 228 l 0
124 228 l 0
Z
124 248 m 0
124 252 l 0
355 252 l 0
355 248 l 0
124 248 l 0
Z
124 268 m 0
124 272 l 0
355 272 l 0
355 268 l 0
124 268 l 0
Z
Spiro
119 80 v
114 80 v
151 232 v
265 658 v
213 658 v
327 232 v
364 80 v
359 80 v
322 231 v
208 662 v
208 662 v
270 662 v
270 662 v
156 231 v
100 85 v
95 85 v
132 237 v
245 678 v
233 678 v
346 237 v
383 85 v
378 85 v
341 236 v
228 682 v
228 682 v
250 682 v
250 682 v
137 236 v
80 90 v
75 90 v
112 242 v
225 702 v
225 702 v
253 702 v
253 702 v
366 242 v
403 90 v
398 90 v
361 241 v
249 698 v
229 698 v
117 241 v
62 95 v
58 95 v
93 247 v
205 722 v
205 722 v
273 722 v
273 722 v
385 247 v
422 95 v
417 95 v
380 246 v
269 718 v
209 718 v
98 246 v
124 208 v
124 212 v
355 212 v
355 208 v
124 228 v
124 232 v
355 232 v
355 228 v
124 248 v
124 252 v
355 252 v
355 248 v
124 268 v
124 272 v
355 272 v
355 268 v
0 0 z
EndSpiro
EndSplineSet
        Fore
        SplineSet
117 43 m 0
112 43 l 0
149 195 l 0
264 598 l 0
154 598 l 0
269 195 l 0
306 43 l 0
301 43 l 0
264 194 l 0
149 602 l 0
149 602 l 0
269 602 l 0
269 602 l 0
154 194 l 0
117 43 l 0
Z
78 53 m 0
73 53 l 0
110 205 l 0
224 638 l 0
194 638 l 0
308 205 l 0
345 53 l 0
340 53 l 0
303 204 l 0
189 642 l 0
189 642 l 0
229 642 l 0
229 642 l 0
115 204 l 0
78 53 l 0
Z
39 62 m 0
34 62 l 0
71 214 l 0
184 682 l 0
184 682 l 0
234 682 l 0
234 682 l 0
347 214 l 0
384 62 l 0
379 62 l 0
342 213 l 0
230 678 l 0
188 678 l 0
76 213 l 0
39 62 l 0
Z
1 72 m 0
-3 72 l 0
32 224 l 0
144 722 l 0
144 722 l 0
274 722 l 0
274 722 l 0
386 224 l 0
423 72 l 0
418 72 l 0
381 223 l 0
270 718 l 0
148 718 l 0
37 223 l 0
1 72 l 0
Z
94 148 m 0
94 152 l 0
325 152 l 0
325 148 l 0
94 148 l 0
Z
94 188 m 0
94 192 l 0
325 192 l 0
325 188 l 0
94 188 l 0
Z
94 228 m 0
94 232 l 0
325 232 l 0
325 228 l 0
94 228 l 0
Z
94 268 m 0
94 272 l 0
325 272 l 0
325 268 l 0
94 268 l 0
Z
Spiro
117 43 v
112 43 v
149 195 v
264 598 v
154 598 v
269 195 v
306 43 v
301 43 v
264 194 v
149 602 v
149 602 v
269 602 v
269 602 v
154 194 v
78 53 v
73 53 v
110 205 v
224 638 v
194 638 v
308 205 v
345 53 v
340 53 v
303 204 v
189 642 v
189 642 v
229 642 v
229 642 v
115 204 v
39 62 v
34 62 v
71 214 v
184 682 v
184 682 v
234 682 v
234 682 v
347 214 v
384 62 v
379 62 v
342 213 v
230 678 v
188 678 v
76 213 v
1 72 v
-3 72 v
32 224 v
144 722 v
144 722 v
274 722 v
274 722 v
386 224 v
423 72 v
418 72 v
381 223 v
270 718 v
148 718 v
37 223 v
94 148 v
94 152 v
325 152 v
325 148 v
94 188 v
94 192 v
325 192 v
325 188 v
94 228 v
94 232 v
325 232 v
325 228 v
94 268 v
94 272 v
325 272 v
325 268 v
0 0 z
EndSpiro
EndSplineSet
        EndChar
StartChar: B
Encoding: 66 66 0
Width: 526
InSpiro: 1
        Flags: H
        LayerCount: 2
        Back
        SplineSet
120 87 m 0
115 87 l 0
115 662 l 0
115 662 l 0
118 660 l 0
240 662 l 0
256 662 273 662 290 657 c 0
306 653 321 645 333 633 c 0
345 621 353 606 357 589 c 0
362 573 363 556 363 540 c 0
362 523 361 506 356 490 c 0
352 474 344 459 332 447 c 0
320 435 305 427 289 422 c 0
273 418 256 417 240 418 c 0
86 418 l 0
86 422 l 0
240 422 l 0
256 422 272 422 287 426 c 0
303 430 318 438 329 450 c 0
340 461 348 476 352 492 c 0
357 507 358 523 358 540 c 0
357 556 356 572 352 587 c 0
347 602 339 617 328 628 c 0
317 640 302 648 287 652 c 0
272 657 256 657 240 658 c 0
118 660 l 0
118 660 l 0
120 87 l 0
Z
100 88 m 0
95 88 l 0
95 682 l 0
95 682 l 0
98 680 l 0
240 682 l 0
259 682 279 682 298 677 c 0
317 672 334 662 348 648 c 0
362 634 371 616 376 597 c 0
381 579 383 559 383 540 c 0
382 520 381 501 376 482 c 0
370 463 361 446 347 432 c 0
334 418 316 408 297 403 c 0
279 398 259 397 240 398 c 0
87 398 l 0
87 402 l 0
240 402 l 0
258 402 277 402 296 407 c 0
314 412 331 421 344 435 c 0
357 448 366 465 371 484 c 0
376 502 378 521 378 540 c 0
377 558 376 577 371 595 c 0
365 613 356 630 343 644 c 0
330 657 313 666 295 672 c 0
277 677 258 677 240 678 c 0
98 680 l 0
98 680 l 0
100 88 l 0
Z
80 88 m 0
75 88 l 0
75 702 l 0
75 702 l 0
78 700 l 0
240 702 l 0
262 702 284 702 306 696 c 0
327 690 347 679 363 663 c 0
379 647 389 627 395 606 c 0
401 584 403 562 403 540 c 0
402 517 401 495 395 474 c 0
388 452 378 432 362 417 c 0
347 401 327 390 305 384 c 0
284 378 262 377 240 378 c 0
87 378 l 0
87 382 l 0
240 382 l 0
261 382 283 382 304 388 c 0
325 393 344 404 359 420 c 0
374 435 384 455 390 475 c 0
396 496 398 518 398 540 c 0
397 561 396 583 390 603 c 0
384 624 373 643 358 659 c 0
343 674 324 685 303 691 c 0
283 697 261 697 240 698 c 0
78 700 l 0
78 700 l 0
80 88 l 0
Z
61 88 m 0
57 88 l 0
57 722 l 0
57 722 l 0
59 720 l 0
240 722 l 0
264 722 290 722 314 715 c 0
338 709 361 696 378 678 c 0
396 661 408 638 414 614 c 0
421 590 423 564 423 540 c 0
422 515 421 490 414 466 c 0
407 442 395 419 377 401 c 0
360 384 338 371 314 365 c 0
290 358 264 357 240 358 c 0
87 358 l 0
87 362 l 0
240 362 l 0
264 362 288 362 312 368 c 0
335 375 357 387 374 404 c 0
391 422 403 444 409 467 c 0
416 491 418 515 418 540 c 0
417 564 415 588 409 611 c 0
402 635 390 657 373 674 c 0
357 691 335 703 311 710 c 0
288 716 264 717 240 718 c 0
59 720 l 0
60 720 l 0
61 88 l 0
Z
86 358 m 0
86 362 l 0
240 362 l 0
256 362 273 361 289 357 c 0
305 352 320 344 332 332 c 0
344 320 352 305 357 289 c 0
361 273 363 256 363 240 c 0
363 223 361 206 357 190 c 0
352 174 344 159 332 147 c 0
320 135 305 127 289 122 c 0
273 118 256 117 240 118 c 0
86 118 l 0
86 122 l 0
240 122 l 0
256 122 272 122 287 126 c 0
303 130 317 138 329 150 c 0
340 162 348 176 352 192 c 0
356 207 358 223 358 240 c 0
358 256 356 272 352 287 c 0
348 303 340 317 329 329 c 0
317 341 303 349 287 353 c 0
272 357 256 358 240 358 c 0
86 358 l 0
Z
87 378 m 0
87 382 l 0
240 382 l 0
259 382 279 381 297 376 c 0
316 371 334 361 347 347 c 0
361 333 370 316 376 297 c 0
381 279 383 259 383 240 c 0
383 220 381 200 376 182 c 0
370 163 361 145 347 132 c 0
334 118 316 108 297 103 c 0
279 98 259 97 240 98 c 0
87 98 l 0
87 102 l 0
240 102 l 0
258 102 277 102 296 107 c 0
314 112 331 121 344 135 c 0
357 148 366 165 371 184 c 0
376 202 378 221 378 240 c 0
378 258 376 277 371 295 c 0
366 314 357 331 344 344 c 0
331 358 314 367 296 372 c 0
277 377 258 378 240 378 c 0
87 378 l 0
Z
87 398 m 0
87 402 l 0
240 402 l 0
262 402 284 401 305 395 c 0
327 389 347 378 362 363 c 0
378 347 389 327 395 305 c 0
401 284 403 262 403 240 c 0
402 217 401 195 395 174 c 0
389 152 378 132 362 116 c 0
347 101 327 90 305 84 c 0
284 78 262 77 240 78 c 0
87 78 l 0
87 82 l 0
240 82 l 0
261 82 283 82 304 88 c 0
324 93 344 104 359 120 c 0
374 135 384 155 390 175 c 0
396 196 398 218 398 240 c 0
398 261 396 283 390 304 c 0
384 324 374 344 359 359 c 0
344 375 324 386 304 391 c 0
283 397 261 398 240 398 c 0
87 398 l 0
Z
87 418 m 0
87 422 l 0
240 422 l 0
264 422 290 421 314 415 c 0
338 408 360 395 378 378 c 0
395 360 407 337 414 313 c 0
421 289 423 264 423 240 c 0
423 215 421 190 414 166 c 0
407 142 395 119 377 101 c 0
360 84 338 71 314 64 c 0
290 58 264 57 240 58 c 0
87 58 l 0
87 62 l 0
240 62 l 0
264 62 288 62 312 68 c 0
335 75 357 87 374 104 c 0
391 122 403 144 409 167 c 0
416 191 418 215 418 240 c 0
418 264 416 288 409 312 c 0
403 335 391 357 374 375 c 0
357 392 335 404 312 411 c 0
288 417 264 418 240 418 c 0
87 418 l 0
Z
Spiro
120 87 v
115 87 v
115 662 v
115 662 v
118 660 v
240 662 ]
363 540 c
240 418 [
86 418 v
86 422 v
240 422 ]
358 540 c
240 658 [
118 660 v
118 660 v
100 88 v
95 88 v
95 682 v
95 682 v
98 680 v
240 682 ]
383 540 c
240 398 [
87 398 v
87 402 v
240 402 ]
378 540 c
240 678 [
98 680 v
98 680 v
80 88 v
75 88 v
75 702 v
75 702 v
78 700 v
240 702 ]
403 540 c
240 378 [
87 378 v
87 382 v
240 382 ]
398 540 c
240 698 [
78 700 v
78 700 v
61 88 v
57 88 v
57 722 v
57 722 v
59 720 v
240 722 ]
423 540 c
240 358 [
87 358 v
87 362 v
240 362 ]
418 540 c
240 718 [
59 720 v
60 720 v
86 358 v
86 362 v
240 362 ]
363 240 c
240 118 [
86 118 v
86 122 v
240 122 ]
358 240 c
240 358 [
87 378 v
87 382 v
240 382 ]
383 240 c
240 98 [
87 98 v
87 102 v
240 102 ]
378 240 c
240 378 [
87 398 v
87 402 v
240 402 ]
403 240 c
240 78 [
87 78 v
87 82 v
240 82 ]
398 240 c
240 398 [
87 418 v
87 422 v
240 422 ]
423 240 c
240 58 [
87 58 v
87 62 v
240 62 ]
418 240 c
240 418 [
0 0 z
EndSpiro
EndSplineSet
        Fore
        SplineSet
119 57 m 0
114 57 l 0
114 602 l 0
114 602 l 0
117 600 l 0
210 602 l 0
222 602 235 602 248 599 c 0
260 596 272 589 281 580 c 0
290 571 296 560 300 548 c 0
304 535 305 522 305 510 c 0
304 497 303 484 299 472 c 0
296 460 289 448 280 439 c 0
271 430 260 424 247 421 c 0
235 418 222 417 210 418 c 0
56 418 l 0
56 422 l 0
210 422 l 0
222 422 234 422 246 425 c 0
257 428 268 434 277 442 c 0
286 451 292 462 295 474 c 0
299 485 300 497 300 510 c 0
299 522 298 534 295 545 c 0
291 557 285 567 276 576 c 0
268 584 257 590 245 594 c 0
234 597 222 597 210 598 c 0
117 600 l 0
117 600 l 0
119 57 l 0
Z
79 58 m 0
74 58 l 0
74 642 l 0
74 642 l 0
77 640 l 0
210 642 l 0
228 642 246 642 264 637 c 0
282 633 298 624 311 611 c 0
324 598 333 581 338 564 c 0
343 546 345 528 345 510 c 0
344 491 343 473 338 456 c 0
332 438 323 422 310 409 c 0
298 396 281 387 264 383 c 0
246 378 228 377 210 378 c 0
57 378 l 0
57 382 l 0
210 382 l 0
227 382 245 382 262 386 c 0
279 391 295 400 307 412 c 0
320 425 328 440 333 457 c 0
338 474 340 492 340 510 c 0
339 527 338 545 333 561 c 0
328 578 319 594 307 606 c 0
294 619 278 627 262 632 c 0
245 637 227 637 210 638 c 0
77 640 l 0
77 640 l 0
79 58 l 0
Z
39 58 m 0
34 58 l 0
34 682 l 0
34 682 l 0
37 680 l 0
210 682 l 0
233 682 257 682 280 676 c 0
303 670 325 658 341 641 c 0
358 624 370 603 376 580 c 0
383 557 385 533 385 510 c 0
384 486 382 462 376 439 c 0
369 417 357 395 341 379 c 0
324 362 303 350 280 344 c 0
257 338 233 337 210 338 c 0
57 338 l 0
57 342 l 0
210 342 l 0
233 342 256 342 278 348 c 0
300 354 321 365 337 382 c 0
354 398 365 419 371 441 c 0
378 463 380 486 380 510 c 0
379 532 377 556 371 578 c 0
364 600 353 620 337 637 c 0
321 653 300 664 278 670 c 0
256 677 232 677 210 678 c 0
37 680 l 0
37 680 l 0
39 58 l 0
Z
0 58 m 0
-5 58 l 0
-4 722 l 0
-4 722 l 0
-2 720 l 0
210 722 l 0
239 722 268 721 296 714 c 0
325 707 351 692 372 671 c 0
392 651 406 624 414 596 c 0
423 568 425 539 425 510 c 0
424 480 422 451 414 423 c 0
406 395 391 369 371 348 c 0
350 328 324 313 296 306 c 0
268 298 239 297 210 298 c 0
57 298 l 0
57 302 l 0
210 302 l 0
238 302 267 302 294 309 c 0
322 317 348 331 368 351 c 0
388 372 402 398 410 425 c 0
418 452 420 481 420 510 c 0
419 538 417 567 409 594 c 0
401 621 387 647 367 667 c 0
347 687 321 701 294 709 c 0
267 716 238 717 210 718 c 0
-2 720 l 0
-1 720 l 0
0 58 l 0
Z
56 298 m 0
56 302 l 0
210 302 l 0
222 302 235 301 247 298 c 0
260 295 271 289 280 280 c 0
289 271 296 259 300 247 c 0
303 235 305 222 305 210 c 0
305 197 303 184 300 172 c 0
296 160 289 148 280 139 c 0
271 130 260 124 247 121 c 0
235 118 222 117 210 118 c 0
56 118 l 0
56 122 l 0
210 122 l 0
222 122 234 122 246 125 c 0
257 128 268 134 277 142 c 0
285 151 292 162 295 174 c 0
298 185 300 197 300 210 c 0
300 222 298 234 295 245 c 0
292 257 285 268 277 277 c 0
268 285 257 291 246 294 c 0
234 297 222 298 210 298 c 0
56 298 l 0
Z
57 338 m 0
57 342 l 0
210 342 l 0
228 342 246 341 264 336 c 0
281 332 298 323 311 310 c 0
323 297 333 281 338 263 c 0
343 246 345 228 345 210 c 0
345 191 343 173 338 156 c 0
333 138 323 122 311 109 c 0
298 96 281 87 264 83 c 0
246 78 228 77 210 78 c 0
57 78 l 0
57 82 l 0
210 82 l 0
227 82 245 82 262 86 c 0
279 91 295 100 307 112 c 0
320 125 328 141 333 157 c 0
338 174 340 192 340 210 c 0
340 227 338 245 333 262 c 0
328 279 319 294 307 307 c 0
295 319 279 328 262 333 c 0
245 337 227 338 210 338 c 0
57 338 l 0
Z
57 378 m 0
57 382 l 0
210 382 l 0
233 382 257 381 280 375 c 0
303 369 324 357 341 340 c 0
357 324 369 302 376 280 c 0
383 257 385 233 385 210 c 0
384 186 383 162 376 139 c 0
369 117 357 95 341 79 c 0
324 62 303 50 280 44 c 0
257 38 233 37 210 38 c 0
57 38 l 0
57 42 l 0
210 42 l 0
233 42 256 42 278 48 c 0
300 54 321 65 337 82 c 0
354 98 365 119 371 141 c 0
378 163 380 186 380 210 c 0
380 233 378 256 371 278 c 0
365 300 354 321 337 337 c 0
321 354 300 365 278 371 c 0
256 377 233 378 210 378 c 0
57 378 l 0
Z
57 418 m 0
57 422 l 0
210 422 l 0
239 422 268 421 296 413 c 0
324 406 351 391 371 371 c 0
392 350 406 324 414 296 c 0
422 268 425 239 425 210 c 0
425 180 422 151 414 123 c 0
406 95 391 69 371 48 c 0
351 28 324 13 296 6 c 0
268 -1 239 -2 210 -2 c 0
57 -2 l 0
57 2 l 0
210 2 l 0
238 1 267 2 294 9 c 0
322 17 348 31 368 51 c 0
388 72 402 98 409 125 c 0
417 152 420 181 420 210 c 0
420 238 417 267 409 294 c 0
401 321 388 347 368 368 c 0
348 388 322 402 294 410 c 0
267 417 238 418 210 418 c 0
57 418 l 0
Z
Spiro
119 57 v
114 57 v
114 602 v
114 602 v
117 600 v
210 602 ]
305 510 c
210 418 [
56 418 v
56 422 v
210 422 ]
300 510 c
210 598 [
117 600 v
117 600 v
79 58 v
74 58 v
74 642 v
74 642 v
77 640 v
210 642 ]
345 510 c
210 378 [
57 378 v
57 382 v
210 382 ]
340 510 c
210 638 [
77 640 v
77 640 v
39 58 v
34 58 v
34 682 v
34 682 v
37 680 v
210 682 ]
385 510 c
210 338 [
57 338 v
57 342 v
210 342 ]
380 510 c
210 678 [
37 680 v
37 680 v
0 58 v
-5 58 v
-4 722 v
-4 722 v
-2 720 v
210 722 ]
425 510 c
210 298 [
57 298 v
57 302 v
210 302 ]
420 510 c
210 718 [
-2 720 v
-1 720 v
56 298 v
56 302 v
210 302 ]
305 210 c
210 118 [
56 118 v
56 122 v
210 122 ]
300 210 c
210 298 [
57 338 v
57 342 v
210 342 ]
345 210 c
210 78 [
57 78 v
57 82 v
210 82 ]
340 210 c
210 338 [
57 378 v
57 382 v
210 382 ]
385 210 c
210 38 [
57 38 v
57 42 v
210 42 ]
380 210 c
210 378 [
57 418 v
57 422 v
210 422 ]
425 210 c
210 -2 [
57 -2 v
57 2 v
210 2 ]
420 210 c
210 418 [
0 0 z
EndSpiro
EndSplineSet
        EndChar
StartChar: C
Encoding: 67 67 0
Width: 526
InSpiro: 1
        Flags: H
        LayerCount: 2
        Back
        SplineSet
419 594 m 0
414 594 l 0
406 633 382 669 349 692 c 0
316 715 274 724 235 717 c 0
201 710 171 693 146 670 c 0
122 647 104 618 91 587 c 0
66 525 63 456 63 389 c 0
62 321 65 252 91 190 c 0
104 159 122 130 146 107 c 0
171 84 201 67 235 61 c 0
274 53 317 62 350 85 c 0
383 108 406 145 414 185 c 0
419 185 l 0
411 144 386 107 352 83 c 0
318 60 274 51 234 59 c 0
200 65 169 82 145 105 c 0
120 129 101 158 88 189 c 0
62 252 58 322 59 390 c 0
59 457 62 527 88 589 c 0
101 620 120 650 145 673 c 0
169 696 200 713 234 720 c 0
274 727 318 718 352 695 c 0
386 672 411 634 419 594 c 0
Z
400 590 m 0
395 590 l 0
387 624 367 655 338 675 c 0
309 694 272 702 238 697 c 0
207 691 178 675 156 653 c 0
133 631 117 604 106 574 c 0
83 516 83 451 83 389 c 0
82 326 83 261 106 203 c 0
117 173 133 146 156 124 c 0
178 102 207 86 238 81 c 0
272 75 309 83 338 103 c 0
367 122 388 154 395 189 c 0
400 189 l 0
392 153 371 120 341 100 c 0
311 79 272 71 237 78 c 0
205 83 176 99 153 121 c 0
130 144 113 171 102 201 c 0
79 261 77 326 78 390 c 0
78 453 80 518 103 577 c 0
114 606 131 634 154 656 c 0
177 678 205 694 237 700 c 0
272 706 310 698 340 678 c 0
370 657 392 625 400 590 c 0
Z
380 585 m 0
375 585 l 0
368 614 351 641 326 658 c 0
301 675 270 682 241 678 c 0
212 673 185 658 164 637 c 0
144 616 129 590 120 562 c 0
101 507 103 447 103 389 c 0
102 330 101 270 120 215 c 0
129 187 144 161 164 140 c 0
185 119 212 104 241 100 c 0
270 95 302 102 326 120 c 0
351 137 369 164 375 194 c 0
380 194 l 0
373 163 355 135 329 117 c 0
303 99 270 92 240 97 c 0
210 101 183 117 162 138 c 0
141 159 126 185 116 213 c 0
97 269 97 330 98 390 c 0
98 449 97 509 117 565 c 0
127 592 142 619 163 640 c 0
183 661 210 676 240 681 c 0
270 685 303 678 329 660 c 0
354 643 373 615 380 585 c 0
Z
361 581 m 0
356 581 l 0
350 604 335 626 315 640 c 0
294 654 269 660 245 658 c 0
218 654 193 640 174 621 c 0
155 601 142 576 134 550 c 0
119 498 123 443 123 389 c 0
122 334 119 279 134 227 c 0
142 201 155 176 174 156 c 0
192 137 218 123 245 120 c 0
269 117 295 123 315 137 c 0
335 152 350 173 356 198 c 0
361 198 l 0
355 172 339 149 318 135 c 0
296 120 269 113 244 117 c 0
216 120 191 134 172 154 c 0
152 174 139 199 131 225 c 0
114 278 117 334 118 390 c 0
118 444 115 500 132 552 c 0
140 579 153 603 172 623 c 0
191 643 216 657 244 661 c 0
269 664 296 657 317 643 c 0
339 628 354 606 361 581 c 0
Z
Spiro
419 594 v
414 594 v
235 717 c
63 389 c
235 61 c
414 185 v
419 185 v
234 59 c
59 390 c
234 720 c
400 590 v
395 590 v
238 697 c
83 389 c
238 81 c
395 189 v
400 189 v
237 78 c
78 390 c
237 700 c
380 585 v
375 585 v
241 678 c
103 389 c
241 100 c
375 194 v
380 194 v
240 97 c
98 390 c
240 681 c
361 581 v
356 581 v
245 658 c
123 389 c
245 120 c
356 198 v
361 198 v
244 117 c
118 390 c
244 661 c
0 0 z
EndSpiro
EndSplineSet
        Fore
        SplineSet
417 571 m 0
412 571 l 0
403 618 376 661 336 688 c 0
297 715 246 726 200 717 c 0
163 709 130 691 103 666 c 0
75 641 55 609 40 576 c 0
10 508 5 432 5 359 c 0
4 285 10 209 40 141 c 0
55 108 75 76 103 51 c 0
130 26 163 8 200 1 c 0
247 -8 297 2 337 29 c 0
376 56 404 100 412 148 c 0
417 148 l 0
408 99 379 55 339 27 c 0
298 0 247 -10 199 -1 c 0
162 6 128 24 100 50 c 0
73 75 52 106 36 140 c 0
6 208 0 285 0 360 c 0
0 434 6 510 37 578 c 0
52 612 73 643 101 669 c 0
128 694 162 712 199 720 c 0
247 729 298 719 339 691 c 0
379 663 408 619 417 571 c 0
Z
378 562 m 0
373 562 l 0
366 598 344 632 313 653 c 0
282 674 243 683 207 677 c 0
175 671 145 654 122 632 c 0
98 609 81 581 70 550 c 0
46 490 45 423 45 359 c 0
44 294 46 227 69 167 c 0
81 136 98 108 122 85 c 0
145 63 175 46 207 41 c 0
243 34 283 43 313 64 c 0
344 86 366 120 373 157 c 0
378 157 l 0
370 118 348 83 316 61 c 0
284 39 244 31 206 38 c 0
173 43 143 60 119 83 c 0
96 106 78 134 66 165 c 0
42 226 39 294 40 360 c 0
40 425 42 492 66 553 c 0
79 583 96 612 120 634 c 0
144 657 173 674 206 680 c 0
243 686 284 678 316 656 c 0
348 634 370 599 378 562 c 0
Z
339 553 m 0
334 553 l 0
328 579 312 603 290 619 c 0
267 634 239 641 213 638 c 0
185 634 159 619 139 599 c 0
120 578 107 553 98 526 c 0
81 472 85 415 85 359 c 0
84 302 81 245 98 191 c 0
106 164 120 139 139 118 c 0
159 98 185 83 213 80 c 0
239 76 268 83 290 99 c 0
312 114 328 139 334 166 c 0
339 166 l 0
333 138 316 112 293 96 c 0
269 79 240 72 212 77 c 0
183 81 157 96 137 116 c 0
117 137 103 162 95 190 c 0
77 244 79 302 80 360 c 0
80 416 78 474 95 528 c 0
104 555 118 581 138 601 c 0
157 622 183 636 212 641 c 0
240 645 269 638 292 622 c 0
316 605 333 580 339 553 c 0
Z
300 544 m 0
295 544 l 0
290 559 280 574 266 583 c 0
253 593 236 598 220 598 c 0
195 597 173 584 157 567 c 0
141 549 131 526 126 502 c 0
116 455 125 407 125 359 c 0
124 310 116 262 126 215 c 0
131 191 140 168 157 150 c 0
173 133 195 120 220 120 c 0
236 119 253 124 266 134 c 0
280 144 290 158 295 175 c 0
300 175 l 0
295 157 284 142 269 131 c 0
255 121 236 116 219 117 c 0
194 118 171 130 155 148 c 0
138 167 128 190 123 213 c 0
112 261 119 311 120 360 c 0
120 408 112 457 123 504 c 0
129 528 139 551 155 569 c 0
172 587 194 599 219 601 c 0
236 601 254 596 269 586 c 0
283 576 294 561 300 544 c 0
Z
Spiro
417 571 v
412 571 v
200 717 c
5 359 c
200 1 c
412 148 v
417 148 v
199 -1 c
0 360 c
199 720 c
378 562 v
373 562 v
207 677 c
45 359 c
207 41 c
373 157 v
378 157 v
206 38 c
40 360 c
206 680 c
339 553 v
334 553 v
213 638 c
85 359 c
213 80 c
334 166 v
339 166 v
212 77 c
80 360 c
212 641 c
300 544 v
295 544 v
220 598 c
125 359 c
220 120 c
295 175 v
300 175 v
219 117 c
120 360 c
219 601 c
0 0 z
EndSpiro
EndSplineSet
        EndChar
StartChar: D
Encoding: 68 68 0
Width: 526
InSpiro: 1
        Flags: H
        LayerCount: 2
        Back
        SplineSet
115 118 m 0
115 122 l 0
117 120 l 0
115 662 l 0
115 662 l 0
118 660 l 0
240 662 l 0
256 662 274 662 290 658 c 0
306 654 322 646 334 634 c 0
346 622 354 606 358 590 c 0
362 574 363 556 363 540 c 0
363 240 l 0
363 223 362 206 358 189 c 0
354 173 346 157 334 146 c 0
322 134 306 126 290 122 c 0
273 118 256 117 240 118 c 0
115 118 l 0
Z
240 122 m 0
256 122 272 122 288 126 c 0
303 130 318 138 330 149 c 0
341 161 349 176 353 191 c 0
357 207 358 223 358 240 c 0
358 540 l 0
358 556 357 572 353 588 c 0
349 603 341 618 330 630 c 0
318 641 303 649 288 653 c 0
272 657 256 657 240 658 c 0
118 660 l 0
118 660 l 0
120 118 l 0
120 118 l 0
118 120 l 0
240 122 l 0
Z
95 98 m 0
95 102 l 0
97 100 l 0
95 682 l 0
95 682 l 0
98 680 l 0
240 682 l 0
259 682 279 682 298 677 c 0
317 673 335 663 349 649 c 0
363 635 373 617 377 598 c 0
382 579 383 559 383 540 c 0
383 240 l 0
383 220 382 200 377 181 c 0
373 162 363 144 349 130 c 0
335 116 317 107 298 102 c 0
279 98 259 97 240 98 c 0
95 98 l 0
Z
240 102 m 0
258 102 278 102 296 107 c 0
314 112 332 121 345 134 c 0
359 147 368 165 373 183 c 0
377 201 378 221 378 240 c 0
378 540 l 0
378 558 377 578 373 596 c 0
368 614 359 632 345 645 c 0
332 658 314 667 296 672 c 0
278 677 258 677 240 678 c 0
98 680 l 0
98 680 l 0
100 98 l 0
100 98 l 0
98 100 l 0
240 102 l 0
Z
75 78 m 0
75 82 l 0
77 80 l 0
75 702 l 0
75 702 l 0
78 700 l 0
240 702 l 0
262 702 285 702 306 696 c 0
328 691 349 680 365 665 c 0
381 649 391 628 397 606 c 0
402 585 403 562 403 540 c 0
403 240 l 0
403 217 402 194 397 173 c 0
391 151 380 131 364 115 c 0
349 99 328 89 306 83 c 0
284 78 262 77 240 78 c 0
75 78 l 0
Z
240 82 m 0
261 82 283 82 304 88 c 0
325 93 345 103 361 119 c 0
376 134 386 154 392 175 c 0
397 196 398 218 398 240 c 0
398 540 l 0
398 561 397 583 392 604 c 0
386 625 376 645 361 660 c 0
345 676 325 686 304 691 c 0
283 697 261 697 240 698 c 0
78 700 l 0
78 700 l 0
80 78 l 0
80 78 l 0
78 80 l 0
240 82 l 0
Z
57 58 m 0
57 62 l 0
59 60 l 0
57 722 l 0
57 722 l 0
59 720 l 0
240 722 l 0
265 722 290 722 315 716 c 0
339 710 362 698 380 680 c 0
398 662 410 639 416 615 c 0
422 590 423 565 423 540 c 0
423 240 l 0
423 214 422 189 416 165 c 0
410 140 398 117 380 99 c 0
362 82 339 70 314 64 c 0
290 58 265 57 240 58 c 0
57 58 l 0
Z
240 62 m 0
264 62 289 62 312 68 c 0
336 74 359 86 376 103 c 0
393 121 405 143 411 167 c 0
417 190 418 215 418 240 c 0
418 540 l 0
418 564 417 589 411 612 c 0
405 636 393 659 376 676 c 0
359 693 336 705 312 711 c 0
289 717 264 717 240 718 c 0
59 720 l 0
60 720 l 0
61 58 l 0
61 58 l 0
60 60 l 0
240 62 l 0
Z
Spiro
115 118 v
115 122 v
117 120 v
115 662 v
115 662 v
118 660 v
240 662 ]
363 540 [
363 240 ]
240 118 [
240 122 ]
358 240 [
358 540 ]
240 658 [
118 660 v
118 660 v
120 118 v
120 118 v
118 120 v
95 98 v
95 102 v
97 100 v
95 682 v
95 682 v
98 680 v
240 682 ]
383 540 [
383 240 ]
240 98 [
240 102 ]
378 240 [
378 540 ]
240 678 [
98 680 v
98 680 v
100 98 v
100 98 v
98 100 v
75 78 v
75 82 v
77 80 v
75 702 v
75 702 v
78 700 v
240 702 ]
403 540 [
403 240 ]
240 78 [
240 82 ]
398 240 [
398 540 ]
240 698 [
78 700 v
78 700 v
80 78 v
80 78 v
78 80 v
57 58 v
57 62 v
59 60 v
57 722 v
57 722 v
59 720 v
240 722 ]
423 540 [
423 240 ]
240 58 [
240 62 ]
418 240 [
418 540 ]
240 718 [
59 720 v
60 720 v
61 58 v
61 58 v
60 60 v
0 0 z
EndSpiro
EndSplineSet
        Fore
        SplineSet
114 118 m 0
114 122 l 0
116 120 l 0
114 602 l 0
114 602 l 0
117 600 l 0
210 602 l 0
222 602 236 602 248 599 c 0
261 596 273 590 282 581 c 0
291 572 298 561 301 548 c 0
304 536 305 522 305 510 c 0
305 210 l 0
305 197 304 184 301 171 c 0
298 159 291 147 282 138 c 0
272 129 260 123 248 121 c 0
235 118 222 117 210 118 c 0
114 118 l 0
Z
210 122 m 0
222 122 234 122 246 125 c 0
258 128 269 134 278 142 c 0
287 150 293 161 296 173 c 0
299 185 300 197 300 210 c 0
300 510 l 0
300 522 299 534 296 546 c 0
293 558 287 569 278 577 c 0
269 585 258 591 246 594 c 0
234 597 222 597 210 598 c 0
117 600 l 0
117 600 l 0
119 118 l 0
119 118 l 0
117 120 l 0
210 122 l 0
Z
74 78 m 0
74 82 l 0
76 80 l 0
74 642 l 0
74 642 l 0
77 640 l 0
210 642 l 0
228 642 247 642 265 638 c 0
283 633 300 625 313 612 c 0
326 599 335 582 340 564 c 0
344 547 345 528 345 510 c 0
345 210 l 0
345 191 344 173 340 155 c 0
335 137 326 120 313 107 c 0
299 95 282 86 264 82 c 0
246 78 228 77 210 78 c 0
74 78 l 0
Z
210 82 m 0
227 82 245 82 262 86 c 0
279 91 296 99 309 111 c 0
321 124 330 140 335 157 c 0
339 174 340 192 340 210 c 0
340 510 l 0
340 527 339 545 335 562 c 0
330 579 321 595 309 608 c 0
296 620 279 628 262 633 c 0
245 637 227 637 210 638 c 0
77 640 l 0
77 640 l 0
79 78 l 0
79 78 l 0
77 80 l 0
210 82 l 0
Z
34 38 m 0
34 42 l 0
36 40 l 0
34 682 l 0
34 682 l 0
37 680 l 0
210 682 l 0
233 682 258 682 281 676 c 0
304 671 326 660 344 643 c 0
361 626 372 604 378 581 c 0
384 558 385 533 385 510 c 0
385 210 l 0
385 186 384 161 378 138 c 0
372 115 360 93 343 77 c 0
326 60 304 49 281 43 c 0
258 38 233 37 210 38 c 0
34 38 l 0
Z
210 42 m 0
233 42 256 42 279 48 c 0
301 54 323 64 339 81 c 0
356 97 367 118 373 140 c 0
379 163 380 186 380 210 c 0
380 510 l 0
380 533 379 556 373 579 c 0
367 601 356 622 339 638 c 0
323 655 301 666 279 671 c 0
256 677 233 677 210 678 c 0
37 680 l 0
37 680 l 0
39 38 l 0
39 38 l 0
37 40 l 0
210 42 l 0
Z
-4 -2 m 0
-4 2 l 0
-2 0 l 0
-4 722 l 0
-4 722 l 0
-2 720 l 0
210 722 l 0
239 722 269 722 297 715 c 0
326 708 353 694 374 673 c 0
395 653 410 626 417 597 c 0
424 569 425 539 425 510 c 0
425 210 l 0
425 180 424 150 417 122 c 0
409 93 395 67 374 46 c 0
353 25 326 12 297 5 c 0
269 -1 239 -2 210 -2 c 0
-4 -2 l 0
Z
210 2 m 0
238 2 267 2 295 9 c 0
323 16 349 30 370 50 c 0
391 70 405 96 412 124 c 0
419 152 420 181 420 210 c 0
420 510 l 0
420 538 419 567 412 595 c 0
405 623 391 649 370 669 c 0
349 689 323 703 295 710 c 0
267 717 238 717 210 718 c 0
-2 720 l 0
-1 720 l 0
0 -2 l 0
0 -2 l 0
-1 0 l 0
210 2 l 0
Z
Spiro
114 118 v
114 122 v
116 120 v
114 602 v
114 602 v
117 600 v
210 602 ]
305 510 [
305 210 ]
210 118 [
210 122 ]
300 210 [
300 510 ]
210 598 [
117 600 v
117 600 v
119 118 v
119 118 v
117 120 v
74 78 v
74 82 v
76 80 v
74 642 v
74 642 v
77 640 v
210 642 ]
345 510 [
345 210 ]
210 78 [
210 82 ]
340 210 [
340 510 ]
210 638 [
77 640 v
77 640 v
79 78 v
79 78 v
77 80 v
34 38 v
34 42 v
36 40 v
34 682 v
34 682 v
37 680 v
210 682 ]
385 510 [
385 210 ]
210 38 [
210 42 ]
380 210 [
380 510 ]
210 678 [
37 680 v
37 680 v
39 38 v
39 38 v
37 40 v
-4 -2 v
-4 2 v
-2 0 v
-4 722 v
-4 722 v
-2 720 v
210 722 ]
425 510 [
425 210 ]
210 -2 [
210 2 ]
420 210 [
420 510 ]
210 718 [
-2 720 v
-1 720 v
0 -2 v
0 -2 v
-1 0 v
0 0 z
EndSpiro
EndSplineSet
        EndChar
StartChar: E
Encoding: 69 69 0
Width: 526
InSpiro: 1
        Flags: H
        LayerCount: 2
        Back
        SplineSet
392 722 m 0
392 718 l 0
63 718 l 0
63 62 l 0
392 62 l 0
392 58 l 0
59 58 l 0
59 58 l 0
59 722 l 0
59 722 l 0
392 722 l 0
Z
392 702 m 0
392 698 l 0
83 698 l 0
83 82 l 0
392 82 l 0
392 78 l 0
78 78 l 0
78 78 l 0
78 702 l 0
78 702 l 0
392 702 l 0
Z
392 682 m 0
392 678 l 0
103 678 l 0
103 102 l 0
392 102 l 0
392 98 l 0
98 98 l 0
98 98 l 0
98 682 l 0
98 682 l 0
392 682 l 0
Z
392 662 m 0
392 658 l 0
123 658 l 0
123 122 l 0
392 122 l 0
392 118 l 0
118 118 l 0
118 118 l 0
118 662 l 0
118 662 l 0
392 662 l 0
Z
86 358 m 0
86 362 l 0
392 362 l 0
392 358 l 0
86 358 l 0
Z
87 378 m 0
87 382 l 0
392 382 l 0
392 378 l 0
87 378 l 0
Z
87 398 m 0
87 402 l 0
392 402 l 0
392 398 l 0
87 398 l 0
Z
87 418 m 0
87 422 l 0
392 422 l 0
392 418 l 0
87 418 l 0
Z
Spiro
392 722 v
392 718 v
63 718 v
63 62 v
392 62 v
392 58 v
59 58 v
59 58 v
59 722 v
59 722 v
392 702 v
392 698 v
83 698 v
83 82 v
392 82 v
392 78 v
78 78 v
78 78 v
78 702 v
78 702 v
392 682 v
392 678 v
103 678 v
103 102 v
392 102 v
392 98 v
98 98 v
98 98 v
98 682 v
98 682 v
392 662 v
392 658 v
123 658 v
123 122 v
392 122 v
392 118 v
118 118 v
118 118 v
118 662 v
118 662 v
86 358 v
86 362 v
392 362 v
392 358 v
87 378 v
87 382 v
392 382 v
392 378 v
87 398 v
87 402 v
392 402 v
392 398 v
87 418 v
87 422 v
392 422 v
392 418 v
0 0 z
EndSpiro
EndSplineSet
        Fore
        SplineSet
362 722 m 0
362 718 l 0
4 718 l 0
4 2 l 0
362 2 l 0
362 -2 l 0
0 -2 l 0
0 -2 l 0
0 722 l 0
0 722 l 0
362 722 l 0
Z
362 682 m 0
362 678 l 0
44 678 l 0
44 42 l 0
362 42 l 0
362 38 l 0
39 38 l 0
39 38 l 0
39 682 l 0
39 682 l 0
362 682 l 0
Z
362 642 m 0
362 638 l 0
84 638 l 0
84 82 l 0
362 82 l 0
362 78 l 0
79 78 l 0
79 78 l 0
79 642 l 0
79 642 l 0
362 642 l 0
Z
362 602 m 0
362 598 l 0
124 598 l 0
124 122 l 0
362 122 l 0
362 118 l 0
119 118 l 0
119 118 l 0
119 602 l 0
119 602 l 0
362 602 l 0
Z
56 298 m 0
56 302 l 0
362 302 l 0
362 298 l 0
56 298 l 0
Z
57 338 m 0
57 342 l 0
362 342 l 0
362 338 l 0
57 338 l 0
Z
57 378 m 0
57 382 l 0
362 382 l 0
362 378 l 0
57 378 l 0
Z
57 418 m 0
57 422 l 0
362 422 l 0
362 418 l 0
57 418 l 0
Z
Spiro
362 722 v
362 718 v
4 718 v
4 2 v
362 2 v
362 -2 v
0 -2 v
0 -2 v
0 722 v
0 722 v
362 682 v
362 678 v
44 678 v
44 42 v
362 42 v
362 38 v
39 38 v
39 38 v
39 682 v
39 682 v
362 642 v
362 638 v
84 638 v
84 82 v
362 82 v
362 78 v
79 78 v
79 78 v
79 642 v
79 642 v
362 602 v
362 598 v
124 598 v
124 122 v
362 122 v
362 118 v
119 118 v
119 118 v
119 602 v
119 602 v
56 298 v
56 302 v
362 302 v
362 298 v
57 338 v
57 342 v
362 342 v
362 338 v
57 378 v
57 382 v
362 382 v
362 378 v
57 418 v
57 422 v
362 422 v
362 418 v
0 0 z
EndSpiro
EndSplineSet
        EndChar
StartChar: F
Encoding: 70 70 0
Width: 526
InSpiro: 1
        Flags: H
        LayerCount: 2
        Back
        SplineSet
392 722 m 0
392 718 l 0
63 718 l 0
63 88 l 0
59 88 l 0
59 722 l 0
59 722 l 0
392 722 l 0
Z
392 702 m 0
392 698 l 0
83 698 l 0
83 88 l 0
78 88 l 0
78 702 l 0
78 702 l 0
392 702 l 0
Z
392 682 m 0
392 678 l 0
103 678 l 0
103 88 l 0
98 88 l 0
98 682 l 0
98 682 l 0
392 682 l 0
Z
392 662 m 0
392 658 l 0
123 658 l 0
123 88 l 0
118 88 l 0
118 662 l 0
118 662 l 0
392 662 l 0
Z
86 358 m 0
86 362 l 0
292 362 l 0
292 358 l 0
86 358 l 0
Z
87 378 m 0
87 382 l 0
292 382 l 0
292 378 l 0
87 378 l 0
Z
87 398 m 0
87 402 l 0
292 402 l 0
292 398 l 0
87 398 l 0
Z
87 418 m 0
87 422 l 0
292 422 l 0
292 418 l 0
87 418 l 0
Z
Spiro
392 722 v
392 718 v
63 718 v
63 88 v
59 88 v
59 722 v
59 722 v
392 702 v
392 698 v
83 698 v
83 88 v
78 88 v
78 702 v
78 702 v
392 682 v
392 678 v
103 678 v
103 88 v
98 88 v
98 682 v
98 682 v
392 662 v
392 658 v
123 658 v
123 88 v
118 88 v
118 662 v
118 662 v
86 358 v
86 362 v
292 362 v
292 358 v
87 378 v
87 382 v
292 382 v
292 378 v
87 398 v
87 402 v
292 402 v
292 398 v
87 418 v
87 422 v
292 422 v
292 418 v
0 0 z
EndSpiro
EndSplineSet
        Fore
        SplineSet
362 722 m 0
362 718 l 0
4 718 l 0
5 58 l 0
0 58 l 0
0 722 l 0
0 722 l 0
362 722 l 0
Z
362 682 m 0
362 678 l 0
44 678 l 0
45 58 l 0
40 58 l 0
39 682 l 0
39 682 l 0
362 682 l 0
Z
362 642 m 0
362 638 l 0
84 638 l 0
85 58 l 0
80 58 l 0
79 642 l 0
79 642 l 0
362 642 l 0
Z
362 602 m 0
362 598 l 0
124 598 l 0
125 58 l 0
120 58 l 0
119 602 l 0
119 602 l 0
362 602 l 0
Z
56 298 m 0
56 302 l 0
262 302 l 0
262 298 l 0
56 298 l 0
Z
57 338 m 0
57 342 l 0
262 342 l 0
262 338 l 0
57 338 l 0
Z
57 378 m 0
57 382 l 0
262 382 l 0
262 378 l 0
57 378 l 0
Z
57 418 m 0
57 422 l 0
262 422 l 0
262 418 l 0
57 418 l 0
Z
Spiro
362 722 v
362 718 v
4 718 v
5 58 v
0 58 v
0 722 v
0 722 v
362 682 v
362 678 v
44 678 v
45 58 v
40 58 v
39 682 v
39 682 v
362 642 v
362 638 v
84 638 v
85 58 v
80 58 v
79 642 v
79 642 v
362 602 v
362 598 v
124 598 v
125 58 v
120 58 v
119 602 v
119 602 v
56 298 v
56 302 v
262 302 v
262 298 v
57 338 v
57 342 v
262 342 v
262 338 v
57 378 v
57 382 v
262 382 v
262 378 v
57 418 v
57 422 v
262 422 v
262 418 v
0 0 z
EndSpiro
EndSplineSet
        EndChar
StartChar: G
Encoding: 71 71 0
Width: 526
InSpiro: 1
        Flags: H
        LayerCount: 2
        Back
        SplineSet
419 594 m 0
414 594 l 0
406 633 382 669 349 692 c 0
316 714 274 723 235 717 c 0
201 711 170 694 146 671 c 0
121 648 103 619 90 588 c 0
64 525 61 456 63 389 c 0
64 322 69 255 94 194 c 0
107 163 125 135 148 111 c 0
172 88 201 69 233 61 c 0
257 54 283 53 308 59 c 0
333 65 356 78 373 97 c 0
391 115 402 139 408 164 c 0
414 188 415 214 415 240 c 0
415 418 l 0
237 418 l 0
237 422 l 0
420 422 l 0
420 422 l 0
420 240 l 0
420 213 419 187 413 162 c 0
407 136 395 112 376 93 c 0
358 74 335 61 309 55 c 0
284 50 257 51 232 59 c 0
200 68 171 86 147 110 c 0
124 133 106 162 93 192 c 0
66 253 60 321 59 388 c 0
57 456 60 526 86 589 c 0
100 621 119 650 144 673 c 0
169 696 200 713 234 720 c 0
274 727 318 718 352 694 c 0
386 671 410 634 419 594 c 0
Z
400 590 m 0
395 590 l 0
387 624 366 655 337 674 c 0
309 694 272 702 238 697 c 0
206 691 178 675 155 654 c 0
132 632 116 604 105 575 c 0
82 516 81 451 83 389 c 0
84 327 87 263 109 206 c 0
120 177 136 150 158 127 c 0
179 105 206 88 237 81 c 0
258 75 281 75 303 80 c 0
324 86 344 98 359 114 c 0
374 131 384 151 389 173 c 0
394 195 395 217 395 240 c 0
395 398 l 0
237 398 l 0
237 402 l 0
400 402 l 0
400 402 l 0
400 240 l 0
400 217 399 193 394 171 c 0
388 149 378 127 362 111 c 0
347 94 326 82 304 76 c 0
281 71 258 72 236 78 c 0
205 86 178 103 156 125 c 0
134 147 118 175 106 204 c 0
83 261 79 325 78 388 c 0
76 451 78 517 101 576 c 0
112 606 130 634 153 656 c 0
176 678 205 694 237 700 c 0
272 706 310 697 340 677 c 0
370 657 392 625 400 590 c 0
Z
380 585 m 0
375 585 l 0
368 614 350 640 326 657 c 0
301 675 270 682 241 678 c 0
212 673 185 658 164 638 c 0
143 617 129 591 119 563 c 0
100 508 102 448 103 390 c 0
103 331 103 272 123 217 c 0
132 189 147 163 167 142 c 0
187 121 213 105 242 100 c 0
260 96 280 96 298 102 c 0
316 107 333 118 345 132 c 0
358 147 366 164 370 183 c 0
374 201 375 220 375 240 c 0
375 378 l 0
237 378 l 0
237 382 l 0
380 382 l 0
380 382 l 0
380 240 l 0
380 220 379 200 375 181 c 0
370 162 362 143 348 128 c 0
335 114 318 103 299 98 c 0
280 92 260 92 241 97 c 0
212 103 186 119 166 140 c 0
145 161 130 187 120 215 c 0
100 270 99 330 98 389 c 0
96 448 96 509 116 565 c 0
125 593 141 619 162 640 c 0
183 661 210 676 240 681 c 0
270 685 303 678 328 660 c 0
354 643 373 615 380 585 c 0
Z
361 581 m 0
356 581 l 0
350 604 335 626 315 640 c 0
294 654 269 660 245 658 c 0
218 654 193 640 174 621 c 0
155 602 142 577 134 551 c 0
118 499 122 444 123 390 c 0
123 335 120 280 137 228 c 0
145 202 158 177 176 158 c 0
195 138 220 124 247 120 c 0
262 117 278 118 293 124 c 0
308 129 321 138 331 150 c 0
341 162 348 177 351 193 c 0
354 208 355 224 355 240 c 0
355 358 l 0
237 358 l 0
237 362 l 0
360 362 l 0
360 362 l 0
360 240 l 0
360 223 359 207 356 191 c 0
352 175 345 159 334 147 c 0
324 134 310 125 294 120 c 0
279 115 262 114 246 117 c 0
219 121 194 136 175 156 c 0
156 175 143 200 134 226 c 0
117 278 118 334 118 389 c 0
117 444 114 500 130 552 c 0
139 579 152 604 171 623 c 0
191 643 216 657 244 661 c 0
269 664 296 657 317 643 c 0
338 628 354 606 361 581 c 0
Z
Spiro
419 594 v
414 594 v
235 717 c
63 389 c
233 61 c
415 240 [
415 418 v
237 418 v
237 422 v
420 422 v
420 422 v
420 240 ]
232 59 c
59 388 c
234 720 c
400 590 v
395 590 v
238 697 c
83 389 c
237 81 c
395 240 [
395 398 v
237 398 v
237 402 v
400 402 v
400 402 v
400 240 ]
236 78 c
78 388 c
237 700 c
380 585 v
375 585 v
241 678 c
103 390 c
242 100 c
375 240 [
375 378 v
237 378 v
237 382 v
380 382 v
380 382 v
380 240 ]
241 97 c
98 389 c
240 681 c
361 581 v
356 581 v
245 658 c
123 390 c
247 120 c
355 240 [
355 358 v
237 358 v
237 362 v
360 362 v
360 362 v
360 240 ]
246 117 c
118 389 c
244 661 c
0 0 z
EndSpiro
EndSplineSet
        Fore
        SplineSet
417 571 m 0
412 571 l 0
403 617 375 661 336 688 c 0
297 715 246 725 200 717 c 0
163 710 129 691 102 666 c 0
74 641 53 610 38 576 c 0
8 508 3 432 5 358 c 0
6 285 14 212 44 146 c 0
59 114 79 83 104 57 c 0
130 32 161 12 196 2 c 0
224 -6 256 -9 285 -2 c 0
315 3 342 18 363 40 c 0
385 62 399 90 406 119 c 0
413 149 414 179 414 210 c 0
414 418 l 0
207 418 l 0
207 422 l 0
419 422 l 0
419 422 l 0
419 210 l 0
419 179 418 147 411 117 c 0
403 87 388 59 367 37 c 0
345 15 316 0 286 -5 c 0
256 -12 224 -9 195 0 c 0
160 11 129 31 103 56 c 0
77 81 57 112 41 145 c 0
11 211 2 284 0 357 c 0
-2 432 3 509 34 578 c 0
49 612 71 644 99 669 c 0
127 694 162 712 199 720 c 0
247 729 298 718 338 690 c 0
379 663 408 619 417 571 c 0
Z
378 562 m 0
373 562 l 0
365 598 344 632 313 653 c 0
282 674 243 683 207 677 c 0
174 671 145 655 121 632 c 0
98 610 80 581 68 551 c 0
45 490 43 424 45 359 c 0
46 295 49 229 73 170 c 0
84 140 101 112 123 89 c 0
146 66 174 49 205 41 c 0
227 34 252 34 275 40 c 0
298 46 319 58 335 76 c 0
352 93 362 115 368 139 c 0
373 162 374 186 374 210 c 0
374 378 l 0
207 378 l 0
207 382 l 0
379 382 l 0
379 382 l 0
379 210 l 0
379 185 378 160 372 136 c 0
367 113 356 90 339 72 c 0
322 54 300 41 276 36 c 0
252 30 227 31 204 38 c 0
172 46 144 64 122 87 c 0
99 110 82 138 70 168 c 0
46 227 41 293 40 358 c 0
38 424 40 491 65 553 c 0
77 583 95 612 119 635 c 0
143 657 173 674 206 680 c 0
243 686 284 677 316 656 c 0
347 634 370 599 378 562 c 0
Z
339 553 m 0
334 553 l 0
328 579 312 603 289 618 c 0
267 634 239 641 213 638 c 0
185 634 159 619 139 599 c 0
119 579 106 554 97 527 c 0
80 473 83 416 84 360 c 0
84 303 83 246 100 192 c 0
109 166 123 140 142 120 c 0
161 99 187 84 215 80 c 0
231 77 249 78 265 83 c 0
282 89 297 99 308 112 c 0
319 125 326 141 330 158 c 0
333 175 334 192 334 210 c 0
334 338 l 0
207 338 l 0
207 342 l 0
339 342 l 0
339 342 l 0
339 210 l 0
339 192 338 174 334 156 c 0
330 139 323 122 311 108 c 0
299 95 284 84 267 79 c 0
250 74 231 73 214 77 c 0
186 82 160 97 141 118 c 0
121 138 107 163 98 190 c 0
79 244 79 302 79 359 c 0
78 416 75 474 93 528 c 0
102 556 117 581 137 602 c 0
157 622 183 637 212 641 c 0
240 644 269 637 292 621 c 0
315 605 332 580 339 553 c 0
Z
300 544 m 0
295 544 l 0
290 559 280 574 266 583 c 0
253 593 236 598 220 598 c 0
196 597 173 585 157 567 c 0
141 549 131 527 126 503 c 0
116 457 124 408 124 361 c 0
123 311 115 261 126 213 c 0
131 189 141 165 159 147 c 0
176 130 200 118 225 119 c 0
235 119 246 121 256 126 c 0
265 131 273 139 279 148 c 0
286 156 289 167 291 177 c 0
293 188 294 199 294 210 c 0
294 298 l 0
207 298 l 0
207 302 l 0
299 302 l 0
299 302 l 0
299 210 l 0
299 198 298 187 296 175 c 0
294 164 290 153 283 144 c 0
276 135 267 127 257 122 c 0
246 118 235 115 224 116 c 0
199 116 175 128 158 146 c 0
141 164 130 187 124 211 c 0
112 259 119 310 119 360 c 0
118 408 111 457 122 505 c 0
128 528 138 551 155 569 c 0
171 587 194 599 219 601 c 0
236 601 254 596 269 586 c 0
283 576 294 561 300 544 c 0
Z
Spiro
417 571 v
412 571 v
200 717 c
5 358 c
196 2 c
414 210 [
414 418 v
207 418 v
207 422 v
419 422 v
419 422 v
419 210 ]
195 0 c
0 357 c
199 720 c
378 562 v
373 562 v
207 677 c
45 359 c
205 41 c
374 210 [
374 378 v
207 378 v
207 382 v
379 382 v
379 382 v
379 210 ]
204 38 c
40 358 c
206 680 c
339 553 v
334 553 v
213 638 c
84 360 c
215 80 c
334 210 [
334 338 v
207 338 v
207 342 v
339 342 v
339 342 v
339 210 ]
214 77 c
79 359 c
212 641 c
300 544 v
295 544 v
220 598 c
124 361 c
225 119 c
294 210 [
294 298 v
207 298 v
207 302 v
299 302 v
299 302 v
299 210 ]
224 116 c
119 360 c
219 601 c
0 0 z
EndSpiro
EndSplineSet
        EndChar
StartChar: H
Encoding: 72 72 0
Width: 526
InSpiro: 1
        Flags: H
        LayerCount: 2
        Back
        SplineSet
65 59 m 0
60 59 l 0
60 664 l 0
65 664 l 0
65 59 l 0
Z
64 60 m 0
60 60 l 0
60 664 l 0
64 664 l 0
64 60 l 0
Z
63 60 m 0
59 60 l 0
59 664 l 0
63 664 l 0
63 60 l 0
Z
62 60 m 0
58 60 l 0
58 664 l 0
62 664 l 0
62 60 l 0
Z
59 358 m 0
59 362 l 0
364 362 l 0
364 358 l 0
59 358 l 0
Z
60 359 m 0
60 363 l 0
364 363 l 0
364 359 l 0
60 359 l 0
Z
60 360 m 0
60 364 l 0
364 364 l 0
364 360 l 0
60 360 l 0
Z
60 362 m 0
60 366 l 0
364 366 l 0
364 362 l 0
60 362 l 0
Z
365 59 m 0
360 59 l 0
360 664 l 0
365 664 l 0
365 59 l 0
Z
364 60 m 0
359 60 l 0
359 664 l 0
364 664 l 0
364 60 l 0
Z
363 60 m 0
358 60 l 0
358 664 l 0
363 664 l 0
363 60 l 0
Z
361 60 m 0
356 60 l 0
356 664 l 0
361 664 l 0
361 60 l 0
Z
Spiro
65 59 v
60 59 v
60 664 v
65 664 v
64 60 v
60 60 v
60 664 v
64 664 v
63 60 v
59 60 v
59 664 v
63 664 v
62 60 v
58 60 v
58 664 v
62 664 v
59 358 v
59 362 v
364 362 v
364 358 v
60 359 v
60 363 v
364 363 v
364 359 v
60 360 v
60 364 v
364 364 v
364 360 v
60 362 v
60 366 v
364 366 v
364 362 v
365 59 v
360 59 v
360 664 v
365 664 v
364 60 v
359 60 v
359 664 v
364 664 v
363 60 v
358 60 v
358 664 v
363 664 v
361 60 v
356 60 v
356 664 v
361 664 v
0 0 z
EndSpiro
EndSplineSet
        Fore
        SplineSet
119 57 m 0
114 57 l 0
114 662 l 0
119 662 l 0
119 57 l 0
Z
79 58 m 0
74 58 l 0
74 662 l 0
79 662 l 0
79 58 l 0
Z
39 58 m 0
34 58 l 0
34 662 l 0
39 662 l 0
39 58 l 0
Z
0 58 m 0
-5 58 l 0
-5 662 l 0
0 662 l 0
0 58 l 0
Z
57 298 m 0
57 302 l 0
362 302 l 0
362 298 l 0
57 298 l 0
Z
57 338 m 0
57 342 l 0
362 342 l 0
362 338 l 0
57 338 l 0
Z
57 378 m 0
57 382 l 0
362 382 l 0
362 378 l 0
57 378 l 0
Z
57 418 m 0
57 422 l 0
362 422 l 0
362 418 l 0
57 418 l 0
Z
419 57 m 0
414 57 l 0
414 662 l 0
419 662 l 0
419 57 l 0
Z
379 58 m 0
374 58 l 0
374 662 l 0
379 662 l 0
379 58 l 0
Z
339 58 m 0
334 58 l 0
334 662 l 0
339 662 l 0
339 58 l 0
Z
299 58 m 0
294 58 l 0
294 662 l 0
299 662 l 0
299 58 l 0
Z
Spiro
119 57 v
114 57 v
114 662 v
119 662 v
79 58 v
74 58 v
74 662 v
79 662 v
39 58 v
34 58 v
34 662 v
39 662 v
0 58 v
-5 58 v
-5 662 v
0 662 v
57 298 v
57 302 v
362 302 v
362 298 v
57 338 v
57 342 v
362 342 v
362 338 v
57 378 v
57 382 v
362 382 v
362 378 v
57 418 v
57 422 v
362 422 v
362 418 v
419 57 v
414 57 v
414 662 v
419 662 v
379 58 v
374 58 v
374 662 v
379 662 v
339 58 v
334 58 v
334 662 v
339 662 v
299 58 v
294 58 v
294 662 v
299 662 v
0 0 z
EndSpiro
EndSplineSet
        EndChar
StartChar: I
Encoding: 73 73 0
Width: 226
InSpiro: 1
        Flags: H
        LayerCount: 2
        Back
        SplineSet
59 692 m 0
63 692 l 0
63 88 l 0
59 88 l 0
59 692 l 0
Z
78 692 m 0
83 692 l 0
83 88 l 0
78 88 l 0
78 692 l 0
Z
98 692 m 0
103 692 l 0
103 88 l 0
98 88 l 0
98 692 l 0
Z
118 692 m 0
123 692 l 0
123 88 l 0
118 88 l 0
118 692 l 0
Z
Spiro
59 692 v
63 692 v
63 88 v
59 88 v
78 692 v
83 692 v
83 88 v
78 88 v
98 692 v
103 692 v
103 88 v
98 88 v
118 692 v
123 692 v
123 88 v
118 88 v
0 0 z
EndSpiro
EndSplineSet
        Fore
        SplineSet
0 662 m 0
5 662 l 0
5 58 l 0
0 58 l 0
0 662 l 0
Z
40 662 m 0
45 662 l 0
45 58 l 0
40 58 l 0
40 662 l 0
Z
80 662 m 0
85 662 l 0
85 58 l 0
80 58 l 0
80 662 l 0
Z
120 662 m 0
125 662 l 0
125 58 l 0
120 58 l 0
120 662 l 0
Z
Spiro
0 662 v
5 662 v
5 58 v
0 58 v
40 662 v
45 662 v
45 58 v
40 58 v
80 662 v
85 662 v
85 58 v
80 58 v
120 662 v
125 662 v
125 58 v
120 58 v
0 0 z
EndSpiro
EndSplineSet
        EndChar
StartChar: J
Encoding: 74 74 0
Width: 526
InSpiro: 1
        Flags: H
        LayerCount: 2
        Back
        SplineSet
59 658 m 0
59 662 l 0
360 660 l 0
362 662 l 0
362 662 l 0
362 362 l 0
361 300 361 237 340 180 c 0
329 151 313 124 291 103 c 0
269 81 241 65 211 61 c 0
177 55 142 63 114 82 c 0
87 101 67 131 60 164 c 0
65 164 l 0
71 132 90 103 117 84 c 0
143 66 177 58 210 64 c 0
239 68 267 84 288 106 c 0
309 127 325 154 335 182 c 0
356 239 356 301 357 362 c 0
359 660 l 0
360 660 l 0
59 658 l 0
Z
60 659 m 0
60 663 l 0
361 661 l 0
363 663 l 0
363 663 l 0
363 362 l 0
362 300 362 237 340 179 c 0
330 150 313 123 291 101 c 0
269 80 241 64 211 60 c 0
177 54 142 62 114 81 c 0
86 100 66 130 60 164 c 0
64 164 l 0
70 131 89 102 116 83 c 0
143 65 177 57 210 63 c 0
239 67 267 83 289 105 c 0
310 126 326 153 336 182 c 0
357 239 357 301 358 362 c 0
360 661 l 0
361 661 l 0
60 659 l 0
Z
60 660 m 0
60 664 l 0
362 662 l 0
364 664 l 0
364 664 l 0
364 362 l 0
363 300 363 237 341 179 c 0
330 150 314 123 292 102 c 0
270 80 242 65 212 60 c 0
178 54 143 62 115 81 c 0
86 99 66 129 59 163 c 0
63 163 l 0
69 130 89 101 116 82 c 0
143 63 178 56 211 62 c 0
240 67 268 83 290 104 c 0
311 126 326 153 337 181 c 0
358 238 358 301 359 362 c 0
361 662 l 0
362 662 l 0
60 660 l 0
Z
60 662 m 0
60 666 l 0
364 664 l 0
366 666 l 0
366 666 l 0
366 362 l 0
365 300 365 236 343 178 c 0
332 149 315 122 293 100 c 0
271 79 242 63 212 59 c 0
178 53 142 61 114 80 c 0
86 99 65 129 58 163 c 0
62 163 l 0
68 130 88 100 115 81 c 0
143 63 178 55 211 61 c 0
241 66 269 81 290 103 c 0
312 124 328 152 338 180 c 0
360 238 360 300 361 362 c 0
363 664 l 0
364 664 l 0
60 662 l 0
Z
Spiro
59 658 v
59 662 v
360 660 v
362 662 v
362 662 v
362 362 ]
211 61 c
60 164 v
65 164 v
210 64 c
357 362 [
359 660 v
360 660 v
60 659 v
60 663 v
361 661 v
363 663 v
363 663 v
363 362 ]
211 60 c
60 164 v
64 164 v
210 63 c
358 362 [
360 661 v
361 661 v
60 660 v
60 664 v
362 662 v
364 664 v
364 664 v
364 362 ]
212 60 c
59 163 v
63 163 v
211 62 c
359 362 [
361 662 v
362 662 v
60 662 v
60 666 v
364 664 v
366 666 v
366 666 v
366 362 ]
212 59 c
58 163 v
62 163 v
211 61 c
361 362 [
363 664 v
364 664 v
0 0 z
EndSpiro
EndSplineSet
        Fore
        SplineSet
57 598 m 0
57 602 l 0
302 600 l 0
304 602 l 0
304 602 l 0
305 360 l 0
305 311 306 262 294 215 c 0
288 192 277 169 261 151 c 0
245 133 224 119 200 117 c 0
181 114 161 119 145 129 c 0
129 140 117 156 112 175 c 0
117 175 l 0
121 157 133 142 147 132 c 0
162 122 181 118 199 120 c 0
222 122 243 136 259 154 c 0
274 172 284 194 289 217 c 0
301 263 299 311 300 359 c 0
301 600 l 0
302 600 l 0
57 598 l 0
Z
57 638 m 0
57 642 l 0
342 640 l 0
344 642 l 0
344 642 l 0
345 360 l 0
345 302 345 243 326 189 c 0
316 162 302 137 281 116 c 0
261 96 235 81 207 77 c 0
177 72 147 79 122 95 c 0
98 111 80 137 73 166 c 0
78 166 l 0
84 138 101 113 125 97 c 0
148 82 178 75 206 80 c 0
233 84 259 99 279 119 c 0
298 139 312 165 321 191 c 0
339 245 339 302 340 359 c 0
341 640 l 0
342 640 l 0
57 638 l 0
Z
57 678 m 0
57 682 l 0
382 680 l 0
384 682 l 0
384 682 l 0
385 360 l 0
385 293 384 224 358 163 c 0
345 132 326 103 301 81 c 0
276 59 245 43 213 38 c 0
174 31 132 40 100 62 c 0
67 84 43 118 34 157 c 0
39 157 l 0
47 119 70 86 102 64 c 0
134 43 174 34 212 41 c 0
244 46 274 62 298 84 c 0
322 106 341 134 353 165 c 0
378 225 379 293 380 359 c 0
381 680 l 0
382 680 l 0
57 678 l 0
Z
57 718 m 0
57 722 l 0
422 720 l 0
424 722 l 0
424 722 l 0
425 360 l 0
425 283 422 205 390 136 c 0
374 101 351 70 322 46 c 0
293 21 257 4 220 -1 c 0
171 -8 120 2 79 29 c 0
38 57 8 100 -3 148 c 0
1 148 l 0
11 100 40 58 80 31 c 0
120 4 171 -6 219 1 c 0
256 7 291 24 319 48 c 0
348 72 370 103 386 138 c 0
417 206 419 283 420 359 c 0
421 720 l 0
422 720 l 0
57 718 l 0
Z
Spiro
57 598 v
57 602 v
302 600 v
304 602 v
304 602 v
305 360 ]
200 117 c
112 175 v
117 175 v
199 120 c
300 359 [
301 600 v
302 600 v
57 638 v
57 642 v
342 640 v
344 642 v
344 642 v
345 360 ]
207 77 c
73 166 v
78 166 v
206 80 c
340 359 [
341 640 v
342 640 v
57 678 v
57 682 v
382 680 v
384 682 v
384 682 v
385 360 ]
213 38 c
34 157 v
39 157 v
212 41 c
380 359 [
381 680 v
382 680 v
57 718 v
57 722 v
422 720 v
424 722 v
424 722 v
425 360 ]
220 -1 c
-3 148 v
1 148 v
219 1 c
420 359 [
421 720 v
422 720 v
0 0 z
EndSpiro
EndSplineSet
        EndChar
StartChar: K
Encoding: 75 75 0
Width: 526
InSpiro: 1
        Flags: H
        LayerCount: 2
        Back
        SplineSet
357 665 m 0
362 665 l 0
62 361 l 0
62 60 l 0
58 60 l 0
58 364 l 0
58 360 l 0
357 665 l 0
Z
358 664 m 0
363 664 l 0
63 361 l 0
63 60 l 0
59 60 l 0
59 364 l 0
59 364 l 0
358 664 l 0
Z
359 663 m 0
364 663 l 0
64 360 l 0
64 60 l 0
60 60 l 0
60 363 l 0
60 363 l 0
359 663 l 0
Z
360 662 m 0
365 662 l 0
66 360 l 0
66 60 l 0
61 60 l 0
61 363 l 0
61 363 l 0
360 662 l 0
Z
58 664 m 0
62 664 l 0
62 361 l 0
362 58 l 0
357 58 l 0
58 363 l 0
58 359 l 0
58 664 l 0
Z
59 664 m 0
63 664 l 0
63 361 l 0
363 59 l 0
358 59 l 0
59 359 l 0
59 359 l 0
59 664 l 0
Z
60 664 m 0
64 664 l 0
64 362 l 0
364 60 l 0
359 60 l 0
60 360 l 0
60 360 l 0
60 664 l 0
Z
61 664 m 0
66 664 l 0
66 362 l 0
365 60 l 0
360 60 l 0
61 360 l 0
61 360 l 0
61 664 l 0
Z
Spiro
357 665 v
362 665 v
62 361 v
62 60 v
58 60 v
58 364 v
58 360 v
358 664 v
363 664 v
63 361 v
63 60 v
59 60 v
59 364 v
59 364 v
359 663 v
364 663 v
64 360 v
64 60 v
60 60 v
60 363 v
60 363 v
360 662 v
365 662 v
66 360 v
66 60 v
61 60 v
61 363 v
61 363 v
58 664 v
62 664 v
62 361 v
362 58 v
357 58 v
58 363 v
58 359 v
59 664 v
63 664 v
63 361 v
363 59 v
358 59 v
59 359 v
59 359 v
60 664 v
64 664 v
64 362 v
364 60 v
359 60 v
60 360 v
60 360 v
61 664 v
66 664 v
66 362 v
365 60 v
360 60 v
61 360 v
61 360 v
0 0 z
EndSpiro
EndSplineSet
        Fore
        SplineSet
316 704 m 0
321 704 l 0
4 383 l 0
5 58 l 0
0 58 l 0
0 386 l 0
0 382 l 0
316 704 l 0
Z
344 676 m 0
349 676 l 0
44 367 l 0
45 58 l 0
40 58 l 0
39 370 l 0
39 366 l 0
344 676 l 0
Z
373 647 m 0
378 647 l 0
84 350 l 0
85 58 l 0
80 58 l 0
79 353 l 0
79 353 l 0
373 647 l 0
Z
401 619 m 0
406 619 l 0
124 334 l 0
125 58 l 0
120 58 l 0
119 337 l 0
119 337 l 0
401 619 l 0
Z
0 662 m 0
5 662 l 0
4 335 l 0
321 15 l 0
316 15 l 0
0 337 l 0
0 333 l 0
0 662 l 0
Z
40 662 m 0
45 662 l 0
44 351 l 0
349 43 l 0
344 43 l 0
39 353 l 0
39 349 l 0
40 662 l 0
Z
80 662 m 0
85 662 l 0
84 368 l 0
378 72 l 0
373 72 l 0
79 366 l 0
79 366 l 0
80 662 l 0
Z
120 662 m 0
125 662 l 0
124 384 l 0
406 100 l 0
401 100 l 0
119 382 l 0
119 382 l 0
120 662 l 0
Z
Spiro
316 704 v
321 704 v
4 383 v
5 58 v
0 58 v
0 386 v
0 382 v
344 676 v
349 676 v
44 367 v
45 58 v
40 58 v
39 370 v
39 366 v
373 647 v
378 647 v
84 350 v
85 58 v
80 58 v
79 353 v
79 353 v
401 619 v
406 619 v
124 334 v
125 58 v
120 58 v
119 337 v
119 337 v
0 662 v
5 662 v
4 335 v
321 15 v
316 15 v
0 337 v
0 333 v
40 662 v
45 662 v
44 351 v
349 43 v
344 43 v
39 353 v
39 349 v
80 662 v
85 662 v
84 368 v
378 72 v
373 72 v
79 366 v
79 366 v
120 662 v
125 662 v
124 384 v
406 100 v
401 100 v
119 382 v
119 382 v
0 0 z
EndSpiro
EndSplineSet
        EndChar
StartChar: L
Encoding: 76 76 0
Width: 526
InSpiro: 1
        Flags: H
        LayerCount: 2
        Back
        SplineSet
59 692 m 0
63 692 l 0
63 62 l 0
392 62 l 0
392 58 l 0
59 58 l 0
59 58 l 0
59 692 l 0
Z
78 692 m 0
83 692 l 0
83 82 l 0
392 82 l 0
392 78 l 0
78 78 l 0
78 78 l 0
78 692 l 0
Z
98 692 m 0
103 692 l 0
103 102 l 0
392 102 l 0
392 98 l 0
98 98 l 0
98 98 l 0
98 692 l 0
Z
118 692 m 0
123 692 l 0
123 122 l 0
392 122 l 0
392 118 l 0
118 118 l 0
118 118 l 0
118 692 l 0
Z
Spiro
59 692 v
63 692 v
63 62 v
392 62 v
392 58 v
59 58 v
59 58 v
78 692 v
83 692 v
83 82 v
392 82 v
392 78 v
78 78 v
78 78 v
98 692 v
103 692 v
103 102 v
392 102 v
392 98 v
98 98 v
98 98 v
118 692 v
123 692 v
123 122 v
392 122 v
392 118 v
118 118 v
118 118 v
0 0 z
EndSpiro
EndSplineSet
        Fore
        SplineSet
0 662 m 0
5 662 l 0
4 2 l 0
362 2 l 0
362 -2 l 0
0 -2 l 0
0 -2 l 0
0 662 l 0
Z
40 662 m 0
45 662 l 0
44 42 l 0
362 42 l 0
362 38 l 0
39 38 l 0
39 38 l 0
40 662 l 0
Z
80 662 m 0
85 662 l 0
84 82 l 0
362 82 l 0
362 78 l 0
79 78 l 0
79 78 l 0
80 662 l 0
Z
120 662 m 0
125 662 l 0
124 122 l 0
362 122 l 0
362 118 l 0
119 118 l 0
119 118 l 0
120 662 l 0
Z
Spiro
0 662 v
5 662 v
4 2 v
362 2 v
362 -2 v
0 -2 v
0 -2 v
40 662 v
45 662 v
44 42 v
362 42 v
362 38 v
39 38 v
39 38 v
80 662 v
85 662 v
84 82 v
362 82 v
362 78 v
79 78 v
79 78 v
120 662 v
125 662 v
124 122 v
362 122 v
362 118 v
119 118 v
119 118 v
0 0 z
EndSpiro
EndSplineSet
        EndChar
StartChar: M
Encoding: 77 77 0
Width: 676
InSpiro: 1
        Flags: H
        LayerCount: 2
        Back
        SplineSet
120 87 m 0
115 87 l 0
115 658 l 0
64 658 l 0
314 11 l 0
565 658 l 0
513 658 l 0
513 88 l 0
508 88 l 0
508 662 l 0
508 662 l 0
570 662 l 0
570 662 l 0
317 3 l 0
312 3 l 0
59 662 l 0
59 662 l 0
120 662 l 0
120 662 l 0
120 87 l 0
Z
100 88 m 0
95 88 l 0
95 678 l 0
83 678 l 0
314 66 l 0
545 678 l 0
533 678 l 0
533 88 l 0
528 88 l 0
528 682 l 0
528 682 l 0
550 682 l 0
550 682 l 0
317 59 l 0
312 59 l 0
78 682 l 0
78 682 l 0
100 682 l 0
100 682 l 0
100 88 l 0
Z
80 88 m 0
75 88 l 0
75 702 l 0
75 702 l 0
103 702 l 0
103 702 l 0
314 123 l 0
525 702 l 0
525 702 l 0
553 702 l 0
553 702 l 0
553 88 l 0
548 88 l 0
548 698 l 0
529 698 l 0
317 116 l 0
312 116 l 0
99 698 l 0
80 698 l 0
80 88 l 0
Z
61 88 m 0
57 88 l 0
57 722 l 0
57 722 l 0
123 722 l 0
123 722 l 0
314 180 l 0
505 722 l 0
505 722 l 0
573 722 l 0
573 722 l 0
573 88 l 0
568 88 l 0
568 718 l 0
509 718 l 0
317 173 l 0
312 173 l 0
119 718 l 0
61 718 l 0
61 88 l 0
Z
Spiro
120 87 v
115 87 v
115 658 v
64 658 v
314 11 v
565 658 v
513 658 v
513 88 v
508 88 v
508 662 v
508 662 v
570 662 v
570 662 v
317 3 v
312 3 v
59 662 v
59 662 v
120 662 v
120 662 v
100 88 v
95 88 v
95 678 v
83 678 v
314 66 v
545 678 v
533 678 v
533 88 v
528 88 v
528 682 v
528 682 v
550 682 v
550 682 v
317 59 v
312 59 v
78 682 v
78 682 v
100 682 v
100 682 v
80 88 v
75 88 v
75 702 v
75 702 v
103 702 v
103 702 v
314 123 v
525 702 v
525 702 v
553 702 v
553 702 v
553 88 v
548 88 v
548 698 v
529 698 v
317 116 v
312 116 v
99 698 v
80 698 v
61 88 v
57 88 v
57 722 v
57 722 v
123 722 v
123 722 v
314 180 v
505 722 v
505 722 v
573 722 v
573 722 v
573 88 v
568 88 v
568 718 v
509 718 v
317 173 v
312 173 v
119 718 v
61 718 v
0 0 z
EndSpiro
EndSplineSet
        Fore
        SplineSet
119 57 m 0
114 57 l 0
114 598 l 0
5 598 l 0
284 -104 l 0
563 598 l 0
454 598 l 0
455 58 l 0
450 58 l 0
449 602 l 0
449 602 l 0
569 602 l 0
569 602 l 0
287 -112 l 0
282 -112 l 0
0 602 l 0
0 602 l 0
119 602 l 0
119 602 l 0
119 57 l 0
Z
79 58 m 0
74 58 l 0
74 638 l 0
44 638 l 0
284 8 l 0
524 638 l 0
494 638 l 0
495 58 l 0
490 58 l 0
489 642 l 0
489 642 l 0
529 642 l 0
529 642 l 0
287 0 l 0
282 1 l 0
39 642 l 0
39 642 l 0
79 642 l 0
79 642 l 0
79 58 l 0
Z
39 58 m 0
34 58 l 0
34 682 l 0
34 682 l 0
84 682 l 0
84 682 l 0
284 121 l 0
484 682 l 0
484 682 l 0
534 682 l 0
534 682 l 0
535 58 l 0
530 58 l 0
529 678 l 0
488 678 l 0
287 114 l 0
282 114 l 0
80 678 l 0
39 678 l 0
39 58 l 0
Z
0 58 m 0
-5 58 l 0
-4 722 l 0
-4 722 l 0
124 722 l 0
124 722 l 0
284 236 l 0
444 722 l 0
444 722 l 0
574 722 l 0
574 722 l 0
575 58 l 0
570 58 l 0
569 718 l 0
448 718 l 0
287 228 l 0
282 228 l 0
120 718 l 0
0 718 l 0
0 58 l 0
Z
Spiro
119 57 v
114 57 v
114 598 v
5 598 v
284 -104 v
563 598 v
454 598 v
455 58 v
450 58 v
449 602 v
449 602 v
569 602 v
569 602 v
287 -112 v
282 -112 v
0 602 v
0 602 v
119 602 v
119 602 v
79 58 v
74 58 v
74 638 v
44 638 v
284 8 v
524 638 v
494 638 v
495 58 v
490 58 v
489 642 v
489 642 v
529 642 v
529 642 v
287 0 v
282 1 v
39 642 v
39 642 v
79 642 v
79 642 v
39 58 v
34 58 v
34 682 v
34 682 v
84 682 v
84 682 v
284 121 v
484 682 v
484 682 v
534 682 v
534 682 v
535 58 v
530 58 v
529 678 v
488 678 v
287 114 v
282 114 v
80 678 v
39 678 v
0 58 v
-5 58 v
-4 722 v
-4 722 v
124 722 v
124 722 v
284 236 v
444 722 v
444 722 v
574 722 v
574 722 v
575 58 v
570 58 v
569 718 v
448 718 v
287 228 v
282 228 v
120 718 v
0 718 v
0 0 z
EndSpiro
EndSplineSet
        EndChar
StartChar: N
Encoding: 78 78 0
Width: 526
InSpiro: 1
        Flags: H
        LayerCount: 2
        Back
        SplineSet
65 59 m 0
60 59 l 0
60 658 l 0
62 658 l 0
360 62 l 0
360 664 l 0
365 664 l 0
365 52 l 0
360 52 l 0
58 662 l 0
58 662 l 0
65 662 l 0
65 662 l 0
65 59 l 0
Z
64 60 m 0
60 60 l 0
61 660 l 0
61 660 l 0
359 68 l 0
359 664 l 0
364 664 l 0
364 58 l 0
359 58 l 0
59 663 l 0
59 663 l 0
64 663 l 0
64 663 l 0
64 60 l 0
Z
63 60 m 0
59 60 l 0
59 664 l 0
59 664 l 0
64 664 l 0
64 664 l 0
358 72 l 0
358 664 l 0
363 664 l 0
363 61 l 0
358 62 l 0
61 661 l 0
61 661 l 0
63 60 l 0
Z
62 60 m 0
58 60 l 0
58 666 l 0
58 666 l 0
66 666 l 0
66 666 l 0
356 78 l 0
356 664 l 0
361 664 l 0
361 68 l 0
356 68 l 0
62 662 l 0
62 662 l 0
62 60 l 0
Z
Spiro
65 59 v
60 59 v
60 658 v
62 658 v
360 62 v
360 664 v
365 664 v
365 52 v
360 52 v
58 662 v
58 662 v
65 662 v
65 662 v
64 60 v
60 60 v
61 660 v
61 660 v
359 68 v
359 664 v
364 664 v
364 58 v
359 58 v
59 663 v
59 663 v
64 663 v
64 663 v
63 60 v
59 60 v
59 664 v
59 664 v
64 664 v
64 664 v
358 72 v
358 664 v
363 664 v
363 61 v
358 62 v
61 661 v
61 661 v
62 60 v
58 60 v
58 666 v
58 666 v
66 666 v
66 666 v
356 78 v
356 664 v
361 664 v
361 68 v
356 68 v
62 662 v
62 662 v
0 0 z
EndSpiro
EndSplineSet
        Fore
        SplineSet
119 57 m 0
114 57 l 0
114 598 l 0
5 598 l 0
416 -185 l 0
414 662 l 0
419 662 l 0
421 -196 l 0
416 -196 l 0
0 602 l 0
0 602 l 0
119 602 l 0
119 602 l 0
119 57 l 0
Z
79 58 m 0
74 58 l 0
74 638 l 0
45 638 l 0
376 -15 l 0
374 662 l 0
379 662 l 0
381 -26 l 0
376 -26 l 0
39 642 l 0
39 642 l 0
79 642 l 0
79 642 l 0
79 58 l 0
Z
39 58 m 0
34 58 l 0
34 682 l 0
34 682 l 0
84 682 l 0
84 682 l 0
336 152 l 0
334 662 l 0
339 662 l 0
341 142 l 0
336 142 l 0
80 678 l 0
39 678 l 0
39 58 l 0
Z
0 58 m 0
-5 58 l 0
-4 722 l 0
-4 722 l 0
124 722 l 0
124 722 l 0
296 323 l 0
294 662 l 0
299 662 l 0
301 312 l 0
296 312 l 0
120 718 l 0
0 718 l 0
0 58 l 0
Z
Spiro
119 57 v
114 57 v
114 598 v
5 598 v
416 -185 v
414 662 v
419 662 v
421 -196 v
416 -196 v
0 602 v
0 602 v
119 602 v
119 602 v
79 58 v
74 58 v
74 638 v
45 638 v
376 -15 v
374 662 v
379 662 v
381 -26 v
376 -26 v
39 642 v
39 642 v
79 642 v
79 642 v
39 58 v
34 58 v
34 682 v
34 682 v
84 682 v
84 682 v
336 152 v
334 662 v
339 662 v
341 142 v
336 142 v
80 678 v
39 678 v
0 58 v
-5 58 v
-4 722 v
-4 722 v
124 722 v
124 722 v
296 323 v
294 662 v
299 662 v
301 312 v
296 312 v
120 718 v
0 718 v
0 0 z
EndSpiro
EndSplineSet
        EndChar
StartChar: O
Encoding: 79 79 0
Width: 526
InSpiro: 1
        Flags: H
        LayerCount: 2
        Back
        SplineSet
63 389 m 0
63 320 66 250 91 185 c 0
103 153 120 123 146 100 c 0
171 76 204 61 239 61 c 0
273 60 306 76 332 100 c 0
357 123 375 154 387 186 c 0
411 250 415 321 415 390 c 0
414 458 411 528 386 593 c 0
374 625 357 655 331 678 c 0
306 702 273 717 239 718 c 0
204 718 171 702 145 678 c 0
120 655 102 624 90 592 c 0
66 528 62 457 63 389 c 0
Z
240 721 m 0
274 720 308 705 334 681 c 0
360 658 378 627 390 594 c 0
415 529 420 458 420 389 c 0
419 319 415 248 389 183 c 0
376 151 358 120 332 97 c 0
306 74 272 58 238 59 c 0
203 59 170 74 144 98 c 0
119 121 100 151 88 184 c 0
63 248 59 318 59 388 c 0
58 457 63 529 88 594 c 0
101 627 119 658 145 681 c 0
171 705 205 721 240 721 c 0
Z
83 388 m 0
83 324 84 259 105 199 c 0
115 169 131 140 153 118 c 0
176 96 207 81 239 81 c 0
270 80 301 96 324 118 c 0
347 140 362 169 373 200 c 0
393 260 395 326 395 390 c 0
394 453 393 518 372 579 c 0
362 609 347 638 324 660 c 0
301 682 270 697 239 698 c 0
206 698 176 682 153 660 c 0
130 637 114 608 104 578 c 0
84 517 82 452 83 388 c 0
Z
240 701 m 0
272 700 303 685 326 663 c 0
350 640 366 611 376 580 c 0
397 519 400 453 400 389 c 0
399 324 397 258 375 197 c 0
364 166 348 137 325 115 c 0
301 93 270 77 238 78 c 0
205 78 174 93 151 115 c 0
128 138 112 167 101 197 c 0
80 258 77 324 78 389 c 0
78 453 80 520 102 581 c 0
112 611 129 641 152 663 c 0
176 685 207 701 240 701 c 0
Z
103 390 m 0
102 330 102 270 118 214 c 0
127 185 140 158 160 137 c 0
181 115 209 100 239 101 c 0
268 101 296 115 316 136 c 0
337 158 350 185 358 213 c 0
375 269 374 329 375 388 c 0
375 447 375 507 359 564 c 0
350 592 337 620 317 641 c 0
296 663 268 678 239 678 c 0
209 677 181 663 161 641 c 0
140 620 127 593 119 565 c 0
102 508 103 448 103 390 c 0
Z
238 681 m 0
267 681 296 666 317 645 c 0
338 623 352 596 361 567 c 0
379 510 379 448 380 389 c 0
380 329 379 268 362 211 c 0
353 183 340 155 319 134 c 0
298 112 269 98 240 98 c 0
210 97 181 112 160 133 c 0
139 155 125 182 116 211 c 0
98 268 98 329 98 389 c 0
97 448 97 509 115 566 c 0
123 595 137 623 158 644 c 0
179 666 208 680 238 681 c 0
Z
123 390 m 0
122 335 120 280 133 228 c 0
139 201 150 176 168 155 c 0
177 145 187 136 199 130 c 0
211 124 225 120 239 121 c 0
252 121 265 124 277 130 c 0
289 136 300 145 309 155 c 0
327 175 338 201 344 227 c 0
357 279 354 334 355 388 c 0
355 442 357 497 345 550 c 0
338 576 327 602 310 623 c 0
301 633 290 642 278 648 c 0
266 654 252 658 239 658 c 0
225 657 212 654 200 648 c 0
188 642 177 633 168 623 c 0
150 603 139 577 133 551 c 0
120 498 123 444 123 390 c 0
Z
238 661 m 0
251 661 265 657 277 651 c 0
290 645 301 636 310 626 c 0
329 606 340 580 347 553 c 0
361 500 359 444 360 389 c 0
360 334 362 278 348 225 c 0
341 198 330 173 311 152 c 0
302 142 291 133 279 127 c 0
267 121 253 118 240 118 c 0
226 117 212 121 200 127 c 0
187 133 176 142 167 152 c 0
149 172 137 198 130 225 c 0
116 278 118 334 118 389 c 0
117 443 115 499 129 553 c 0
136 579 147 605 165 626 c 0
175 636 186 644 198 651 c 0
210 657 224 660 238 661 c 0
Z
Spiro
63 389 o
239 61 c
415 390 o
239 718 c
240 721 c
420 389 o
238 59 c
59 388 o
83 388 o
239 81 c
395 390 o
239 698 c
240 701 c
400 389 o
238 78 c
78 389 o
103 390 o
239 101 c
375 388 o
239 678 c
238 681 c
380 389 o
240 98 c
98 389 o
123 390 o
239 121 c
355 388 o
239 658 c
238 661 c
360 389 o
240 118 c
118 389 o
0 0 z
EndSpiro
EndSplineSet
        Fore
        SplineSet
5 359 m 0
4 283 11 205 40 135 c 0
55 100 76 67 105 42 c 0
134 17 170 1 209 1 c 0
247 0 284 17 313 42 c 0
341 67 363 100 377 135 c 0
407 205 413 283 414 360 c 0
414 435 407 513 378 583 c 0
363 618 342 651 313 676 c 0
284 701 248 717 210 718 c 0
171 718 134 701 105 676 c 0
77 651 55 618 41 583 c 0
11 513 5 435 5 359 c 0
Z
209 721 m 0
247 721 285 704 314 679 c 0
344 654 365 621 381 586 c 0
411 515 419 436 419 359 c 0
418 281 411 203 380 132 c 0
364 97 343 64 313 39 c 0
284 14 246 -1 208 -1 c 0
169 0 132 15 103 40 c 0
74 65 53 98 37 133 c 0
7 203 0 281 0 358 c 0
0 435 7 514 37 585 c 0
52 620 74 653 103 679 c 0
132 704 170 720 209 721 c 0
Z
45 359 m 0
44 292 47 225 69 163 c 0
80 132 96 102 120 79 c 0
144 56 175 41 209 41 c 0
242 40 274 56 298 79 c 0
322 102 338 132 349 163 c 0
371 226 373 293 374 360 c 0
374 426 371 493 349 555 c 0
338 586 322 616 298 639 c 0
274 662 243 677 210 678 c 0
176 678 144 662 120 639 c 0
96 616 80 586 69 555 c 0
47 492 45 425 45 359 c 0
Z
209 681 m 0
242 681 275 665 299 642 c 0
324 619 341 589 352 558 c 0
375 494 379 426 379 359 c 0
378 291 375 223 352 160 c 0
340 128 323 98 298 75 c 0
274 53 241 37 208 38 c 0
174 38 142 53 118 76 c 0
94 99 77 129 65 160 c 0
43 223 40 291 40 358 c 0
39 425 42 493 65 557 c 0
77 588 94 618 118 642 c 0
142 665 175 680 209 681 c 0
Z
85 360 m 0
85 303 83 246 97 191 c 0
104 164 116 137 135 116 c 0
145 106 156 97 169 90 c 0
181 84 195 80 210 81 c 0
224 81 237 84 250 90 c 0
263 97 274 106 283 116 c 0
302 137 314 163 321 190 c 0
335 244 334 301 334 358 c 0
333 414 335 472 321 527 c 0
314 554 302 581 283 602 c 0
273 612 262 621 249 628 c 0
237 634 223 638 209 638 c 0
194 637 180 634 168 628 c 0
155 621 144 612 135 602 c 0
116 581 104 555 97 527 c 0
83 473 84 416 85 360 c 0
Z
208 641 m 0
222 641 236 637 249 631 c 0
262 625 274 616 284 605 c 0
303 584 316 558 324 530 c 0
339 475 338 416 339 359 c 0
339 301 340 243 324 188 c 0
316 160 304 134 284 113 c 0
274 102 263 93 250 87 c 0
237 81 223 77 209 78 c 0
180 78 153 92 133 113 c 0
114 134 101 161 94 188 c 0
79 243 80 301 80 359 c 0
79 416 78 474 93 529 c 0
101 557 113 583 132 604 c 0
152 625 179 640 208 641 c 0
Z
125 360 m 0
125 312 119 265 125 219 c 0
129 195 136 172 150 153 c 0
157 144 166 136 176 130 c 0
186 124 198 120 210 121 c 0
221 121 233 124 243 130 c 0
253 136 262 144 269 153 c 0
283 172 290 195 293 218 c 0
299 264 294 311 294 358 c 0
293 405 299 452 293 499 c 0
290 522 283 546 268 565 c 0
261 574 253 582 242 588 c 0
232 594 220 598 209 598 c 0
197 597 185 594 175 588 c 0
165 582 156 574 149 565 c 0
135 546 128 523 125 500 c 0
119 453 124 406 125 360 c 0
Z
208 601 m 0
219 601 231 597 242 592 c 0
252 586 262 578 269 568 c 0
284 549 292 526 296 502 c 0
303 455 298 406 299 359 c 0
299 311 304 263 296 216 c 0
292 192 284 169 270 150 c 0
262 140 253 132 243 127 c 0
232 121 220 117 209 118 c 0
197 118 185 121 174 127 c 0
164 133 155 141 148 150 c 0
133 169 126 192 122 216 c 0
115 263 120 311 120 359 c 0
119 406 114 454 121 501 c 0
125 525 132 548 147 567 c 0
154 577 163 585 173 591 c 0
184 597 196 600 208 601 c 0
Z
Spiro
5 359 o
209 1 c
414 360 o
210 718 c
209 721 c
419 359 o
208 -1 c
0 358 o
45 359 o
209 41 c
374 360 o
210 678 c
209 681 c
379 359 o
208 38 c
40 358 o
85 360 o
210 81 c
334 358 o
209 638 c
208 641 c
339 359 o
209 78 c
80 359 o
125 360 o
210 121 c
294 358 o
209 598 c
208 601 c
299 359 o
209 118 c
120 359 o
0 0 z
EndSpiro
EndSplineSet
        EndChar
StartChar: R
Encoding: 82 82 0
Width: 526
InSpiro: 1
        Flags: H
        LayerCount: 2
        Back
        SplineSet
65 59 m 0
60 59 l 0
60 662 l 0
60 662 l 0
63 660 l 0
212 662 l 0
232 662 253 662 273 656 c 0
293 651 311 641 326 626 c 0
340 611 350 592 355 573 c 0
360 553 362 532 362 512 c 0
361 491 360 470 354 451 c 0
349 431 339 412 325 398 c 0
311 383 292 373 272 367 c 0
253 362 232 361 212 362 c 0
59 362 l 0
59 366 l 0
212 366 l 0
231 366 251 366 271 371 c 0
290 376 308 387 322 401 c 0
335 415 345 433 350 452 c 0
355 472 357 492 357 512 c 0
356 531 355 551 349 570 c 0
344 589 335 607 321 621 c 0
307 636 289 646 270 651 c 0
251 657 231 657 212 658 c 0
63 660 l 0
63 660 l 0
65 59 l 0
Z
64 60 m 0
60 60 l 0
60 663 l 0
60 663 l 0
62 661 l 0
212 663 l 0
232 663 253 663 273 657 c 0
293 652 312 642 326 627 c 0
341 612 350 593 356 573 c 0
361 553 363 532 363 512 c 0
362 491 361 470 356 450 c 0
350 430 340 411 326 396 c 0
312 381 293 371 273 365 c 0
253 360 232 359 212 360 c 0
60 360 l 0
60 364 l 0
212 364 l 0
232 364 252 364 271 369 c 0
290 374 308 385 322 399 c 0
336 414 346 432 351 451 c 0
356 470 358 491 358 511 c 0
357 530 356 551 351 570 c 0
345 589 336 607 322 622 c 0
308 636 290 647 271 652 c 0
252 658 231 658 212 659 c 0
62 661 l 0
62 661 l 0
64 60 l 0
Z
63 60 m 0
59 60 l 0
59 664 l 0
59 664 l 0
61 662 l 0
212 664 l 0
232 664 253 664 274 658 c 0
294 653 312 642 327 627 c 0
341 613 351 593 357 573 c 0
362 553 364 532 364 512 c 0
363 491 362 470 356 450 c 0
351 430 341 411 327 396 c 0
312 381 293 370 273 364 c 0
253 359 232 358 212 359 c 0
60 359 l 0
60 363 l 0
212 363 l 0
232 363 252 363 271 368 c 0
291 374 309 384 323 398 c 0
337 413 347 431 352 451 c 0
357 470 359 490 359 511 c 0
358 531 357 551 352 570 c 0
346 590 337 608 323 623 c 0
309 637 291 648 271 653 c 0
252 659 232 659 212 660 c 0
61 662 l 0
61 662 l 0
63 60 l 0
Z
62 60 m 0
58 60 l 0
58 666 l 0
58 666 l 0
60 664 l 0
212 666 l 0
233 666 254 666 274 660 c 0
295 655 314 644 329 629 c 0
343 614 353 595 359 574 c 0
364 554 366 533 366 512 c 0
365 491 364 469 358 449 c 0
352 429 342 410 328 395 c 0
313 380 294 369 274 363 c 0
254 358 232 357 212 358 c 0
60 358 l 0
60 362 l 0
212 362 l 0
232 362 253 362 272 367 c 0
292 373 310 383 325 398 c 0
339 412 348 431 354 451 c 0
359 470 361 491 361 512 c 0
360 532 359 552 353 572 c 0
348 591 338 610 324 624 c 0
310 639 291 650 272 655 c 0
252 661 232 661 212 662 c 0
60 664 l 0
60 664 l 0
62 60 l 0
Z
59 358 m 0
59 362 l 0
210 360 l 0
212 362 l 0
212 362 l 0
362 59 l 0
357 59 l 0
209 360 l 0
210 360 l 0
59 358 l 0
Z
60 359 m 0
60 363 l 0
211 361 l 0
213 363 l 0
213 363 l 0
363 59 l 0
358 59 l 0
210 361 l 0
211 361 l 0
60 359 l 0
Z
60 360 m 0
60 364 l 0
212 362 l 0
214 364 l 0
214 364 l 0
364 60 l 0
359 60 l 0
211 362 l 0
212 362 l 0
60 360 l 0
Z
60 362 m 0
60 366 l 0
214 364 l 0
216 366 l 0
216 366 l 0
365 60 l 0
360 60 l 0
213 364 l 0
214 364 l 0
60 362 l 0
Z
Spiro
65 59 v
60 59 v
60 662 v
60 662 v
63 660 v
212 662 ]
362 512 c
212 362 [
59 362 v
59 366 v
212 366 ]
357 512 c
212 658 [
63 660 v
63 660 v
64 60 v
60 60 v
60 663 v
60 663 v
62 661 v
212 663 ]
363 512 c
212 360 [
60 360 v
60 364 v
212 364 ]
358 511 c
212 659 [
62 661 v
62 661 v
63 60 v
59 60 v
59 664 v
59 664 v
61 662 v
212 664 ]
364 512 c
212 359 [
60 359 v
60 363 v
212 363 ]
359 511 c
212 660 [
61 662 v
61 662 v
62 60 v
58 60 v
58 666 v
58 666 v
60 664 v
212 666 ]
366 512 c
212 358 [
60 358 v
60 362 v
212 362 ]
361 512 c
212 662 [
60 664 v
60 664 v
59 358 v
59 362 v
210 360 v
212 362 v
212 362 v
362 59 v
357 59 v
209 360 v
210 360 v
60 359 v
60 363 v
211 361 v
213 363 v
213 363 v
363 59 v
358 59 v
210 361 v
211 361 v
60 360 v
60 364 v
212 362 v
214 364 v
214 364 v
364 60 v
359 60 v
211 362 v
212 362 v
60 362 v
60 366 v
214 364 v
216 366 v
216 366 v
365 60 v
360 60 v
213 364 v
214 364 v
0 0 z
EndSpiro
EndSplineSet
        Fore
        SplineSet
119 57 m 0
114 57 l 0
114 602 l 0
114 602 l 0
117 600 l 0
210 602 l 0
222 602 235 602 248 599 c 0
261 596 272 589 281 580 c 0
291 571 297 559 300 547 c 0
304 534 305 521 305 509 c 0
304 496 303 483 299 471 c 0
295 459 289 448 280 439 c 0
271 430 259 424 247 421 c 0
235 418 222 417 210 418 c 0
57 418 l 0
57 422 l 0
210 422 l 0
222 422 234 422 246 425 c 0
257 428 268 434 277 442 c 0
286 451 292 462 295 474 c 0
299 485 300 497 300 510 c 0
299 522 298 534 295 545 c 0
291 557 285 567 276 576 c 0
268 584 257 590 245 594 c 0
234 597 222 597 210 598 c 0
117 600 l 0
117 600 l 0
119 57 l 0
Z
79 58 m 0
74 58 l 0
74 642 l 0
74 642 l 0
77 640 l 0
210 642 l 0
228 642 246 642 264 637 c 0
282 633 299 623 312 610 c 0
325 597 334 581 339 563 c 0
344 545 345 527 345 509 c 0
344 490 343 472 337 455 c 0
332 438 323 421 310 409 c 0
297 396 281 387 263 382 c 0
246 378 228 377 210 378 c 0
57 378 l 0
57 382 l 0
210 382 l 0
227 382 245 382 262 386 c 0
279 391 295 400 307 412 c 0
320 425 328 440 333 457 c 0
338 474 340 492 340 510 c 0
339 527 338 545 333 561 c 0
328 578 319 594 307 606 c 0
294 619 278 627 262 632 c 0
245 637 227 637 210 638 c 0
77 640 l 0
77 640 l 0
79 58 l 0
Z
39 58 m 0
34 58 l 0
34 682 l 0
34 682 l 0
37 680 l 0
210 682 l 0
233 682 257 682 280 676 c 0
303 670 325 658 341 641 c 0
358 624 370 603 376 580 c 0
383 557 385 533 385 510 c 0
384 486 382 462 376 439 c 0
369 417 357 395 341 379 c 0
324 362 303 350 280 344 c 0
257 338 233 337 210 338 c 0
57 338 l 0
57 342 l 0
210 342 l 0
233 342 256 342 278 348 c 0
300 354 321 365 337 382 c 0
354 398 365 419 371 441 c 0
378 463 380 486 380 510 c 0
379 532 377 556 371 578 c 0
364 600 353 620 337 637 c 0
321 653 300 664 278 670 c 0
256 677 232 677 210 678 c 0
37 680 l 0
37 680 l 0
39 58 l 0
Z
0 58 m 0
-5 58 l 0
-4 722 l 0
-4 722 l 0
-2 720 l 0
210 722 l 0
239 722 268 721 296 714 c 0
325 707 351 692 372 671 c 0
392 651 406 624 414 596 c 0
423 568 425 539 425 510 c 0
424 480 422 451 414 423 c 0
406 395 391 369 371 348 c 0
350 328 324 313 296 306 c 0
268 298 239 297 210 298 c 0
57 298 l 0
57 302 l 0
210 302 l 0
238 302 267 302 294 309 c 0
322 317 348 331 368 351 c 0
388 372 402 398 410 425 c 0
418 452 420 481 420 510 c 0
419 538 417 567 409 594 c 0
401 621 387 647 367 667 c 0
347 687 321 701 294 709 c 0
267 716 238 717 210 718 c 0
-2 720 l 0
-1 720 l 0
0 58 l 0
Z
57 298 m 0
57 302 l 0
152 300 l 0
154 302 l 0
154 302 l 0
311 31 l 0
306 31 l 0
151 300 l 0
152 300 l 0
57 298 l 0
Z
57 338 m 0
57 342 l 0
192 340 l 0
194 342 l 0
194 342 l 0
346 49 l 0
341 49 l 0
191 340 l 0
192 340 l 0
57 338 l 0
Z
57 378 m 0
57 382 l 0
232 380 l 0
234 382 l 0
234 382 l 0
382 66 l 0
377 66 l 0
231 380 l 0
232 380 l 0
57 378 l 0
Z
57 418 m 0
57 422 l 0
272 420 l 0
274 422 l 0
274 422 l 0
418 84 l 0
413 84 l 0
271 420 l 0
272 420 l 0
57 418 l 0
Z
Spiro
119 57 v
114 57 v
114 602 v
114 602 v
117 600 v
210 602 ]
305 509 c
210 418 [
57 418 v
57 422 v
210 422 ]
300 510 c
210 598 [
117 600 v
117 600 v
79 58 v
74 58 v
74 642 v
74 642 v
77 640 v
210 642 ]
345 509 c
210 378 [
57 378 v
57 382 v
210 382 ]
340 510 c
210 638 [
77 640 v
77 640 v
39 58 v
34 58 v
34 682 v
34 682 v
37 680 v
210 682 ]
385 510 c
210 338 [
57 338 v
57 342 v
210 342 ]
380 510 c
210 678 [
37 680 v
37 680 v
0 58 v
-5 58 v
-4 722 v
-4 722 v
-2 720 v
210 722 ]
425 510 c
210 298 [
57 298 v
57 302 v
210 302 ]
420 510 c
210 718 [
-2 720 v
-1 720 v
57 298 v
57 302 v
152 300 v
154 302 v
154 302 v
311 31 v
306 31 v
151 300 v
152 300 v
57 338 v
57 342 v
192 340 v
194 342 v
194 342 v
346 49 v
341 49 v
191 340 v
192 340 v
57 378 v
57 382 v
232 380 v
234 382 v
234 382 v
382 66 v
377 66 v
231 380 v
232 380 v
57 418 v
57 422 v
272 420 v
274 422 v
274 422 v
418 84 v
413 84 v
271 420 v
272 420 v
0 0 z
EndSpiro
EndSplineSet
        EndChar
StartChar: S
Encoding: 83 83 0
Width: 526
InSpiro: 1
        Flags: H
        LayerCount: 2
        Back
        SplineSet
418 598 m 0
413 598 l 0
401 634 377 665 345 687 c 0
314 708 275 719 238 717 c 0
193 714 149 693 118 661 c 0
86 629 67 585 63 541 c 0
60 513 62 485 72 459 c 0
82 433 100 410 124 396 c 0
153 377 190 373 225 369 c 0
242 367 260 364 277 359 c 0
294 354 310 347 324 336 c 0
337 324 348 309 354 293 c 0
361 276 363 258 363 241 c 0
361 208 347 177 324 154 c 0
301 131 270 118 238 117 c 0
211 116 183 123 161 139 c 0
139 154 122 176 113 202 c 0
118 202 l 0
126 177 142 156 164 141 c 0
185 126 211 119 237 120 c 0
268 121 299 134 321 157 c 0
343 179 356 210 358 242 c 0
358 258 356 276 349 291 c 0
343 307 333 321 321 333 c 0
307 344 291 352 274 357 c 0
257 362 240 364 222 366 c 0
187 371 151 374 121 393 c 0
96 407 78 431 68 458 c 0
58 484 55 513 59 542 c 0
64 587 84 630 115 663 c 0
147 696 191 717 237 720 c 0
276 722 315 711 348 689 c 0
380 668 405 635 418 598 c 0
Z
399 591 m 0
394 591 l 0
383 622 362 651 334 670 c 0
306 689 272 698 239 697 c 0
198 694 159 676 131 647 c 0
103 618 86 579 83 539 c 0
80 515 83 490 92 468 c 0
101 445 116 425 136 412 c 0
164 392 201 387 236 382 c 0
253 380 271 378 288 373 c 0
305 369 321 362 336 352 c 0
353 339 366 321 374 301 c 0
381 281 384 260 383 239 c 0
380 202 364 166 337 140 c 0
311 114 275 98 239 97 c 0
207 95 176 104 150 122 c 0
124 139 104 165 94 195 c 0
99 195 l 0
108 166 127 141 152 124 c 0
177 107 207 98 238 100 c 0
274 101 309 117 334 143 c 0
360 168 375 203 378 240 c 0
379 260 376 281 369 300 c 0
361 319 349 336 333 349 c 0
319 359 302 366 285 371 c 0
268 375 251 378 233 380 c 0
198 384 162 389 133 409 c 0
112 422 96 443 87 466 c 0
78 489 75 515 78 540 c 0
81 580 99 620 128 649 c 0
157 679 196 697 238 700 c 0
272 701 308 692 336 672 c 0
365 653 387 623 399 591 c 0
Z
381 584 m 0
376 584 l 0
366 612 348 637 323 654 c 0
299 670 269 679 240 678 c 0
204 676 169 659 145 634 c 0
120 608 105 573 103 538 c 0
101 517 104 496 111 477 c 0
118 458 130 441 147 429 c 0
160 418 177 411 194 406 c 0
211 401 228 399 246 397 c 0
281 392 317 388 347 369 c 0
367 355 383 334 393 311 c 0
402 288 405 262 403 238 c 0
399 196 380 156 351 127 c 0
321 98 281 79 240 78 c 0
204 76 169 86 139 105 c 0
110 125 87 154 76 188 c 0
81 188 l 0
92 155 114 127 142 108 c 0
170 89 204 79 239 81 c 0
279 82 319 100 348 129 c 0
376 158 394 198 398 239 c 0
400 263 397 287 388 310 c 0
379 332 363 352 344 366 c 0
314 385 278 390 243 394 c 0
226 396 208 399 191 403 c 0
174 408 158 415 144 426 c 0
127 438 114 456 106 476 c 0
98 496 96 517 98 539 c 0
100 575 116 610 141 636 c 0
167 662 202 679 239 681 c 0
269 682 300 673 326 656 c 0
351 639 371 613 381 584 c 0
Z
362 577 m 0
357 577 l 0
349 601 333 622 312 637 c 0
291 651 266 659 241 658 c 0
209 656 179 642 158 620 c 0
136 597 124 567 123 536 c 0
122 519 124 502 130 486 c 0
136 470 146 456 159 445 c 0
172 433 188 425 205 420 c 0
222 415 239 412 257 410 c 0
292 406 328 402 359 385 c 0
383 370 402 346 412 320 c 0
423 293 426 264 423 236 c 0
417 190 397 146 364 113 c 0
331 81 286 61 241 59 c 0
201 56 161 67 129 89 c 0
96 111 71 144 58 181 c 0
62 181 l 0
74 144 99 112 130 91 c 0
162 69 201 58 240 61 c 0
285 63 329 83 361 115 c 0
393 148 413 191 418 237 c 0
420 264 418 292 407 318 c 0
397 344 379 367 356 382 c 0
325 400 289 403 254 408 c 0
237 410 219 413 202 418 c 0
185 423 169 430 156 442 c 0
142 453 132 468 125 484 c 0
119 501 117 519 118 537 c 0
119 568 133 599 155 622 c 0
177 645 208 659 240 661 c 0
266 662 293 654 315 639 c 0
336 624 353 602 362 577 c 0
Z
Spiro
418 598 v
413 598 v
238 717 c
63 541 c
124 396 c
324 336 c
363 241 c
238 117 c
113 202 v
118 202 v
237 120 c
358 242 c
321 333 c
121 393 c
59 542 c
237 720 c
399 591 v
394 591 v
239 697 c
83 539 c
136 412 c
336 352 c
383 239 c
239 97 c
94 195 v
99 195 v
238 100 c
378 240 c
333 349 c
133 409 c
78 540 c
238 700 c
381 584 v
376 584 v
240 678 c
103 538 c
147 429 c
347 369 c
403 238 c
240 78 c
76 188 v
81 188 v
239 81 c
398 239 c
344 366 c
144 426 c
98 539 c
239 681 c
362 577 v
357 577 v
241 658 c
123 536 c
159 445 c
359 385 c
423 236 c
241 59 c
58 181 v
62 181 v
240 61 c
418 237 c
356 382 c
156 442 c
118 537 c
240 661 c
0 0 z
EndSpiro
EndSplineSet
        Fore
        SplineSet
415 578 m 0
410 578 l 0
396 620 369 657 332 682 c 0
296 707 251 720 207 717 c 0
155 713 105 688 69 651 c 0
34 614 11 564 5 513 c 0
0 480 2 446 14 415 c 0
25 385 47 357 76 342 c 0
107 325 143 322 179 318 c 0
196 316 214 313 231 308 c 0
248 302 264 294 277 282 c 0
295 264 305 238 305 213 c 0
304 187 293 162 275 145 c 0
257 127 232 117 207 117 c 0
186 116 165 122 148 134 c 0
131 145 117 162 110 182 c 0
115 182 l 0
121 163 134 147 150 136 c 0
166 125 186 119 206 120 c 0
230 120 254 130 272 147 c 0
289 165 299 189 300 214 c 0
300 237 290 261 274 279 c 0
261 291 245 300 229 305 c 0
212 311 195 314 177 316 c 0
142 320 106 322 75 339 c 0
44 354 22 382 10 414 c 0
-2 445 -4 480 0 514 c 0
6 566 29 616 66 654 c 0
103 691 153 716 206 720 c 0
251 723 297 710 335 685 c 0
372 659 401 621 415 578 c 0
Z
377 564 m 0
372 564 l 0
361 597 339 628 309 648 c 0
280 668 244 679 209 677 c 0
166 674 125 654 96 624 c 0
66 593 49 552 45 510 c 0
42 484 45 458 54 434 c 0
63 409 79 388 101 374 c 0
130 354 166 350 201 345 c 0
219 343 236 341 253 336 c 0
270 331 287 324 301 314 c 0
316 302 328 285 335 267 c 0
343 249 346 229 345 210 c 0
342 175 327 141 302 117 c 0
277 92 243 78 209 77 c 0
179 75 150 84 125 100 c 0
101 116 82 140 72 168 c 0
77 168 l 0
86 141 104 118 128 102 c 0
151 87 179 79 208 80 c 0
242 81 275 95 299 119 c 0
323 143 338 177 340 211 c 0
341 229 338 248 331 266 c 0
324 283 312 299 298 311 c 0
284 321 267 329 250 333 c 0
233 338 216 341 198 343 c 0
164 347 127 351 98 371 c 0
75 385 58 407 49 432 c 0
39 457 37 484 40 511 c 0
44 553 63 595 93 626 c 0
123 657 164 677 208 680 c 0
244 682 282 671 312 650 c 0
342 630 365 599 377 564 c 0
Z
340 551 m 0
335 551 l 0
326 576 309 599 287 615 c 0
265 631 238 639 211 638 c 0
177 636 145 621 122 597 c 0
99 572 85 540 84 507 c 0
82 488 85 469 92 452 c 0
98 434 109 418 124 407 c 0
137 395 153 388 170 383 c 0
187 378 205 375 222 373 c 0
257 369 294 365 324 347 c 0
346 332 363 310 373 285 c 0
383 261 386 233 384 207 c 0
379 163 359 121 328 90 c 0
297 59 254 40 211 38 c 0
173 35 135 46 103 67 c 0
72 88 47 119 35 155 c 0
40 155 l 0
52 120 75 90 106 69 c 0
136 49 173 39 210 41 c 0
253 43 294 62 325 92 c 0
355 123 374 165 379 208 c 0
381 233 378 260 368 284 c 0
359 308 342 329 321 344 c 0
291 363 254 367 220 371 c 0
202 373 185 376 168 380 c 0
151 385 134 393 121 404 c 0
105 416 94 432 87 450 c 0
80 468 77 488 79 508 c 0
81 541 95 575 119 599 c 0
142 624 175 639 210 641 c 0
238 642 266 634 290 617 c 0
313 601 331 577 340 551 c 0
Z
302 537 m 0
297 537 l 0
291 554 280 570 265 581 c 0
250 592 231 598 213 598 c 0
189 597 166 586 149 568 c 0
133 551 124 527 124 504 c 0
123 480 131 456 147 439 c 0
158 425 174 416 191 410 c 0
207 404 225 401 242 399 c 0
277 395 314 394 346 379 c 0
376 364 400 336 412 304 c 0
425 272 428 237 424 204 c 0
417 151 392 100 355 63 c 0
317 26 266 2 213 -1 c 0
167 -3 120 8 81 34 c 0
43 59 13 97 -2 141 c 0
2 141 l 0
16 98 45 60 83 35 c 0
120 10 166 -1 212 1 c 0
264 4 314 28 351 65 c 0
388 102 412 152 419 205 c 0
423 237 420 271 408 302 c 0
396 333 374 360 345 376 c 0
313 392 276 393 241 397 c 0
223 399 205 402 189 408 c 0
172 414 156 423 144 436 c 0
126 454 118 479 119 505 c 0
119 529 129 553 146 571 c 0
163 589 187 600 212 601 c 0
231 601 251 595 267 584 c 0
283 572 296 555 302 537 c 0
Z
Spiro
415 578 v
410 578 v
207 717 c
5 513 c
76 342 c
277 282 c
305 213 c
207 117 c
110 182 v
115 182 v
206 120 c
300 214 c
274 279 c
75 339 c
0 514 c
206 720 c
377 564 v
372 564 v
209 677 c
45 510 c
101 374 c
301 314 c
345 210 c
209 77 c
72 168 v
77 168 v
208 80 c
340 211 c
298 311 c
98 371 c
40 511 c
208 680 c
340 551 v
335 551 v
211 638 c
84 507 c
124 407 c
324 347 c
384 207 c
211 38 c
35 155 v
40 155 v
210 41 c
379 208 c
321 344 c
121 404 c
79 508 c
210 641 c
302 537 v
297 537 v
213 598 c
124 504 c
147 439 c
346 379 c
424 204 c
213 -1 c
-2 141 v
2 141 v
212 1 c
419 205 c
345 376 c
144 436 c
119 505 c
212 601 c
0 0 z
EndSpiro
EndSplineSet
        EndChar
StartChar: T
Encoding: 84 84 0
Width: 526
InSpiro: 1
        Flags: H
        LayerCount: 2
        Back
        SplineSet
86 658 m 0
86 662 l 0
392 662 l 0
392 658 l 0
86 658 l 0
Z
87 678 m 0
87 682 l 0
392 682 l 0
392 678 l 0
87 678 l 0
Z
87 698 m 0
87 702 l 0
392 702 l 0
392 698 l 0
87 698 l 0
Z
87 718 m 0
87 722 l 0
392 722 l 0
392 718 l 0
87 718 l 0
Z
208 692 m 0
213 692 l 0
213 88 l 0
208 88 l 0
208 692 l 0
Z
228 692 m 0
233 692 l 0
233 88 l 0
228 88 l 0
228 692 l 0
Z
248 692 m 0
253 692 l 0
253 88 l 0
248 88 l 0
248 692 l 0
Z
268 692 m 0
273 692 l 0
273 88 l 0
268 88 l 0
268 692 l 0
Z
Spiro
86 658 v
86 662 v
392 662 v
392 658 v
87 678 v
87 682 v
392 682 v
392 678 v
87 698 v
87 702 v
392 702 v
392 698 v
87 718 v
87 722 v
392 722 v
392 718 v
208 692 v
213 692 v
213 88 v
208 88 v
228 692 v
233 692 v
233 88 v
228 88 v
248 692 v
253 692 v
253 88 v
248 88 v
268 692 v
273 692 v
273 88 v
268 88 v
0 0 z
EndSpiro
EndSplineSet
        Fore
        SplineSet
56 598 m 0
56 602 l 0
362 602 l 0
362 598 l 0
56 598 l 0
Z
57 638 m 0
57 642 l 0
362 642 l 0
362 638 l 0
57 638 l 0
Z
57 678 m 0
57 682 l 0
362 682 l 0
362 678 l 0
57 678 l 0
Z
57 718 m 0
57 722 l 0
362 722 l 0
362 718 l 0
57 718 l 0
Z
150 662 m 0
155 662 l 0
155 58 l 0
150 58 l 0
150 662 l 0
Z
190 662 m 0
195 662 l 0
195 58 l 0
190 58 l 0
190 662 l 0
Z
230 662 m 0
235 662 l 0
235 58 l 0
230 58 l 0
230 662 l 0
Z
270 662 m 0
275 662 l 0
275 58 l 0
270 58 l 0
270 662 l 0
Z
Spiro
56 598 v
56 602 v
362 602 v
362 598 v
57 638 v
57 642 v
362 642 v
362 638 v
57 678 v
57 682 v
362 682 v
362 678 v
57 718 v
57 722 v
362 722 v
362 718 v
150 662 v
155 662 v
155 58 v
150 58 v
190 662 v
195 662 v
195 58 v
190 58 v
230 662 v
235 662 v
235 58 v
230 58 v
270 662 v
275 662 v
275 58 v
270 58 v
0 0 z
EndSpiro
EndSplineSet
        EndChar
StartChar: U
Encoding: 85 85 0
Width: 526
InSpiro: 1
        Flags: H
        LayerCount: 2
        Back
        SplineSet
59 692 m 0
63 692 l 0
63 390 l 0
63 320 62 249 87 184 c 0
99 151 118 121 144 98 c 0
170 75 204 61 239 61 c 0
273 61 307 75 333 98 c 0
359 121 378 151 390 184 c 0
415 249 414 320 415 390 c 0
415 692 l 0
420 692 l 0
420 390 l 0
420 319 420 247 394 182 c 0
381 149 362 119 335 96 c 0
309 73 275 59 240 59 c 0
204 58 170 73 143 96 c 0
117 118 97 149 84 182 c 0
58 247 59 319 59 390 c 0
59 692 l 0
Z
78 692 m 0
83 692 l 0
83 390 l 0
83 325 81 259 102 199 c 0
112 168 128 139 152 117 c 0
175 95 206 81 239 81 c 0
271 81 302 95 325 117 c 0
349 139 365 168 375 199 c 0
396 259 394 325 395 390 c 0
395 692 l 0
400 692 l 0
400 390 l 0
400 324 400 258 379 196 c 0
368 166 351 137 327 114 c 0
304 92 272 78 240 78 c 0
207 77 175 92 151 114 c 0
127 136 110 165 99 195 c 0
77 257 78 324 78 390 c 0
78 692 l 0
Z
98 692 m 0
103 692 l 0
103 390 l 0
102 330 101 270 117 213 c 0
126 185 139 157 160 136 c 0
180 115 209 101 239 101 c 0
268 100 297 115 317 136 c 0
338 157 351 185 360 213 c 0
376 270 374 330 375 390 c 0
375 692 l 0
380 692 l 0
380 390 l 0
380 330 381 268 364 211 c 0
355 182 341 155 320 133 c 0
298 112 270 98 240 98 c 0
209 97 180 112 159 133 c 0
137 154 123 181 114 210 c 0
96 268 98 329 98 390 c 0
98 692 l 0
Z
118 692 m 0
123 692 l 0
123 390 l 0
123 335 120 280 132 228 c 0
139 201 150 176 168 155 c 0
177 145 187 136 199 130 c 0
211 124 225 121 239 121 c 0
252 121 266 124 278 130 c 0
290 136 300 145 309 155 c 0
327 175 338 201 344 228 c 0
357 280 354 335 355 390 c 0
355 692 l 0
360 692 l 0
360 390 l 0
360 335 362 279 348 225 c 0
342 199 330 173 312 152 c 0
302 142 291 134 279 127 c 0
267 121 253 118 240 118 c 0
226 117 212 121 200 127 c 0
187 133 176 142 167 152 c 0
148 172 136 198 129 225 c 0
115 278 118 334 118 390 c 0
118 692 l 0
Z
Spiro
59 692 v
63 692 v
63 390 ]
239 61 c
415 390 [
415 692 v
420 692 v
420 390 ]
240 59 c
59 390 [
78 692 v
83 692 v
83 390 ]
239 81 c
395 390 [
395 692 v
400 692 v
400 390 ]
240 78 c
78 390 [
98 692 v
103 692 v
103 390 ]
239 101 c
375 390 [
375 692 v
380 692 v
380 390 ]
240 98 c
98 390 [
118 692 v
123 692 v
123 390 ]
239 121 c
355 390 [
355 692 v
360 692 v
360 390 ]
240 118 c
118 390 [
0 0 z
EndSpiro
EndSplineSet
        Fore
        SplineSet
0 662 m 0
5 662 l 0
5 360 l 0
4 283 5 203 35 133 c 0
51 97 73 65 103 40 c 0
133 16 171 1 210 2 c 0
248 2 286 17 315 41 c 0
345 65 368 98 383 133 c 0
413 204 413 283 414 360 c 0
414 662 l 0
419 662 l 0
419 360 l 0
419 282 418 201 386 130 c 0
371 94 348 61 317 37 c 0
287 13 248 -1 210 -2 c 0
170 -2 132 12 101 37 c 0
71 61 47 94 32 129 c 0
0 201 0 281 0 360 c 0
0 662 l 0
Z
40 662 m 0
45 662 l 0
45 360 l 0
45 293 44 225 66 162 c 0
77 131 95 101 119 79 c 0
144 56 176 41 210 42 c 0
243 42 275 56 299 79 c 0
324 101 341 131 352 162 c 0
374 225 373 293 374 360 c 0
374 662 l 0
379 662 l 0
379 360 l 0
379 292 379 223 356 159 c 0
344 127 326 98 301 75 c 0
276 52 243 38 210 38 c 0
176 37 143 52 117 75 c 0
92 97 74 127 62 159 c 0
39 222 40 292 40 360 c 0
40 662 l 0
Z
80 662 m 0
85 662 l 0
85 360 l 0
84 303 82 246 97 191 c 0
104 164 116 137 135 117 c 0
145 106 156 97 169 91 c 0
181 85 195 81 210 82 c 0
224 82 238 85 250 91 c 0
263 98 274 107 284 117 c 0
303 138 315 164 322 191 c 0
336 246 333 303 334 360 c 0
334 662 l 0
339 662 l 0
339 360 l 0
339 302 341 244 325 188 c 0
318 161 305 134 285 113 c 0
266 92 238 78 210 78 c 0
181 77 153 92 133 113 c 0
113 133 101 160 93 188 c 0
77 243 80 302 80 360 c 0
80 662 l 0
Z
120 662 m 0
125 662 l 0
125 360 l 0
125 313 121 266 127 220 c 0
130 197 137 173 151 154 c 0
158 145 166 137 176 131 c 0
186 125 198 121 210 122 c 0
221 122 233 125 243 131 c 0
253 137 261 145 268 155 c 0
281 174 288 197 291 220 c 0
297 266 293 313 294 360 c 0
294 662 l 0
299 662 l 0
299 360 l 0
299 312 302 264 295 217 c 0
291 194 284 170 270 151 c 0
263 141 254 133 243 127 c 0
233 121 221 118 210 118 c 0
198 117 186 121 175 127 c 0
165 133 156 141 149 151 c 0
135 170 127 193 123 217 c 0
116 264 120 312 120 360 c 0
120 662 l 0
Z
Spiro
0 662 v
5 662 v
5 360 ]
210 2 c
414 360 [
414 662 v
419 662 v
419 360 ]
210 -2 c
0 360 [
40 662 v
45 662 v
45 360 ]
210 42 c
374 360 [
374 662 v
379 662 v
379 360 ]
210 38 c
40 360 [
80 662 v
85 662 v
85 360 ]
210 82 c
334 360 [
334 662 v
339 662 v
339 360 ]
210 78 c
80 360 [
120 662 v
125 662 v
125 360 ]
210 122 c
294 360 [
294 662 v
299 662 v
299 360 ]
210 118 c
120 360 [
0 0 z
EndSpiro
EndSplineSet
        EndChar
StartChar: V
Encoding: 86 86 0
Width: 526
InSpiro: 1
        Flags: H
        LayerCount: 2
        Back
        SplineSet
58 663 m 0
62 663 l 0
211 62 l 0
360 663 l 0
365 663 l 0
214 52 l 0
209 52 l 0
58 663 l 0
Z
59 663 m 0
63 663 l 0
211 68 l 0
359 663 l 0
364 663 l 0
214 58 l 0
209 58 l 0
59 663 l 0
Z
60 664 m 0
64 664 l 0
211 72 l 0
358 664 l 0
363 664 l 0
214 61 l 0
209 62 l 0
60 664 l 0
Z
61 664 m 0
66 664 l 0
211 78 l 0
356 664 l 0
361 664 l 0
214 68 l 0
209 68 l 0
61 664 l 0
Z
Spiro
58 663 v
62 663 v
211 62 v
360 663 v
365 663 v
214 52 v
209 52 v
59 663 v
63 663 v
211 68 v
359 663 v
364 663 v
214 58 v
209 58 v
60 664 v
64 664 v
211 72 v
358 664 v
363 664 v
214 61 v
209 62 v
61 664 v
66 664 v
211 78 v
356 664 v
361 664 v
214 68 v
209 68 v
0 0 z
EndSpiro
EndSplineSet
        Fore
        SplineSet
1 647 m 0
6 647 l 0
209 -178 l 0
412 647 l 0
417 647 l 0
211 -189 l 0
206 -189 l 0
1 647 l 0
Z
40 657 m 0
45 657 l 0
209 -13 l 0
373 657 l 0
378 657 l 0
212 -24 l 0
207 -24 l 0
40 657 l 0
Z
79 666 m 0
84 666 l 0
209 150 l 0
334 666 l 0
339 666 l 0
212 140 l 0
207 140 l 0
79 666 l 0
Z
118 676 m 0
123 676 l 0
209 315 l 0
295 676 l 0
300 676 l 0
212 305 l 0
207 305 l 0
118 676 l 0
Z
Spiro
1 647 v
6 647 v
209 -178 v
412 647 v
417 647 v
211 -189 v
206 -189 v
40 657 v
45 657 v
209 -13 v
373 657 v
378 657 v
212 -24 v
207 -24 v
79 666 v
84 666 v
209 150 v
334 666 v
339 666 v
212 140 v
207 140 v
118 676 v
123 676 v
209 315 v
295 676 v
300 676 v
212 305 v
207 305 v
0 0 z
EndSpiro
EndSplineSet
        EndChar
StartChar: W
Encoding: 87 87 0
Width: 826
InSpiro: 1
        Flags: H
        LayerCount: 2
        Back
        SplineSet
60 684 m 0
64 684 l 0
240 -24 l 0
415 658 l 0
363 658 l 0
539 -24 l 0
714 684 l 0
719 684 l 0
542 -35 l 0
537 -35 l 0
358 662 l 0
358 662 l 0
420 662 l 0
420 662 l 0
242 -35 l 0
237 -35 l 0
60 684 l 0
Z
78 689 m 0
83 689 l 0
240 58 l 0
395 678 l 0
383 678 l 0
539 58 l 0
695 689 l 0
700 689 l 0
542 47 l 0
537 47 l 0
378 682 l 0
378 682 l 0
400 682 l 0
400 682 l 0
242 47 l 0
237 47 l 0
78 689 l 0
Z
98 694 m 0
103 694 l 0
239 139 l 0
375 702 l 0
375 702 l 0
403 702 l 0
403 702 l 0
540 139 l 0
675 694 l 0
680 694 l 0
542 129 l 0
537 129 l 0
399 698 l 0
379 698 l 0
242 129 l 0
237 129 l 0
98 694 l 0
Z
117 699 m 0
122 699 l 0
239 221 l 0
355 722 l 0
355 722 l 0
423 722 l 0
423 722 l 0
540 221 l 0
656 699 l 0
661 699 l 0
542 211 l 0
537 211 l 0
419 718 l 0
359 718 l 0
242 211 l 0
237 211 l 0
117 699 l 0
Z
Spiro
60 684 v
64 684 v
240 -24 v
415 658 v
363 658 v
539 -24 v
714 684 v
719 684 v
542 -35 v
537 -35 v
358 662 v
358 662 v
420 662 v
420 662 v
242 -35 v
237 -35 v
78 689 v
83 689 v
240 58 v
395 678 v
383 678 v
539 58 v
695 689 v
700 689 v
542 47 v
537 47 v
378 682 v
378 682 v
400 682 v
400 682 v
242 47 v
237 47 v
98 694 v
103 694 v
239 139 v
375 702 v
375 702 v
403 702 v
403 702 v
540 139 v
675 694 v
680 694 v
542 129 v
537 129 v
399 698 v
379 698 v
242 129 v
237 129 v
117 699 v
122 699 v
239 221 v
355 722 v
355 722 v
423 722 v
423 722 v
540 221 v
656 699 v
661 699 v
542 211 v
537 211 v
419 718 v
359 718 v
242 211 v
237 211 v
0 0 z
EndSpiro
EndSplineSet
        Fore
        SplineSet
1 647 m 0
6 647 l 0
209 -178 l 0
414 598 l 0
304 598 l 0
509 -178 l 0
712 647 l 0
717 647 l 0
512 -189 l 0
507 -189 l 0
299 602 l 0
299 602 l 0
419 602 l 0
419 602 l 0
211 -189 l 0
206 -189 l 0
1 647 l 0
Z
40 657 m 0
45 657 l 0
210 -13 l 0
374 638 l 0
344 638 l 0
509 -13 l 0
673 657 l 0
678 657 l 0
512 -24 l 0
507 -24 l 0
339 642 l 0
339 642 l 0
379 642 l 0
379 642 l 0
212 -24 l 0
207 -24 l 0
40 657 l 0
Z
79 666 m 0
84 666 l 0
209 150 l 0
334 682 l 0
334 682 l 0
384 682 l 0
384 682 l 0
510 150 l 0
634 666 l 0
639 666 l 0
512 140 l 0
507 140 l 0
380 678 l 0
338 678 l 0
212 140 l 0
207 140 l 0
79 666 l 0
Z
118 676 m 0
123 676 l 0
209 316 l 0
294 722 l 0
294 722 l 0
424 722 l 0
424 722 l 0
510 316 l 0
595 676 l 0
600 676 l 0
512 305 l 0
507 305 l 0
420 718 l 0
298 718 l 0
212 305 l 0
207 305 l 0
118 676 l 0
Z
Spiro
1 647 v
6 647 v
209 -178 v
414 598 v
304 598 v
509 -178 v
712 647 v
717 647 v
512 -189 v
507 -189 v
299 602 v
299 602 v
419 602 v
419 602 v
211 -189 v
206 -189 v
40 657 v
45 657 v
210 -13 v
374 638 v
344 638 v
509 -13 v
673 657 v
678 657 v
512 -24 v
507 -24 v
339 642 v
339 642 v
379 642 v
379 642 v
212 -24 v
207 -24 v
79 666 v
84 666 v
209 150 v
334 682 v
334 682 v
384 682 v
384 682 v
510 150 v
634 666 v
639 666 v
512 140 v
507 140 v
380 678 v
338 678 v
212 140 v
207 140 v
118 676 v
123 676 v
209 316 v
294 722 v
294 722 v
424 722 v
424 722 v
510 316 v
595 676 v
600 676 v
512 305 v
507 305 v
420 718 v
298 718 v
212 305 v
207 305 v
0 0 z
EndSpiro
EndSplineSet
        EndChar
StartChar: X
Encoding: 88 88 0
Width: 526
InSpiro: 1
        Flags: H
        LayerCount: 2
        Back
        SplineSet
61 678 m 0
66 678 l 0
366 74 l 0
361 74 l 0
61 678 l 0
Z
79 687 m 0
84 687 l 0
384 83 l 0
379 83 l 0
79 687 l 0
Z
97 696 m 0
102 696 l 0
402 92 l 0
397 92 l 0
97 696 l 0
Z
115 705 m 0
120 705 l 0
420 101 l 0
415 101 l 0
115 705 l 0
Z
361 705 m 0
366 705 l 0
66 101 l 0
61 101 l 0
361 705 l 0
Z
379 696 m 0
384 696 l 0
84 92 l 0
79 92 l 0
379 696 l 0
Z
397 687 m 0
402 687 l 0
102 83 l 0
97 83 l 0
397 687 l 0
Z
415 678 m 0
420 678 l 0
120 74 l 0
115 74 l 0
415 678 l 0
Z
Spiro
61 678 v
66 678 v
366 74 v
361 74 v
79 687 v
84 687 v
384 83 v
379 83 v
97 696 v
102 696 v
402 92 v
397 92 v
115 705 v
120 705 v
420 101 v
415 101 v
361 705 v
366 705 v
66 101 v
61 101 v
379 696 v
384 696 v
84 92 v
79 92 v
397 687 v
402 687 v
102 83 v
97 83 v
415 678 v
420 678 v
120 74 v
115 74 v
0 0 z
EndSpiro
EndSplineSet
        Fore
        SplineSet
6 635 m 0
11 635 l 0
311 31 l 0
306 31 l 0
6 635 l 0
Z
41 653 m 0
46 653 l 0
346 49 l 0
341 49 l 0
41 653 l 0
Z
77 670 m 0
82 670 l 0
382 66 l 0
377 66 l 0
77 670 l 0
Z
113 688 m 0
118 688 l 0
418 84 l 0
413 84 l 0
113 688 l 0
Z
306 688 m 0
311 688 l 0
11 84 l 0
6 84 l 0
306 688 l 0
Z
341 670 m 0
346 670 l 0
46 66 l 0
41 66 l 0
341 670 l 0
Z
377 653 m 0
382 653 l 0
82 49 l 0
77 49 l 0
377 653 l 0
Z
413 635 m 0
418 635 l 0
118 31 l 0
113 31 l 0
413 635 l 0
Z
Spiro
6 635 v
11 635 v
311 31 v
306 31 v
41 653 v
46 653 v
346 49 v
341 49 v
77 670 v
82 670 v
382 66 v
377 66 v
113 688 v
118 688 v
418 84 v
413 84 v
306 688 v
311 688 v
11 84 v
6 84 v
341 670 v
346 670 v
46 66 v
41 66 v
377 653 v
382 653 v
82 49 v
77 49 v
413 635 v
418 635 v
118 31 v
113 31 v
0 0 z
EndSpiro
EndSplineSet
        EndChar
StartChar: Y
Encoding: 89 89 0
Width: 526
InSpiro: 1
        Flags: H
        LayerCount: 2
        Back
        SplineSet
61 678 m 0
66 678 l 0
239 326 l 0
412 678 l 0
417 678 l 0
242 320 l 0
237 320 l 0
61 678 l 0
Z
79 687 m 0
84 687 l 0
239 371 l 0
394 687 l 0
399 687 l 0
242 365 l 0
237 365 l 0
79 687 l 0
Z
97 696 m 0
102 696 l 0
239 416 l 0
376 696 l 0
381 696 l 0
242 410 l 0
237 410 l 0
97 696 l 0
Z
115 705 m 0
120 705 l 0
239 461 l 0
358 705 l 0
363 705 l 0
242 455 l 0
237 455 l 0
115 705 l 0
Z
208 392 m 0
213 392 l 0
213 88 l 0
208 88 l 0
208 392 l 0
Z
228 392 m 0
233 392 l 0
233 88 l 0
228 88 l 0
228 392 l 0
Z
248 392 m 0
253 392 l 0
253 88 l 0
248 88 l 0
248 392 l 0
Z
268 392 m 0
273 392 l 0
273 88 l 0
268 88 l 0
268 392 l 0
Z
Spiro
61 678 v
66 678 v
239 326 v
412 678 v
417 678 v
242 320 v
237 320 v
79 687 v
84 687 v
239 371 v
394 687 v
399 687 v
242 365 v
237 365 v
97 696 v
102 696 v
239 416 v
376 696 v
381 696 v
242 410 v
237 410 v
115 705 v
120 705 v
239 461 v
358 705 v
363 705 v
242 455 v
237 455 v
208 392 v
213 392 v
213 88 v
208 88 v
228 392 v
233 392 v
233 88 v
228 88 v
248 392 v
253 392 v
253 88 v
248 88 v
268 392 v
273 392 v
273 88 v
268 88 v
0 0 z
EndSpiro
EndSplineSet
        Fore
        SplineSet
6 635 m 0
11 635 l 0
209 229 l 0
407 635 l 0
412 635 l 0
212 223 l 0
207 223 l 0
6 635 l 0
Z
41 653 m 0
46 653 l 0
209 319 l 0
372 653 l 0
377 653 l 0
212 313 l 0
207 313 l 0
41 653 l 0
Z
77 670 m 0
82 670 l 0
209 408 l 0
336 670 l 0
341 670 l 0
212 402 l 0
207 402 l 0
77 670 l 0
Z
113 688 m 0
118 688 l 0
209 498 l 0
300 688 l 0
305 688 l 0
212 492 l 0
207 492 l 0
113 688 l 0
Z
150 362 m 0
155 362 l 0
155 58 l 0
150 58 l 0
150 362 l 0
Z
190 362 m 0
195 362 l 0
195 58 l 0
190 58 l 0
190 362 l 0
Z
230 362 m 0
235 362 l 0
235 58 l 0
230 58 l 0
230 362 l 0
Z
270 362 m 0
275 362 l 0
275 58 l 0
270 58 l 0
270 362 l 0
Z
Spiro
6 635 v
11 635 v
209 229 v
407 635 v
412 635 v
212 223 v
207 223 v
41 653 v
46 653 v
209 319 v
372 653 v
377 653 v
212 313 v
207 313 v
77 670 v
82 670 v
209 408 v
336 670 v
341 670 v
212 402 v
207 402 v
113 688 v
118 688 v
209 498 v
300 688 v
305 688 v
212 492 v
207 492 v
150 362 v
155 362 v
155 58 v
150 58 v
190 362 v
195 362 v
195 58 v
190 58 v
230 362 v
235 362 v
235 58 v
230 58 v
270 362 v
275 362 v
275 58 v
270 58 v
0 0 z
EndSpiro
EndSplineSet
        EndChar
StartChar: Z
Encoding: 90 90 0
Width: 526
InSpiro: 1
        Flags: H
        LayerCount: 2
        Back
        SplineSet
86 658 m 0
86 662 l 0
361 660 l 0
363 662 l 0
363 662 l 0
47 62 l 0
392 62 l 0
392 58 l 0
41 58 l 0
41 58 l 0
360 660 l 0
361 660 l 0
86 658 l 0
Z
87 678 m 0
87 682 l 0
381 680 l 0
383 682 l 0
383 682 l 0
78 82 l 0
392 82 l 0
392 78 l 0
72 78 l 0
72 78 l 0
380 680 l 0
381 680 l 0
87 678 l 0
Z
87 698 m 0
87 702 l 0
401 700 l 0
403 702 l 0
403 702 l 0
110 102 l 0
392 102 l 0
392 98 l 0
104 98 l 0
104 98 l 0
400 700 l 0
401 700 l 0
87 698 l 0
Z
87 718 m 0
87 722 l 0
421 720 l 0
423 722 l 0
423 722 l 0
142 122 l 0
392 122 l 0
392 118 l 0
136 118 l 0
136 118 l 0
420 720 l 0
421 720 l 0
87 718 l 0
Z
Spiro
86 658 v
86 662 v
361 660 v
363 662 v
363 662 v
47 62 v
392 62 v
392 58 v
41 58 v
41 58 v
360 660 v
361 660 v
87 678 v
87 682 v
381 680 v
383 682 v
383 682 v
78 82 v
392 82 v
392 78 v
72 78 v
72 78 v
380 680 v
381 680 v
87 698 v
87 702 v
401 700 v
403 702 v
403 702 v
110 102 v
392 102 v
392 98 v
104 98 v
104 98 v
400 700 v
401 700 v
87 718 v
87 722 v
421 720 v
423 722 v
423 722 v
142 122 v
392 122 v
392 118 v
136 118 v
136 118 v
420 720 v
421 720 v
0 0 z
EndSpiro
EndSplineSet
        Fore
        SplineSet
56 598 m 0
56 602 l 0
302 600 l 0
304 602 l 0
304 602 l 0
-30 2 l 0
362 2 l 0
362 -2 l 0
-36 -2 l 0
-36 -2 l 0
301 600 l 0
302 600 l 0
56 598 l 0
Z
57 638 m 0
57 642 l 0
342 640 l 0
344 642 l 0
344 642 l 0
33 42 l 0
362 42 l 0
362 38 l 0
27 38 l 0
27 38 l 0
341 640 l 0
342 640 l 0
57 638 l 0
Z
57 678 m 0
57 682 l 0
382 680 l 0
384 682 l 0
384 682 l 0
97 82 l 0
362 82 l 0
362 78 l 0
91 78 l 0
91 78 l 0
381 680 l 0
382 680 l 0
57 678 l 0
Z
57 718 m 0
57 722 l 0
422 720 l 0
424 722 l 0
424 722 l 0
162 122 l 0
362 122 l 0
362 118 l 0
156 118 l 0
156 118 l 0
421 720 l 0
422 720 l 0
57 718 l 0
Z
Spiro
56 598 v
56 602 v
302 600 v
304 602 v
304 602 v
-30 2 v
362 2 v
362 -2 v
-36 -2 v
-36 -2 v
301 600 v
302 600 v
57 638 v
57 642 v
342 640 v
344 642 v
344 642 v
33 42 v
362 42 v
362 38 v
27 38 v
27 38 v
341 640 v
342 640 v
57 678 v
57 682 v
382 680 v
384 682 v
384 682 v
97 82 v
362 82 v
362 78 v
91 78 v
91 78 v
381 680 v
382 680 v
57 718 v
57 722 v
422 720 v
424 722 v
424 722 v
162 122 v
362 122 v
362 118 v
156 118 v
156 118 v
421 720 v
422 720 v
0 0 z
EndSpiro
EndSplineSet
        EndChar
StartChar: a
Encoding: 97 97 0
Width: 526
InSpiro: 1
        Flags: H
        LayerCount: 2
        Back
        SplineSet
358 492 m 0
363 492 l 0
363 88 l 0
358 88 l 0
358 492 l 0
Z
378 492 m 0
383 492 l 0
383 88 l 0
378 88 l 0
378 492 l 0
Z
398 492 m 0
403 492 l 0
403 88 l 0
398 88 l 0
398 492 l 0
Z
418 492 m 0
423 492 l 0
423 88 l 0
418 88 l 0
418 492 l 0
Z
419 396 m 0
414 396 l 0
403 433 379 467 347 489 c 0
315 511 274 521 236 517 c 0
184 510 136 479 106 436 c 0
76 394 63 341 63 289 c 0
62 236 76 183 106 141 c 0
136 98 184 67 236 61 c 0
274 56 315 66 347 88 c 0
380 110 404 145 414 183 c 0
419 183 l 0
408 144 383 109 350 86 c 0
316 64 275 54 235 59 c 0
182 65 134 97 103 140 c 0
73 183 58 237 59 290 c 0
59 342 73 396 104 439 c 0
134 482 182 513 235 520 c 0
275 524 316 514 350 492 c 0
383 469 408 434 419 396 c 0
Z
400 390 m 0
395 390 l 0
386 423 365 453 336 472 c 0
308 491 273 500 239 497 c 0
191 491 148 462 121 423 c 0
94 384 83 336 83 289 c 0
82 241 94 193 121 154 c 0
148 115 191 86 239 81 c 0
273 77 308 86 337 105 c 0
365 125 386 155 395 189 c 0
400 189 l 0
390 154 369 123 339 103 c 0
310 83 273 74 238 78 c 0
189 83 145 112 118 152 c 0
90 192 77 241 78 290 c 0
78 338 90 386 118 426 c 0
146 465 190 494 238 500 c 0
273 503 309 494 339 474 c 0
368 454 390 424 400 390 c 0
Z
380 385 m 0
375 385 l 0
367 413 349 439 325 456 c 0
300 473 270 481 241 478 c 0
219 475 199 467 181 456 c 0
163 444 148 428 136 410 c 0
112 375 103 331 103 289 c 0
102 246 112 202 136 167 c 0
148 149 163 133 181 121 c 0
199 110 219 102 241 100 c 0
270 96 301 104 325 121 c 0
349 139 367 165 375 194 c 0
380 194 l 0
372 164 353 137 328 119 c 0
302 101 270 93 240 97 c 0
218 99 197 107 178 119 c 0
160 131 144 147 132 165 c 0
108 201 97 246 98 290 c 0
98 333 108 377 133 413 c 0
145 431 161 447 179 458 c 0
197 470 218 478 240 481 c 0
270 484 302 476 327 458 c 0
353 441 372 414 380 385 c 0
Z
361 379 m 0
356 379 l 0
349 403 334 425 314 439 c 0
293 453 267 460 243 458 c 0
224 456 205 449 190 438 c 0
174 427 161 413 151 397 c 0
130 365 123 326 123 289 c 0
122 251 130 212 151 180 c 0
161 164 174 150 190 139 c 0
205 128 224 121 243 120 c 0
268 117 293 124 314 138 c 0
334 153 350 175 356 200 c 0
361 200 l 0
354 174 338 151 316 136 c 0
295 121 268 114 242 117 c 0
222 119 203 126 187 136 c 0
171 147 157 162 147 178 c 0
126 211 117 251 118 290 c 0
118 328 126 367 148 400 c 0
158 416 172 430 188 441 c 0
204 451 222 458 242 461 c 0
268 463 295 456 316 442 c 0
338 427 354 404 361 379 c 0
Z
Spiro
358 492 v
363 492 v
363 88 v
358 88 v
378 492 v
383 492 v
383 88 v
378 88 v
398 492 v
403 492 v
403 88 v
398 88 v
418 492 v
423 492 v
423 88 v
418 88 v
419 396 v
414 396 v
236 517 c
63 289 c
236 61 c
414 183 v
419 183 v
235 59 c
59 290 c
235 520 c
400 390 v
395 390 v
239 497 c
83 289 c
239 81 c
395 189 v
400 189 v
238 78 c
78 290 c
238 500 c
380 385 v
375 385 v
241 478 c
103 289 c
241 100 c
375 194 v
380 194 v
240 97 c
98 290 c
240 481 c
361 379 v
356 379 v
243 458 c
123 289 c
243 120 c
356 200 v
361 200 v
242 117 c
118 290 c
242 461 c
0 0 z
EndSpiro
EndSplineSet
        Fore
        SplineSet
300 462 m 0
305 462 l 0
305 58 l 0
300 58 l 0
300 462 l 0
Z
340 462 m 0
345 462 l 0
345 58 l 0
340 58 l 0
340 462 l 0
Z
380 462 m 0
385 462 l 0
385 58 l 0
380 58 l 0
380 462 l 0
Z
420 462 m 0
425 462 l 0
425 58 l 0
420 58 l 0
420 462 l 0
Z
416 374 m 0
411 374 l 0
399 418 371 458 333 484 c 0
296 510 248 522 203 517 c 0
144 509 90 474 55 426 c 0
21 378 5 318 5 259 c 0
4 199 21 139 55 91 c 0
90 43 144 8 203 1 c 0
248 -4 296 7 334 33 c 0
372 59 400 100 411 145 c 0
416 145 l 0
404 99 375 58 336 31 c 0
297 5 248 -6 202 -1 c 0
142 6 87 41 52 90 c 0
16 138 0 199 0 260 c 0
0 320 17 380 52 429 c 0
87 477 142 512 202 520 c 0
248 525 297 513 336 487 c 0
375 460 404 419 416 374 c 0
Z
378 363 m 0
373 363 l 0
364 398 341 430 311 450 c 0
281 471 244 481 208 477 c 0
158 471 113 440 85 400 c 0
57 359 45 308 45 259 c 0
44 209 57 158 85 117 c 0
113 77 158 46 208 41 c 0
244 36 282 46 312 67 c 0
342 88 364 120 373 156 c 0
378 156 l 0
368 119 345 86 314 64 c 0
283 43 244 33 207 38 c 0
156 43 110 74 81 116 c 0
52 157 39 209 40 260 c 0
40 310 53 361 82 402 c 0
111 443 156 474 207 480 c 0
244 484 283 474 314 453 c 0
345 432 368 399 378 363 c 0
Z
339 352 m 0
334 352 l 0
327 378 311 402 289 417 c 0
267 433 239 440 212 438 c 0
192 435 172 428 156 417 c 0
139 405 125 390 114 373 c 0
93 340 85 299 85 259 c 0
84 218 93 177 114 144 c 0
125 127 139 112 156 100 c 0
172 89 192 82 212 80 c 0
239 77 267 84 289 100 c 0
311 116 327 140 334 167 c 0
339 167 l 0
332 139 315 114 291 97 c 0
268 81 239 73 211 77 c 0
190 79 170 86 153 98 c 0
136 109 122 125 111 142 c 0
88 176 79 218 80 260 c 0
80 300 89 342 111 376 c 0
122 393 137 408 154 419 c 0
171 431 190 438 211 441 c 0
239 444 268 436 291 420 c 0
315 404 332 379 339 352 c 0
Z
301 341 m 0
296 341 l 0
291 358 281 373 266 383 c 0
252 394 234 399 217 398 c 0
201 396 186 390 174 381 c 0
162 373 152 361 144 347 c 0
129 321 125 289 125 259 c 0
124 228 129 196 144 170 c 0
152 156 162 144 174 135 c 0
186 127 201 121 217 120 c 0
234 118 252 123 267 134 c 0
281 144 291 160 296 178 c 0
301 178 l 0
296 159 285 142 269 131 c 0
254 120 234 115 216 117 c 0
200 118 185 124 172 133 c 0
159 142 148 154 140 168 c 0
124 195 119 228 120 260 c 0
120 291 125 323 141 350 c 0
149 363 159 375 172 384 c 0
185 393 200 399 216 401 c 0
234 402 254 397 269 386 c 0
284 375 296 359 301 341 c 0
Z
Spiro
300 462 v
305 462 v
305 58 v
300 58 v
340 462 v
345 462 v
345 58 v
340 58 v
380 462 v
385 462 v
385 58 v
380 58 v
420 462 v
425 462 v
425 58 v
420 58 v
416 374 v
411 374 v
203 517 c
5 259 c
203 1 c
411 145 v
416 145 v
202 -1 c
0 260 c
202 520 c
378 363 v
373 363 v
208 477 c
45 259 c
208 41 c
373 156 v
378 156 v
207 38 c
40 260 c
207 480 c
339 352 v
334 352 v
212 438 c
85 259 c
212 80 c
334 167 v
339 167 v
211 77 c
80 260 c
211 441 c
301 341 v
296 341 v
217 398 c
125 259 c
217 120 c
296 178 v
301 178 v
216 117 c
120 260 c
216 401 c
0 0 z
EndSpiro
EndSplineSet
        EndChar
StartChar: c
Encoding: 99 99 0
Width: 526
InSpiro: 1
        Flags: H
        LayerCount: 2
        Back
        SplineSet
416 433 m 0
411 433 l 0
393 462 367 487 335 502 c 0
304 516 269 522 235 517 c 0
183 509 137 477 107 435 c 0
77 393 63 340 63 289 c 0
62 237 77 184 107 142 c 0
137 100 183 68 235 61 c 0
269 55 304 61 336 76 c 0
367 91 393 116 411 146 c 0
416 146 l 0
398 115 370 89 338 74 c 0
306 58 269 53 234 59 c 0
181 67 134 98 104 141 c 0
73 184 58 237 59 290 c 0
59 342 73 395 104 437 c 0
135 480 182 511 234 520 c 0
269 525 306 520 338 504 c 0
370 489 398 463 416 433 c 0
Z
399 423 m 0
394 423 l 0
378 449 354 470 327 483 c 0
299 496 268 501 238 497 c 0
191 489 149 461 122 422 c 0
95 383 83 336 83 289 c 0
82 241 95 194 122 155 c 0
149 116 191 87 238 81 c 0
268 76 299 81 327 94 c 0
355 107 378 129 394 156 c 0
399 156 l 0
383 128 358 105 329 92 c 0
301 78 268 73 237 78 c 0
189 85 146 114 118 153 c 0
90 193 77 241 78 290 c 0
78 337 91 386 119 425 c 0
146 463 189 492 237 500 c 0
268 504 301 499 329 486 c 0
358 472 382 450 399 423 c 0
Z
382 412 m 0
377 412 l 0
363 435 343 454 319 465 c 0
295 477 267 481 241 478 c 0
198 471 161 445 137 409 c 0
113 374 103 331 103 289 c 0
102 246 113 203 137 168 c 0
161 132 198 106 241 100 c 0
267 96 295 100 319 112 c 0
343 124 363 143 377 167 c 0
382 167 l 0
368 142 347 122 321 109 c 0
296 97 267 92 240 97 c 0
196 103 158 130 133 166 c 0
108 202 97 246 98 290 c 0
98 333 109 376 134 412 c 0
158 448 197 474 240 481 c 0
267 485 296 480 321 468 c 0
346 456 368 436 382 412 c 0
Z
365 402 m 0
360 402 l 0
348 421 331 437 310 447 c 0
290 457 266 461 244 458 c 0
206 452 173 428 152 396 c 0
131 365 123 326 123 289 c 0
122 251 131 212 152 181 c 0
173 149 206 125 244 120 c 0
266 116 290 120 310 130 c 0
331 140 348 157 360 177 c 0
365 177 l 0
353 156 334 138 313 128 c 0
291 117 266 113 243 117 c 0
204 122 170 146 148 179 c 0
127 211 117 251 118 290 c 0
118 328 127 367 149 399 c 0
170 431 204 455 243 461 c 0
266 464 291 460 313 450 c 0
334 439 352 422 365 402 c 0
Z
Spiro
416 433 v
411 433 v
235 517 c
63 289 c
235 61 c
411 146 v
416 146 v
234 59 c
59 290 c
234 520 c
399 423 v
394 423 v
238 497 c
83 289 c
238 81 c
394 156 v
399 156 v
237 78 c
78 290 c
237 500 c
382 412 v
377 412 v
241 478 c
103 289 c
241 100 c
377 167 v
382 167 v
240 97 c
98 290 c
240 481 c
365 402 v
360 402 v
244 458 c
123 289 c
244 120 c
360 177 v
365 177 v
243 117 c
118 290 c
243 461 c
0 0 z
EndSpiro
EndSplineSet
        Fore
        SplineSet
400 466 m 0
400 462 l 0
346 510 268 531 198 516 c 0
141 503 90 468 56 421 c 0
22 374 5 316 5 259 c 0
4 201 22 142 56 96 c 0
90 49 141 14 198 2 c 0
268 -13 346 7 400 57 c 0
400 53 l 0
345 4 267 -15 197 0 c 0
139 12 87 47 52 94 c 0
17 142 0 201 0 260 c 0
0 318 18 377 53 424 c 0
88 471 139 506 197 519 c 0
267 534 345 514 400 466 c 0
Z
373 436 m 0
373 432 l 0
329 472 264 490 206 477 c 0
158 466 115 436 87 396 c 0
59 356 45 307 45 259 c 0
44 210 59 161 87 121 c 0
115 81 158 51 206 41 c 0
264 27 329 45 373 87 c 0
373 83 l 0
328 42 263 25 205 38 c 0
156 48 112 78 83 119 c 0
54 159 39 210 40 260 c 0
40 309 55 359 84 399 c 0
113 439 156 469 205 480 c 0
263 492 328 476 373 436 c 0
Z
346 407 m 0
346 403 l 0
311 435 260 448 214 438 c 0
175 429 141 404 118 371 c 0
96 338 85 298 85 259 c 0
84 219 95 179 118 146 c 0
140 113 175 88 214 80 c 0
260 69 311 83 346 116 c 0
346 112 l 0
310 80 259 66 213 77 c 0
173 85 137 111 114 144 c 0
91 178 79 219 80 260 c 0
80 300 91 341 115 374 c 0
138 407 173 432 213 441 c 0
259 451 310 438 346 407 c 0
Z
319 377 m 0
319 373 l 0
293 396 256 406 223 399 c 0
192 392 166 372 149 346 c 0
132 320 125 289 125 259 c 0
124 228 132 197 149 171 c 0
166 145 192 125 223 119 c 0
256 111 294 122 319 146 c 0
319 142 l 0
293 118 255 108 222 116 c 0
190 122 163 142 145 169 c 0
127 195 119 228 120 260 c 0
120 291 128 323 146 349 c 0
164 375 191 395 222 402 c 0
255 409 292 399 319 377 c 0
Z
Spiro
400 466 v
400 462 v
198 516 c
5 259 c
198 2 c
400 57 v
400 53 v
197 0 c
0 260 c
197 519 c
373 436 v
373 432 v
206 477 c
45 259 c
206 41 c
373 87 v
373 83 v
205 38 c
40 260 c
205 480 c
346 407 v
346 403 v
214 438 c
85 259 c
214 80 c
346 116 v
346 112 v
213 77 c
80 260 c
213 441 c
319 377 v
319 373 v
223 399 c
125 259 c
223 119 c
319 146 v
319 142 v
222 116 c
120 260 c
222 402 c
0 0 z
EndSpiro
EndSplineSet
        EndChar
